<svg width="52" height="44" viewBox="0 0 52 44" xmlns="http://www.w3.org/2000/svg">
  <path d="M11.866 3.513S16.126.64 24.16 1.038c8.036.396 21.88 1.88 25.56 10.3 3.677 8.42-.855 20.527-9.876 26.445-9.02 5.918-20.91 6.34-28.85 3.565C3.058 38.575-.526 30.285 1.604 22c2.13-8.285 3.003-13.732 10.263-18.487zM31.4 19.68h4.69v-5.69H31.4v5.69zm-7.53 9.98s.194 1.784 1.646 3.072c1.453 1.287.523 3.466-.852 3.17-1.374-.298-1.955-1.403-1.665-3.03.29-1.626.87-3.21.87-3.21v-.002zm-12.294.893s-1.258-4.953 1.646-7.23c2.904-2.278 6.002-1.98 7.84-4.062 1.84-2.075 2.712-5.15 2.712-5.15M9.714 28.65s-1.258-4.953 1.646-7.23c.547-.43 1.102-.768 1.653-1.048 2.374-1.203 4.695-1.326 6.188-3.013 1.84-2.08 2.715-5.15 2.715-5.15" />
</svg>
