<svg xmlns="http://www.w3.org/2000/svg" width="22" height="27" viewBox="0 0 22 27">
  <g fill="none" fill-rule="evenodd" stroke="#81E8B3" transform="translate(1 1)">
    <path d="M9.225,7.934 C9.225,7.934 6.587,9.447 3.69,9.04 C0.793,8.634 0.215,9.04 0.215,9.04 M9.778,1.743 C9.778,1.743 8.19,6.22 9.225,7.933 C9.225,7.933 16.939,13.341 17.791,16.707 M17.769,16.68 C10.939,14.333 12.249,24.046 14.659,24.85"/>
    <path d="M4.47,0.3 C6.146,-0.236 7.067,0.11 7.75,0.56 C8.43,1.008 9.778,1.743 9.778,1.743 C9.778,1.743 13.828,-0.49 16.605,0.663 C19.381,1.813 20.335,4.903 19.855,9.11 C19.375,13.318 17.979,16.236 17.775,16.748 C17.57,17.261 18.138,17.764 16.737,20.278 C15.335,22.792 15.134,24.811 14.657,24.811 C14.181,24.811 10.542,25.626 6.475,19.899 C2.41,14.17 0.215,9.04 0.215,9.04 C0.215,9.04 -0.263,8.07 0.215,5.904 C0.693,3.737 2.797,0.834 4.47,0.3 Z"/>
  </g>
</svg>
