<svg width="22" height="27" viewBox="0 0 22 27" xmlns="http://www.w3.org/2000/svg">
  <title>cor 2</title>
    <path d="M1.215 6.904C1.693 4.737 3.797 1.834 5.47 1.3c1.676-.536 2.597-.19 3.28.26.68.448 2.028 1.183 2.028 1.183s4.05-2.233 6.827-1.08c2.776 1.15 3.73 4.24 3.25 8.447-.48 4.208-1.876 7.126-2.08 7.638-.205.513.363 1.016-1.038 3.53-1.402 2.514-1.603 4.533-2.08 4.533-.476 0-4.115.815-8.182-4.912C3.41 15.17 1.215 10.04 1.215 10.04s-.478-.97 0-3.136z"/>
    <path d="M10.225 8.934S7.587 10.447 4.69 10.04c-2.897-.406-3.475 0-3.475 0m9.563-7.297s-1.588 4.477-.553 6.19c0 0 7.714 5.408 8.566 8.774m-.022-.027c-6.83-2.347-5.52 7.366-3.11 8.17"/>
</svg>
