<svg xmlns="http://www.w3.org/2000/svg" width="667" height="375" viewBox="0 0 667 375">
  <defs>
    <linearGradient id="a" x1="50%" x2="50%" y1="3.961%" y2="100%">
      <stop stop-color="#FDFDFD" offset="0%"/>
      <stop stop-color="#CBCBCB" offset="100%"/>
    </linearGradient>
    <linearGradient id="b" x1="50%" x2="50%" y1="3.961%" y2="100%">
      <stop stop-color="#B2E198" offset="0%"/>
      <stop stop-color="#04A171" offset="100%"/>
    </linearGradient>
  </defs>
  <g fill="none" fill-rule="evenodd">
    <rect width="667" height="375" fill="#EFEFEF"/>
    <g transform="translate(337 37)">
      <polygon fill="#264DE4" points="16.979 47.879 3.143 44.033 .059 9.409 33.941 9.409 30.854 44.028"/>
      <polygon fill="#2965F1" points="28.212 41.823 30.849 12.24 17 12.24 17 44.935"/>
      <polygon fill="#EBEBEB" points="7.128 25.082 7.508 29.328 17 29.328 17 25.082"/>
      <polygon fill="#EBEBEB" points="6.364 16.487 6.75 20.733 17 20.733 17 16.487"/>
      <polygon fill="#EBEBEB" points="17 36.11 16.981 36.115 12.257 34.838 11.955 31.452 7.698 31.452 8.292 38.119 16.98 40.534 17 40.528"/>
      <polygon fill="#000000" points="8.033 0 13.17 0 13.17 2.151 10.181 2.151 10.181 4.302 13.17 4.302 13.17 6.452 8.033 6.452"/>
      <polygon fill="#000000" points="14.198 0 19.335 0 19.335 1.87 16.346 1.87 16.346 2.244 19.335 2.244 19.335 6.546 14.198 6.546 14.198 4.582 17.187 4.582 17.187 4.208 14.198 4.208"/>
      <polygon fill="#000000" points="20.363 0 25.5 0 25.5 1.87 22.511 1.87 22.511 2.244 25.5 2.244 25.5 6.546 20.363 6.546 20.363 4.582 23.352 4.582 23.352 4.208 20.363 4.208"/>
      <polygon fill="#FFFFFF" points="26.845 25.082 27.611 16.487 16.985 16.487 16.985 20.733 22.962 20.733 22.576 25.082 16.985 25.082 16.985 29.328 22.208 29.328 21.716 34.836 16.985 36.114 16.985 40.532 25.681 38.119 25.745 37.402 26.741 26.222"/>
    </g>
    <path fill="#161614" d="M14.0001159,0 C6.26907888,0 0,6.18912297 0,13.8241145 C0,19.9319703 4.01145934,25.1138385 9.57413373,26.9417771 C10.2738149,27.0697441 10.5306893,26.6418898 10.5306893,26.27676 C10.5306893,25.9471129 10.5177065,24.8581331 10.5116787,23.702995 C6.61683296,24.5392454 5.79497414,22.0719289 5.79497414,22.0719289 C5.15812045,20.4740566 4.24051337,20.0491781 4.24051337,20.0491781 C2.97028359,19.1911802 4.33626163,19.2088071 4.33626163,19.2088071 C5.74211552,19.3063276 6.48236805,20.633386 6.48236805,20.633386 C7.73103707,22.7467897 9.75751605,22.135798 10.5564231,21.7825721 C10.6820783,20.8890913 11.0449018,20.2792442 11.4452825,19.9340306 C8.33566552,19.5844673 5.06677708,18.3991116 5.06677708,13.1020958 C5.06677708,11.592816 5.61367831,10.3596158 6.50926103,9.39150652 C6.36389981,9.04331684 5.88469469,7.6372807 6.64488512,5.73311127 C6.64488512,5.73311127 7.82052579,5.36157158 10.4959139,7.15013563 C11.6126683,6.84383861 12.8103333,6.69023225 14.0001159,6.68496707 C15.1898986,6.69023225 16.388491,6.84383861 17.5073317,7.15013563 C20.1794742,5.36157158 21.3534919,5.73311127 21.3534919,5.73311127 C22.1155372,7.6372807 21.6361002,9.04331684 21.4907389,9.39150652 C22.3884082,10.3596158 22.9316,11.592816 22.9316,13.1020958 C22.9316,18.4117023 19.656452,19.5808047 16.5389526,19.9230423 C17.0411095,20.3520414 17.488553,21.1933279 17.488553,22.483072 C17.488553,24.3327582 17.4723246,25.821435 17.4723246,26.27676 C17.4723246,26.6446369 17.7243303,27.0756961 18.4339805,26.9399456 C23.993641,25.1099468 28,19.92991 28,13.8241145 C28,6.18912297 21.7318486,0 14.0001159,0 Z M5.24349867,19.6927429 C5.21266446,19.7614193 5.10323784,19.7820223 5.00354834,19.7348645 C4.90200413,19.6897668 4.8449725,19.596138 4.87789321,19.5272327 C4.90803189,19.4564958 5.01769034,19.4368086 5.11900269,19.4841953 C5.22077874,19.5292929 5.27873775,19.6238375 5.24349867,19.6927429 Z M5.93214882,20.2994914 C5.86538004,20.3606135 5.73485635,20.3322272 5.64629496,20.2356224 C5.55471971,20.1392464 5.53756386,20.0103636 5.60525998,19.9483258 C5.67411528,19.8872037 5.80069779,19.9158189 5.89250487,20.0121949 C5.98408007,20.1097155 6.00193146,20.2376826 5.93214882,20.2994914 Z M6.40458889,21.0758055 C6.31880957,21.1346384 6.17854875,21.0794682 6.09184206,20.9565374 C6.0060627,20.8336065 6.0060627,20.686181 6.09369677,20.6271193 C6.18063525,20.5680575 6.31880957,20.6211674 6.40667542,20.7431825 C6.49222294,20.8681736 6.49222294,21.015599 6.40458889,21.0758055 Z M7.20358616,21.9748868 C7.12684843,22.0584434 6.96340403,22.036009 6.84377659,21.9220061 C6.72136718,21.8105212 6.68728727,21.6523364 6.76425685,21.56878 C6.84192191,21.4849948 7.00629368,21.5085737 7.12684843,21.6216609 C7.24833053,21.7329169 7.2854243,21.8922463 7.20358616,21.9748868 Z M8.23621259,22.2784065 C8.20236456,22.3866865 8.04494786,22.4359046 7.88637198,22.3898914 C7.72802796,22.3425046 7.62439724,22.2156822 7.65639062,22.1062577 C7.68931133,21.9972911 7.84742351,21.9460126 8.00715857,21.9952306 C8.16527076,22.0423885 8.26913334,22.1682954 8.23621259,22.2784065 Z M9.41138483,22.4071517 C9.415326,22.5211546 9.28086109,22.6156992 9.11440282,22.6177596 C8.94701719,22.6214223 8.81162494,22.529167 8.80977024,22.4169954 C8.80977024,22.3018478 8.94122127,22.208219 9.1086069,22.2054719 C9.27506521,22.202267 9.41138483,22.2938355 9.41138483,22.4071517 Z M10.5658598,22.3634545 C10.5857978,22.4747105 10.4701115,22.5889422 10.3048124,22.6193888 C10.1422954,22.6486907 9.99183375,22.5800142 9.97120035,22.4696741 C9.95103063,22.3556711 10.0688033,22.2414393 10.2310886,22.2119086 C10.3966195,22.1835223 10.5447628,22.2503673 10.5658598,22.3634545 Z" transform="translate(147 122)"/>
    <g transform="translate(175 61)">
      <polygon fill="#E44D26" points="33.941 9.409 30.854 44.028 16.979 47.879 3.143 44.033 .059 9.409"/>
      <polygon fill="#F16529" points="17 44.935 28.212 41.823 30.849 12.24 17 12.24"/>
      <polygon fill="#EBEBEB" points="11 20.733 17 20.733 17 16.487 6.364 16.487 6.466 17.626 7.508 29.328 17 29.328 17 25.082 11.387 25.082"/>
      <polygon fill="#EBEBEB" points="11.955 31.452 7.698 31.452 8.292 38.119 16.98 40.534 17 40.528 17 36.11 16.981 36.115 12.257 34.838"/>
      <polygon fill="#000000" points="3.212 0 5.367 0 5.367 2.132 7.339 2.132 7.339 0 9.495 0 9.495 6.457 7.339 6.457 7.339 4.294 5.367 4.294 5.367 6.457 3.212 6.457 3.212 0"/>
      <polygon fill="#000000" points="12.329 2.141 10.431 2.141 10.431 0 16.383 0 16.383 2.141 14.485 2.141 14.485 6.457 12.329 6.457 12.329 2.141"/>
      <polygon fill="#000000" points="17.328 0 19.576 0 20.958 2.269 22.339 0 24.588 0 24.588 6.457 22.441 6.457 22.441 3.256 20.958 5.552 20.921 5.552 19.437 3.256 19.437 6.457 17.328 6.457"/>
      <polygon fill="#000000" points="25.661 0 27.817 0 27.817 4.322 30.848 4.322 30.848 6.457 25.661 6.457"/>
      <polygon fill="#FFFFFF" points="16.985 29.328 22.208 29.328 21.716 34.836 16.985 36.114 16.985 40.532 25.681 38.119 25.745 37.402 26.741 26.222 26.845 25.082 16.985 25.082"/>
      <polygon fill="#FFFFFF" points="16.985 20.723 16.985 20.733 27.231 20.733 27.316 19.779 27.509 17.626 27.611 16.487 16.985 16.487"/>
    </g>
    <g transform="translate(180 170)">
      <polygon fill="#F7DF1E" points="0 0 25 0 25 25 0 25"/>
      <path fill="#000000" d="M6.5734127 20.8918254L8.4865873 19.7340079C8.8556746 20.3884127 9.19142857 20.9421032 9.99678574 20.9421032 10.7687698 20.9421032 11.2554762 20.640119 11.2554762 19.4655159L11.2554762 11.4774206 13.6048413 11.4774206 13.6048413 19.4987302C13.6048413 21.9320635 12.1784921 23.0396429 10.0975 23.0396429 8.21809523 23.0396429 7.12714286 22.0662698 6.57337302 20.891627M14.8809523 20.6400794L16.7938889 19.5325C17.2974604 20.354881 17.9519444 20.9589683 19.1098016 20.9589683 20.083254 20.9589683 20.7040079 20.4722619 20.7040079 19.8009921 20.7040079 18.9954762 20.0663492 18.7101587 18.9923016 18.2404365L18.405119 17.9885317C16.7100794 17.2670635 15.5856746 16.360873 15.5856746 14.4477381 15.5856746 12.6856746 16.9281746 11.3430952 19.0259523 11.3430952 20.5195238 11.3430952 21.5935317 11.863373 22.3653968 13.2226984L20.5361904 14.3973413C20.1334127 13.6757937 19.6972223 13.3905556 19.0259921 13.3905556 18.3379365 13.3905556 17.9015873 13.826865 17.9015873 14.3973413 17.9015873 15.1021825 18.3379365 15.3875396 19.3447223 15.8238889L19.9320238 16.0755952C21.9290477 16.9315079 23.0534523 17.8040477 23.0534523 19.7674206 23.0534523 21.8820238 21.3921032 23.0398413 19.1601984 23.0398413 16.9786111 23.0398413 15.5689286 21.9994444 14.8809921 20.6400794"/>
    </g>
    <g transform="translate(209 75)">
      <path fill="#FFFFFF" d="M0.435978002,66.8545465 C0.435978002,78.0489886 11.2830362,88.4994552 28.3843187,94.3899059 C24.9693522,111.715351 27.7722967,125.679543 37.1344369,131.120808 C46.7577481,136.713328 61.0941086,132.842135 74.701261,120.855658 C87.9651095,132.358252 101.370593,136.885097 110.72401,131.428368 C120.337911,125.819613 123.262253,110.908306 119.752843,93.0420809 C137.564734,87.1073782 147.528214,78.1963432 147.528214,66.8545465 C147.528214,55.919637 136.66103,46.4594674 119.790404,40.6066563 C123.56842,22.0020494 120.367197,8.37671077 110.617522,2.71073555 C101.217812,-2.75161541 87.656711,2.00938034 74.1977916,13.8132205 C60.196073,1.28437697 46.768779,-2.54083619 37.0285547,3.14165304 C27.6379812,8.61954173 24.9582977,22.8375013 28.3843187,40.4836958 C11.8604827,46.289544 0.435978002,55.9633673 0.435978002,66.8545465 Z"/>
      <path fill="#53C1DE" d="M116.21732,46.4188338 C114.862184,45.948778 113.457986,45.5040292 112.012166,45.0834161 C112.249804,44.1060467 112.467909,43.1413309 112.661832,42.1930178 C115.845053,26.6214224 113.763752,14.0768366 106.656729,9.94662518 C99.8419857,5.98629934 88.6969932,10.1155735 77.4410873,19.9872146 C76.3586991,20.936465 75.2732879,21.9414847 74.1883427,22.9947753 C73.4654327,22.2978929 72.7436858,21.624443 72.0237994,20.9802838 C60.2272807,10.4248824 48.4030919,5.976692 41.3030448,10.118854 C34.4948122,14.0906618 32.4786175,25.8837675 35.3439812,40.6410838 C35.6206819,42.0664824 35.9441194,43.5221089 36.3098759,45.0021053 C34.6364179,45.4808311 33.0208578,45.9911909 31.4750542,46.5341217 C17.6449018,51.3933181 8.81233619,59.0088785 8.81233619,66.9082065 C8.81233619,75.0666986 18.2941021,83.2497943 32.6992804,88.2116244 C33.8360785,88.6031817 35.0156606,88.973415 36.2312836,89.3249022 C35.8366944,90.9255765 35.4934926,92.4941473 35.2053983,94.024055 C32.4732695,108.525254 34.6068876,120.039747 41.3969835,123.986482 C48.4105326,128.062331 60.1812412,123.872835 71.6429283,113.776242 C72.5488328,112.978131 73.4579922,112.131749 74.368779,111.244595 C75.5492918,112.39021 76.7279429,113.474431 77.9003174,114.491401 C89.002294,124.11911 99.9673151,128.006796 106.751133,124.049048 C113.757706,119.961482 116.034791,107.592172 113.07851,92.5428872 C112.852732,91.3935231 112.589983,90.2193207 112.294913,89.0242639 C113.121527,88.7779876 113.933028,88.5237453 114.724299,88.2594268 C129.699853,83.2591673 139.443437,75.1756593 139.443437,66.9082065 C139.443437,58.9802911 130.326033,51.3134133 116.21732,46.4188338 L116.21732,46.4188338 L116.21732,46.4188338 Z"/>
      <path fill="#FFFFFF" d="M112.969226,82.9212706 C112.254919,83.1595785 111.522011,83.3899204 110.775152,83.613232 C109.121923,78.338812 106.890646,72.7302443 104.160145,66.9356229 C106.765782,61.2790186 108.910793,55.7421547 110.51775,50.501946 C111.854052,50.8916284 113.151057,51.3026344 114.400861,51.7363698 C126.489194,55.9300833 133.862919,62.1305554 133.862919,66.9082065 C133.862919,71.997276 125.89952,78.6035989 112.969226,82.9212706 L112.969226,82.9212706 L112.969226,82.9212706 Z M107.604022,93.6350751 C108.911258,100.28967 109.097973,106.306197 108.232062,111.009567 C107.454045,115.235852 105.889407,118.053609 103.954828,119.182118 C99.8380325,121.58348 91.0343005,118.462038 81.5397455,110.228328 C80.4513119,109.284467 79.3549724,108.276635 78.2551451,107.209988 C81.9359623,103.15312 85.6146868,98.4368626 89.2050529,93.1989966 C95.5201065,92.634274 101.486379,91.7110332 106.896924,90.4505995 C107.163394,91.5338835 107.400101,92.596313 107.604022,93.6350751 L107.604022,93.6350751 L107.604022,93.6350751 Z M53.3474313,118.767129 C49.3252726,120.19862 46.1218225,120.239627 44.1853825,119.114398 C40.0648673,116.719363 38.3518806,107.474307 40.6884902,95.0728934 C40.9561226,93.6526495 41.2746772,92.1937432 41.6418288,90.7024991 C46.9930809,91.8949785 52.9156386,92.7530761 59.2458066,93.2702316 C62.8603551,98.3956215 66.6453418,103.106724 70.4596261,107.23178 C69.6262687,108.042544 68.7961662,108.814411 67.9707147,109.541755 C62.9024414,114.006349 57.8234722,117.173953 53.3474313,118.767129 L53.3474313,118.767129 L53.3474313,118.767129 Z M34.5041131,82.8901051 C28.1344164,80.6961208 22.8740802,77.8446206 19.2683676,74.73302 C16.0284117,71.9368204 14.3926221,69.1607727 14.3926221,66.9082065 C14.3926221,62.1146216 21.4842985,56.0003807 33.3119749,51.8446279 C34.7470982,51.3403606 36.2494203,50.8651497 37.8084776,50.4187606 C39.4431045,55.7773034 41.5874187,61.3797784 44.1751516,67.0450525 C41.5539356,72.794449 39.3791611,78.4862027 37.7284902,83.9075438 C36.6170369,83.5855814 35.5402294,83.2467479 34.5041131,82.8901051 L34.5041131,82.8901051 L34.5041131,82.8901051 Z M40.8205625,39.5610801 C38.3655994,26.9173749 39.9960409,17.3794124 44.0988845,14.9860174 C48.4691281,12.4363277 58.1329582,16.0716448 68.3183349,25.1857135 C68.969395,25.7682453 69.6230133,26.3779588 70.278492,27.0087616 C66.4830418,31.1157748 62.732701,35.7914947 59.1502408,40.8866563 C53.0065546,41.4605181 47.1256182,42.3823524 41.7185609,43.6167762 C41.3786143,42.2387112 41.0774988,40.8847817 40.8205625,39.5610801 L40.8205625,39.5610801 L40.8205625,39.5610801 Z M97.1689173,53.5828503 C95.8763304,51.3328622 94.5493288,49.1360659 93.1965186,46.9992568 C97.3644686,47.5302371 101.357794,48.2350865 105.107903,49.0976366 C103.982033,52.7338911 102.578765,56.5358133 100.926932,60.4333399 C99.7420019,58.1662462 98.4887102,55.8804064 97.1689173,53.5828503 L97.1689173,53.5828503 L97.1689173,53.5828503 Z M74.1902025,31.027903 C76.7642168,33.8381621 79.3419513,36.975773 81.8773671,40.3800457 C79.3224194,40.2584311 76.7358488,40.1951634 74.127887,40.1951634 C71.5445719,40.1951634 68.9770685,40.2570252 66.4379325,40.3765308 C68.9759059,37.003892 71.5759623,33.8704988 74.1902025,31.027903 L74.1902025,31.027903 L74.1902025,31.027903 Z M51.0643017,53.6217483 C49.7731092,55.8780632 48.5430699,58.1514838 47.3767416,60.4291224 C45.751648,56.5451863 44.3614014,52.725924 43.2257659,49.038118 C46.9528547,48.1975945 50.9273464,47.5103195 55.0687887,46.9894151 C53.6969113,49.1459075 52.3589819,51.3588723 51.0643017,53.6212796 L51.0643017,53.6217483 L51.0643017,53.6217483 Z M55.1880723,87.2281628 C50.9092097,86.7470935 46.8749599,86.0952022 43.1488012,85.2778762 C44.3025735,81.524225 45.723513,77.623418 47.3830196,73.6558278 C48.5523708,75.9318259 49.787293,78.206184 51.0863912,80.4674201 L51.0866237,80.4674201 C52.4099042,82.7710682 53.7808515,85.0276172 55.1880723,87.2281628 L55.1880723,87.2281628 L55.1880723,87.2281628 Z M74.3445972,103.184988 C71.6996638,100.309118 69.0614736,97.1279232 66.4849017,93.7060759 C68.9861364,93.8049609 71.5362006,93.8555756 74.127887,93.8555756 C76.790492,93.8555756 79.4226362,93.7951195 82.0133924,93.6788943 C79.4696054,97.1623694 76.9011723,100.348485 74.3445972,103.184988 L74.3445972,103.184988 L74.3445972,103.184988 Z M100.980179,73.4536055 C102.726184,77.4640769 104.198045,81.3444978 105.366699,85.0341785 C101.579155,85.9049297 97.4897975,86.6062648 93.1811723,87.1274036 C94.5372385,84.9617719 95.875865,82.7272491 97.1912393,80.4287558 C98.521961,78.1033157 99.7854833,75.7743602 100.980179,73.4536055 L100.980179,73.4536055 L100.980179,73.4536055 Z M92.3573477,77.6192 C90.3153431,81.1872657 88.2189283,84.5934129 86.0906582,87.8085862 C82.2142902,88.087901 78.2095709,88.2317768 74.127887,88.2317768 C70.0627121,88.2317768 66.1084492,88.104538 62.3006757,87.8554506 C60.086605,84.5981 57.944616,81.1818766 55.9156324,77.6498964 L55.9160974,77.6498964 C53.8924619,74.1275241 52.0299639,70.5753921 50.3423221,67.0431783 C52.0294988,63.5027625 53.8871139,59.9466472 55.8991233,56.4306014 L55.8986583,56.4313044 C57.9160156,52.9058856 60.0391704,49.5062993 62.232779,46.2693345 C66.1177501,45.9733822 70.101543,45.818962 74.1276546,45.818962 L74.127887,45.818962 C78.172135,45.818962 82.1610432,45.9745538 86.0448511,46.2730838 C88.204977,49.4863817 90.3137157,52.8749547 92.3389789,56.4008421 C94.3872619,59.9663307 96.2688264,63.4987787 97.9704194,66.9632735 C96.2739422,70.4872859 94.3965628,74.0553523 92.3573477,77.6192 L92.3573477,77.6192 L92.3573477,77.6192 Z M103.86926,14.8187094 C108.243689,17.3609007 109.944817,27.6135543 107.196412,41.0579478 C107.02109,41.9158114 106.82368,42.7896091 106.609294,43.6751231 C101.189681,42.4149236 95.304559,41.4771552 89.1429698,40.8946233 C85.5535333,35.7434581 81.8338851,31.0604741 78.1002857,27.0061839 C79.1040818,26.0330325 80.1064823,25.1051057 81.1046972,24.2294334 C90.7487634,15.7714746 99.7624635,12.4321098 103.86926,14.8187094 L103.86926,14.8187094 L103.86926,14.8187094 Z"/>
      <path fill="#53C1DE" d="M74.127887,55.1528274 C80.5701305,55.1528274 85.7927978,60.4157655 85.7927978,66.9082065 C85.7927978,73.4004133 80.5701305,78.6635866 74.127887,78.6635866 C67.6856436,78.6635866 62.4629757,73.4004133 62.4629757,66.9082065 C62.4629757,60.4157655 67.6856436,55.1528274 74.127887,55.1528274"/>
    </g>
    <g transform="translate(368 61)">
      <path fill="#FFC24A" d="M0,108.038977 L0.804231342,106.90436 L38.8482586,34.172645 L38.9286095,33.4027001 L22.1579851,1.66380551 C20.7529328,-0.994899145 16.797408,-0.32268642 16.336296,2.65352631 L0,108.038977 L0,108.038977 Z"/>
      <g transform="translate(.379 .382)">
        <path fill="#FFA712" d="M0.0957626324,106.792136 L0.70413866,105.596909 L38.3495475,33.6272636 L21.6208933,1.7592571 C20.2305629,-0.871590127 16.6999612,-0.200933421 16.2436807,2.74409509 L0.0957626324,106.792136 L0.0957626324,106.792136 Z"/>
        <path fill="#F4BD62" d="M0.70413866,105.596909 L38.3495475,33.6272636 L21.6208933,1.7592571 C20.2305629,-0.871590127 16.6999612,-0.200933421 16.2436807,2.74409509 L0.0957626324,106.792136 L0.70413866,105.596909 Z"/>
      </g>
      <path fill="#F4BD62" d="M51.1542288,57.4102973 L63.6411692,44.5252073 L51.1506095,20.5005918 C49.9648929,18.226495 46.6542783,18.2199308 45.4811092,20.5005917 L38.8079627,33.3236563 L38.8079627,34.4157599 L51.1542288,57.4102973 L51.1542288,57.4102973 Z"/>
      <g transform="translate(38.648 19.088)">
        <path fill="#FFA50E" d="M12.2830429,37.7850356 L24.4226759,25.2583273 L12.2830433,1.96788636 C11.1303059,-0.242959523 8.32984128,-0.474598146 7.18930202,1.74262927 L0.480737305,14.764368 L0.280171996,15.4300608 L12.2830429,37.7850356 L12.2830429,37.7850356 Z"/>
        <path fill="#F4BD62" d="M24.4226759,25.2583273 L12.2830433,1.96788636 C11.1303059,-0.242959523 8.32984128,-0.474598146 7.18930202,1.74262927 L0.480737305,14.764368 L0.280171996,15.4300608 L12.2830429,37.7850356 L24.4226759,25.2583273 Z"/>
      </g>
      <polygon fill="#F6820C" points="0 108.039 .365 107.67 1.689 107.127 50.37 58.261 50.987 56.57 38.843 33.254"/>
      <path fill="#FDE068" d="M52.7138054,132.68339 L96.7711088,107.926756 L84.1898231,29.8576957 C83.7962732,27.4151202 80.8220892,26.4494678 79.0869471,28.2008676 L9.65174122e-05,108.039075 L43.8047658,132.681202 C46.5731264,134.238596 49.944721,134.239326 52.7138054,132.68339"/>
      <path fill="#FCCA3F" d="M96.3763521,107.71914 L83.8905777,30.2427451 C83.5000155,27.8187126 81.0267493,26.8156354 79.3047799,28.5537393 L0.488581846,107.887479 L43.8121056,132.285662 C46.5594498,133.831233 49.9054489,133.831957 52.653512,132.287834 L96.3763521,107.71914 L96.3763521,107.71914 Z"/>
      <path fill="#EEAB37" d="M52.7137812,131.954045 C49.9446968,133.509981 46.5731022,133.509251 43.8047415,131.951857 L0.352893457,107.663675 L7.23880603e-05,108.039075 L43.8047415,132.681202 C46.5731022,134.238596 49.9446968,134.239326 52.7137812,132.68339 L96.7710849,107.926756 L96.6632266,107.257946 L52.7137812,131.954045 L52.7137812,131.954045 Z"/>
    </g>
    <path fill="#CD6799" d="M52.488889,26.4772313 C50.3666666,26.4884031 48.5222222,27.0023071 46.9777777,27.7619914 C46.4111111,26.633637 45.8444444,25.6281724 45.7444445,24.8908319 C45.6333334,24.030601 45.5000001,23.5055252 45.6333334,22.4777171 C45.7666666,21.4499089 46.3666666,19.9863995 46.3555556,19.8746812 C46.3444445,19.762963 46.2222222,19.2378871 45,19.2267152 C43.7777778,19.2155434 42.7222221,19.4613236 42.6,19.7853066 C42.4777777,20.1092896 42.2444444,20.8466302 42.0888889,21.6063145 C41.8777777,22.7234973 39.6444445,26.7118397 38.3666667,28.8009714 C37.9555556,27.985428 37.5999999,27.2704311 37.5222223,26.7006679 C37.411111,25.8404372 37.2777777,25.3153614 37.411111,24.2875532 C37.5444444,23.259745 38.1444445,21.7962356 38.1333334,21.6845173 C38.1222221,21.572799 38,21.0477231 36.7777778,21.0365513 C35.5555556,21.0253795 34.4999999,21.2711597 34.3777779,21.5951427 C34.2555555,21.9191257 34.1222222,22.67881 33.8666667,23.4161506 C33.611111,24.1534912 30.6444444,30.8119004 29.8666668,32.532362 C29.4666667,33.4149362 29.1222223,34.1187613 28.8777777,34.5991499 L28.8777777,34.5991499 C28.8777777,34.5991499 28.8666666,34.6326654 28.8333332,34.6885245 C28.6222222,35.1018822 28.4999999,35.3253188 28.4999999,35.3253188 C28.4999999,35.3253188 28.4999999,35.3253188 28.4999999,35.3364906 C28.3333334,35.6381298 28.1555555,35.9174256 28.0666666,35.9174256 C28.0000001,35.9174256 27.8777777,35.113054 28.088889,34.0182149 C28.5333333,31.7056466 29.588889,28.1083182 29.5777777,27.985428 C29.5777777,27.9183971 29.7777779,27.2927746 28.888889,26.9687918 C28.0222222,26.6448088 27.7111112,27.1810564 27.6333334,27.1810564 C27.5555555,27.1810564 27.5,27.3709775 27.5,27.3709775 C27.5,27.3709775 28.4666667,23.3267759 25.6555556,23.3267759 C23.8999999,23.3267759 21.4777778,25.259502 20.2777778,27.0023071 C19.5222222,27.4156648 17.9111111,28.2982393 16.1888889,29.2478446 C15.5333333,29.6165149 14.8555556,29.9851853 14.2222222,30.3315119 C14.1777778,30.2868245 14.1333333,30.2309654 14.0888889,30.1862781 C10.6888889,26.5330904 4.40000001,23.9523983 4.66666668,19.047966 C4.76666667,17.2604736 5.37777778,12.568306 16.7444444,6.87067395 C26.0999999,2.23436551 33.5444445,3.51912569 34.8333332,6.36794172 C36.6777779,10.434487 30.8444444,17.9866424 21.1777778,19.0814815 C17.4888889,19.4948391 15.5555556,18.0648452 15.0666667,17.5285974 C14.5555556,16.9700061 14.4777778,16.9364906 14.2888889,17.0482089 C13.9777778,17.2157863 14.1777778,17.7185185 14.2888889,18.008986 C14.5777778,18.7686703 15.7666667,20.1092896 17.7777778,20.7684274 C19.5555556,21.3493625 23.8777778,21.6733455 29.111111,19.6400729 C34.9666666,17.36102 39.5444445,11.0265938 38.2,5.7199757 C36.8555554,0.335154826 27.9666667,-1.44116576 19.5555556,1.56405586 C14.5555556,3.35154826 9.13333332,6.16684881 5.23333333,9.83120826 C0.600000001,14.188221 -0.133333333,17.9754706 0.166666667,19.5618701 C1.24444444,25.1924712 8.96666667,28.8568307 12.0555556,31.5715847 C11.9,31.6609593 11.7555555,31.7391622 11.6333333,31.806193 C10.0888889,32.5770491 4.2,35.6716454 2.73333334,38.9449908 C1.06666667,42.6540376 2.99999999,45.3129325 4.27777779,45.6704311 C8.24444444,46.7764419 12.3222222,44.7878566 14.5111111,41.5033395 C16.7,38.2188221 16.4333333,33.9511841 15.4222222,31.9961141 C15.4111111,31.9737706 15.4,31.9514268 15.3777778,31.9290832 C15.7777778,31.6944749 16.1888889,31.4486947 16.5888889,31.2140863 C17.3777778,30.7448695 18.1555556,30.3091681 18.8222222,29.9516697 C18.4444444,30.9906497 18.1666667,32.2307225 18.0333333,34.0182149 C17.8666667,36.1185186 18.7222222,38.8444444 19.8444444,39.9169399 C20.3444445,40.3861566 20.9333333,40.3973284 21.3111111,40.3973284 C22.6222222,40.3973284 23.2111111,39.3024894 23.8666668,38.0065575 C24.6666667,36.4201579 25.3888889,34.5768063 25.3888889,34.5768063 C25.3888889,34.5768063 24.4888889,39.5594413 26.9333333,39.5594413 C27.8222222,39.5594413 28.7222222,38.3975714 29.1222223,37.8054644 L29.1222223,37.8166364 C29.1222223,37.8166364 29.1444444,37.7831209 29.1888889,37.704918 C29.2777778,37.5596842 29.3333333,37.4703096 29.3333333,37.4703096 L29.3333333,37.4479661 C29.688889,36.8223435 30.4888889,35.4035215 31.6777778,33.0462658 C33.2111112,30.0075288 34.6888888,26.2091076 34.6888888,26.2091076 C34.6888888,26.2091076 34.8222222,27.1363691 35.2777778,28.6780814 C35.5444446,29.5829994 36.0999999,30.577292 36.5444445,31.5380691 C36.1888888,32.0408014 35.9666668,32.3200971 35.9666668,32.3200971 C35.9666668,32.3200971 35.9666668,32.3200971 35.9777778,32.3312689 C35.688889,32.711111 35.3777778,33.1244687 35.0333334,33.5266546 C33.8222223,34.978992 32.3777778,36.6435945 32.1777778,37.123983 C31.9444445,37.6937462 32,38.1071039 32.4444443,38.4422587 C32.7666666,38.6880389 33.3444445,38.7215544 33.9333333,38.6880389 C35.0222221,38.609836 35.788889,38.3417123 36.1666667,38.1741348 C36.7555555,37.9618702 37.4444444,37.6378871 38.088889,37.1574986 C39.2777778,36.2749241 39.9999999,35.0125076 39.9333333,33.3479053 C39.8999999,32.4318153 39.6,31.5157256 39.2333333,30.6554949 C39.3444443,30.4990891 39.4444445,30.3426836 39.5555556,30.1862781 C41.4333333,27.4268366 42.8888889,24.3992714 42.8888889,24.3992714 C42.8888889,24.3992714 43.0222223,25.3265331 43.4777779,26.8682452 C43.6999999,27.6502732 44.1555556,28.4993321 44.5555557,29.3260475 C42.7888889,30.7672131 41.7000001,32.4429873 41.311111,33.5378264 C40.611111,35.571099 41.1555555,36.4871887 42.1888889,36.6994536 C42.6555555,36.8 43.3222222,36.5765634 43.8111112,36.3642988 C44.4333333,36.1632059 45.1666668,35.8168791 45.8666666,35.302975 C47.0555556,34.4204008 48.1999999,33.1914998 48.1333334,31.5268973 C48.1,30.7672131 47.9,30.0187006 47.6222222,29.2925319 C49.1222223,28.6669096 51.0555555,28.3205828 53.5222223,28.6110503 C58.811111,29.2366728 59.8555556,32.5547055 59.6555555,33.9511841 C59.4555555,35.3476624 58.3444443,36.1073466 57.9777779,36.341955 C57.6111112,36.5765634 57.4888888,36.6547663 57.5222222,36.8223435 C57.5666667,37.0681239 57.7444445,37.0569519 58.0555555,37.0122646 C58.4888888,36.934062 60.8333332,35.8839102 60.9333334,33.3143898 C61.1,30.0298726 57.9888889,26.4437157 52.488889,26.4772313 L52.488889,26.4772313 Z M11.6888889,40.3079538 C9.93333333,42.2295082 7.48888889,42.9556769 6.43333333,42.3412264 C5.30000001,41.6820885 5.74444444,38.8444444 7.90000001,36.8111718 C9.21111111,35.571099 10.9,34.4204008 12.0222222,33.7165757 C12.2777778,33.5601699 12.6555556,33.3367336 13.1111111,33.0574378 C13.1888889,33.0127505 13.2333333,32.9904067 13.2333333,32.9904067 L13.2333333,32.9904067 C13.3222222,32.9345476 13.4111111,32.8786886 13.5,32.8228295 C14.2888889,35.7275045 13.5333333,38.2858529 11.6888889,40.3079538 L11.6888889,40.3079538 Z M24.4666666,31.5715847 C23.8555555,33.0686096 22.5777778,36.9005464 21.8,36.6882818 C21.1333333,36.5095325 20.7222222,33.6048572 21.6666667,30.7336975 C22.1444444,29.2925319 23.1555556,27.5720703 23.7444444,26.9017607 C24.6999999,25.8292652 25.7555556,25.4717669 26.011111,25.9074681 C26.3333333,26.4772313 24.8444443,30.6331511 24.4666666,31.5715847 L24.4666666,31.5715847 Z M35.0111111,36.6435945 C34.7555556,36.7776565 34.511111,36.8670309 34.4,36.8 C34.3222221,36.7553127 34.511111,36.5765634 34.511111,36.5765634 C34.511111,36.5765634 35.8333334,35.1465695 36.3555556,34.4986035 C36.6555555,34.1187613 37.0111112,33.6718884 37.3888889,33.169156 L37.3888889,33.3143898 C37.3888889,35.0236793 35.7444445,36.1743777 35.0111111,36.6435945 L35.0111111,36.6435945 Z M43.1444443,34.7778992 C42.9555554,34.6438372 42.9888889,34.1969642 43.6222223,32.8004857 C43.8666667,32.2530663 44.4444444,31.3369763 45.4333333,30.4544021 C45.5444445,30.8119004 45.6222222,31.158227 45.6111111,31.48221 C45.6,33.6383728 44.0666666,34.4427444 43.1444443,34.7778992 L43.1444443,34.7778992 Z" transform="translate(435 29)"/>
    <g transform="translate(481 105)">
      <circle cx="15" cy="15" r="14.983" fill="url(#a)"/>
      <ellipse cx="14.983" cy="15.017" fill="url(#b)" rx="13.7" ry="13.7"/>
      <g transform="translate(5.333 6.167)">
        <path fill="#F2F8F6" d="M6.43849747,6.73529488 C6.27729748,6.98376155 6.12153081,7.23329488 5.97119748,7.48319488 C5.80676414,7.03056155 5.66239747,6.58479488 5.53943081,6.14992821 C5.97656414,6.08729488 6.44119747,6.03786155 6.93093081,6.00366155 C6.76463081,6.24206154 6.60029748,6.48596154 6.43849747,6.73529488 L6.43849747,6.73529488 L6.43849747,6.73529488 Z M18.5249641,7.61126154 C18.0407309,7.14642821 17.3484641,6.72049487 16.4673975,6.34526154 C14.7182974,5.60036154 12.3754308,5.11776155 9.87033081,4.98636155 C9.56823081,4.97052821 9.27329748,4.95969487 8.98806415,4.95392821 C10.9006641,2.67102821 12.7477975,1.45636154 13.8235308,1.41549487 C14.0513309,1.40679487 14.2425641,1.45186154 14.3923975,1.54922821 C14.8958641,1.87642821 15.0355308,2.89129487 14.7660641,4.26399487 C14.7128974,4.53496154 14.8893975,4.79776154 15.1603642,4.85096154 C15.4313641,4.90396154 15.6940975,4.72762821 15.7473308,4.45662821 C16.2105641,2.09682821 15.5625641,1.11712821 14.9373975,0.710761543 C14.6110975,0.498661543 14.2233308,0.399594877 13.7855641,0.41622821 C12.1308641,0.479094877 9.81236414,2.24346155 7.69683081,4.96349488 C6.85926415,4.99239487 6.05179747,5.06469487 5.29646414,5.17749487 C5.21356414,4.79252821 5.14949748,4.41939487 5.10609748,4.06172821 C4.91636414,2.49799487 5.14906414,1.38799487 5.72853081,1.09246154 C5.8216308,1.04499488 5.92336414,1.01766154 6.03956414,1.00896154 C6.55733081,0.969994876 7.28789748,1.31792821 8.0953308,1.98849487 C8.30769748,2.16489487 8.62296415,2.13572821 8.7994308,1.92326154 C8.9758308,1.71082821 8.94663081,1.39559488 8.73419748,1.21919488 C7.69713081,0.357928209 6.76539748,-0.0484051236 5.9647308,0.011761543 C5.71716415,0.0303282096 5.48486414,0.0942282096 5.27423081,0.201628209 C4.73596414,0.476128209 4.3681308,1.00176154 4.1809308,1.76392821 C4.02059748,2.41659487 3.99786415,3.23022821 4.11339748,4.18216154 C4.15906414,4.55862821 4.22586415,4.95042821 4.31196415,5.35382821 C3.72139747,5.47829488 3.17406415,5.62992821 2.68346414,5.80716155 C0.537064144,6.58252821 0.04153081,7.60452821 0.00379747657,8.32536155 C-0.03226919,9.01392821 0.320197477,10.0386949 2.20406414,11.0101949 C2.44949748,11.1367949 2.75106415,11.0403615 2.87763081,10.7949615 C3.00419748,10.5495282 2.90783081,10.2479615 2.66239747,10.1214282 C1.57869748,9.56252821 0.973664143,8.92699487 1.00243081,8.37766154 C1.04296414,7.60366154 2.34029748,6.78446154 4.55016415,6.32286155 C4.75486414,7.06216154 5.01779748,7.82999488 5.33306414,8.60856155 C4.53879748,10.0995282 3.95926414,11.5689615 3.65876414,12.8760615 C3.44399748,13.8100616 3.38123081,14.6209616 3.47219748,15.2862615 C3.57843081,16.0632949 3.88923081,16.6242615 4.39586414,16.9535948 C4.65419748,17.1214949 5.00236414,17.2528282 5.45969748,17.2528282 C6.1228308,17.2527949 7.01536414,16.9765616 8.19526414,16.1349949 C8.42006414,15.9746616 8.47236415,15.6624282 8.31199747,15.4375949 C8.15169748,15.2127949 7.8394308,15.1605282 7.61459748,15.3208616 C6.45153081,16.1504282 5.45199748,16.4473616 4.9408308,16.1151615 C4.39569748,15.7608282 4.28073081,14.6336948 4.6333308,13.1000948 C4.86713081,12.0831949 5.2843308,10.9560282 5.85009748,9.79432821 C5.97293081,10.0572949 6.10113081,10.3204282 6.23483081,10.5830615 C7.3735308,12.8198616 8.76749748,14.7659616 10.1599641,16.0629282 C10.8611975,16.7160282 11.5318975,17.1758948 12.1534308,17.4297615 C12.5304975,17.5837282 12.8845975,17.6607282 13.2133308,17.6607282 C13.5175975,17.6606948 13.8002309,17.5947282 14.0589975,17.4627615 C14.5781641,17.1979949 14.9391975,16.6985948 15.1320975,15.9784616 C15.2972641,15.3617616 15.3343642,14.5924616 15.2424308,13.6918949 C15.0616308,11.9211949 14.3925308,9.76159487 13.3583974,7.61089487 C13.2387641,7.36199488 12.9399641,7.25732821 12.6910975,7.37692821 C12.4422308,7.49659487 12.3374974,7.79536154 12.4571641,8.04422821 C13.4423974,10.0932282 14.0782975,12.1350282 14.2475974,13.7934615 C14.3964975,15.2519948 14.1561641,16.2906615 13.6046974,16.5718949 C13.0255975,16.8671948 11.9926975,16.4033616 10.8415308,15.3311616 C9.53249748,14.1119282 8.21296414,12.2645616 7.12596415,10.1293949 C6.87746414,9.64122821 6.64853081,9.15206154 6.4402308,8.66656154 C6.69876415,8.20429487 6.97833081,7.74046154 7.27736414,7.27959487 C7.58226415,6.80969488 7.89093081,6.36686154 8.20043081,5.95146155 C8.2825308,5.95032821 8.36506414,5.94949487 8.44829748,5.94922821 C8.87769748,5.94786155 9.3379308,5.95982821 9.81796414,5.98499488 C12.2090974,6.11042821 14.4314309,6.56512821 16.0755975,7.26529487 C17.5217641,7.88119487 18.3648308,8.63686154 18.3308309,9.28672821 C18.3019308,9.83849488 17.6314975,10.4088282 16.4914642,10.8514615 C16.2340308,10.9514282 16.1063641,11.2411282 16.2062974,11.4985282 C16.2831641,11.6964949 16.4722308,11.8176949 16.6725641,11.8176949 C16.7326975,11.8176949 16.7939309,11.8067616 16.8533641,11.7836616 C18.8343641,11.0144949 19.2932974,10.0297282 19.3294642,9.33899488 C19.3610641,8.73532821 19.0903975,8.15406155 18.5249641,7.61126154 L18.5249641,7.61126154 L18.5249641,7.61126154 Z"/>
        <path fill="#F1F8F3" d="M8.63472377,8.96607179 C8.63472377,9.56997179 9.12385711,10.0595385 9.72722377,10.0595385 C10.3306238,10.0595385 10.8197571,9.56997179 10.8197571,8.96607179 C10.8197571,8.36217179 10.3306238,7.87260512 9.72722377,7.87260512 C9.12385711,7.87260512 8.63472377,8.36217179 8.63472377,8.96607179"/>
      </g>
    </g>
  </g>
</svg>
