<svg xmlns="http://www.w3.org/2000/svg" width="667" height="375" viewBox="0 0 667 375">
  <g fill="none" fill-rule="evenodd">
    <rect width="667" height="375" fill="#FFC0C0"/>
    <g transform="translate(92 83)">
      <path stroke="#FFFFFF" d="M256.823529,40.2423006 L459.5,98.5"/>
      <polyline stroke="#FFFCB5" points="323.872 12.752 322.471 30.414 346.524 14.383"/>
      <path stroke="#FFFFFF" d="M183.008835,0.0638218924 L183.008835,80.8378049"/>
      <polygon stroke="#FFFCB5" stroke-width="5" points=".398 80.684 151.285 46.77 117.824 218.668"/>
    </g>
    <path fill="#EF9498" d="M307.767805,207.828571 C311.662209,224.545833 316.767723,249.631333 297.170732,248.933817 C297.170732,248.96928 343.487043,248.427609 381.052391,248.933817 C362.81405,244.585448 364.772078,222.373771 368.189862,207.828571 L466.996181,207.828571 C473.076909,207.828571 478,202.903665 478,196.828484 L478,56.0000873 C478,49.9174971 473.073422,45 466.996181,45 L201.003819,45 C194.923091,45 190,49.9249068 190,56.0000873 L190,196.828484 C190,202.911074 194.926578,207.828571 201.003819,207.828571 L307.767805,207.828571 Z M202.878049,59.0571429 L465.121951,59.0571429 L465.121951,193.771429 L202.878049,193.771429 L202.878049,59.0571429 Z"/>
  </g>
</svg>
