<svg xmlns="http://www.w3.org/2000/svg" width="667" height="375" viewBox="0 0 667 375">
  <g fill="none" fill-rule="evenodd">
    <rect width="667" height="375" fill="#FFFEE6"/>
    <g transform="translate(190 36)">
      <path fill="#D8D8D8" d="M115.233613,149.942857 C115.233613,149.942857 134.79878,203.933817 97.1707317,203.933817 C97.1707317,203.96928 153.487043,203.427609 191.052391,203.933817 C163.475031,197.358847 182.07279,149.942857 182.07279,149.942857 L115.233613,149.942857 Z"/>
      <rect width="288" height="162.829" fill="#C2C2C2" rx="11"/>
      <rect width="262.244" height="134.714" x="12.878" y="14.057" fill="#9B9B9B"/>
      <polygon fill="#9F9FFF" points="27.131 82.157 25.412 116.306 61.715 110.957 57.469 50.752"/>
      <path stroke="#FFFFFF" d="M158.823529,78.2423006 L248.345539,116.377265"/>
      <polyline stroke="#FFFCB5" points="225.872 50.752 224.471 68.414 248.524 52.383"/>
      <ellipse cx="133.412" cy="66.612" fill="#81E8B3" rx="10.588" ry="11.631"/>
      <path stroke="#FFFFFF" d="M85.0088345,38.0638219 L85.0088345,118.837805"/>
    </g>
  </g>
</svg>
