<svg xmlns="http://www.w3.org/2000/svg" width="667" height="375" viewBox="0 0 667 375" xmlns:xlink="http://www.w3.org/1999/xlink">
  <defs>
    <linearGradient id="a" x1="50%" x2="50%" y1="3.961%" y2="100%">
      <stop stop-color="#FDFDFD" offset="0%"/>
      <stop stop-color="#CBCBCB" offset="100%"/>
    </linearGradient>
    <linearGradient id="b" x1="50%" x2="50%" y1="3.961%" y2="100%">
      <stop stop-color="#B2E198" offset="0%"/>
      <stop stop-color="#04A171" offset="100%"/>
    </linearGradient>
    <polygon id="c" points="0 17.986 86 17.986 86 .077 0 .077"/>
    <polyline id="e" points="18.015 .003 11.438 8.906 17.79 17.418 13.141 17.418 9.106 11.996 5.106 17.418 .489 17.418 6.809 8.906 .226 .003 4.881 .003 9.106 5.784 13.361 .003 18.015 .003"/>
  </defs>
  <g fill="none" fill-rule="evenodd">
    <rect width="667" height="375" fill="#FFF9F4"/>
    <path fill="#B7F2D4" d="M304.515852,212.828571 C308.410256,229.545833 313.51577,254.631333 293.918779,253.933817 C293.918779,253.96928 340.23509,253.427609 377.800437,253.933817 C359.562096,249.585448 361.520125,227.373771 364.937909,212.828571 L463.744228,212.828571 C469.824956,212.828571 474.748047,207.903665 474.748047,201.828484 L474.748047,61.0000873 C474.748047,54.9174971 469.821469,50 463.744228,50 L197.751866,50 C191.671138,50 186.748047,54.9249068 186.748047,61.0000873 L186.748047,201.828484 C186.748047,207.911074 191.674624,212.828571 197.751866,212.828571 L304.515852,212.828571 Z M199.626096,64.0571429 L461.869998,64.0571429 L461.869998,198.771429 L199.626096,198.771429 L199.626096,64.0571429 Z"/>
    <g transform="translate(118 95)">
      <circle cx="23.5" cy="23.5" r="23.474" fill="url(#a)"/>
      <ellipse cx="23.474" cy="23.526" fill="url(#b)" rx="21.463" ry="21.463"/>
      <g transform="translate(8.356 9.661)">
        <path fill="#F2F8F6" d="M10.0869794,10.551962 C9.83443271,10.9412264 9.59039827,11.332162 9.35487605,11.723672 C9.09726382,11.0145464 8.87108937,10.3161786 8.67844161,9.63488753 C9.36328382,9.53676198 10.0912094,9.45931642 10.8584583,9.40573642 C10.5979216,9.77922974 10.3404661,10.1613397 10.0869794,10.551962 L10.0869794,10.551962 L10.0869794,10.551962 Z M29.0224438,11.9243097 C28.2638117,11.1960709 27.1792604,10.5287753 25.7989228,9.94090974 C23.058666,8.77389974 19.3881749,8.01782642 15.4635183,7.81196642 C14.9902283,7.78716087 14.5281661,7.77018864 14.0813005,7.76115419 C17.0777072,4.18461087 19.9715494,2.28163308 21.6568649,2.21760864 C22.0137517,2.20397864 22.3133504,2.27458308 22.5480894,2.42712419 C23.3368538,2.93973753 23.5556649,4.5296953 23.1335004,6.68025864 C23.050206,7.10477308 23.3267228,7.51649308 23.7512372,7.59983974 C24.1758038,7.68287308 24.5874194,7.40661753 24.6708183,6.98205087 C25.3965504,3.28503087 24.3813504,1.75016753 23.4019228,1.11352642 C22.8907194,0.781236418 22.2832183,0.626031973 21.5973838,0.652090863 C19.0050204,0.750581973 15.3727038,3.51475642 12.0583683,7.77614198 C10.7461805,7.82141864 9.48114937,7.93468864 8.29779382,8.11140864 C8.16791716,7.50829419 8.06754605,6.92371864 7.99955271,6.36337419 C7.70230382,3.9135253 8.06686716,2.1745253 8.97469827,1.71152308 C9.12055493,1.63715864 9.27993716,1.59433642 9.46198382,1.58070642 C10.2731516,1.51965864 11.4177061,2.06475419 12.6826849,3.11530864 C13.0153927,3.39166864 13.5093105,3.34597419 13.7857749,3.01310974 C14.0621349,2.68029753 14.0163883,2.18643198 13.6835761,1.91007198 C12.0588383,0.560754195 10.5991227,-0.0758346937 9.34474493,0.0184264174 C8.9568905,0.0475141951 8.59295382,0.147624195 8.26296161,0.315884195 C7.41967716,0.745934195 6.84340493,1.56942642 6.55012493,2.76348753 C6.29893605,3.78599864 6.2633205,5.06069087 6.44432271,6.55205308 C6.51586716,7.14185087 6.6205205,7.75567087 6.7554105,8.38766419 C5.83018937,8.58266198 4.9727005,8.82022087 4.20409382,9.09788642 C0.841400492,10.3126275 0.0650649356,11.9137609 0.00594937996,13.0430664 C-0.0505550644,14.1218209 0.501642713,15.7272886 3.45303382,17.2493053 C3.83754605,17.4476453 4.3100005,17.2965664 4.50828827,16.9121064 C4.70657605,16.5275942 4.55560161,16.0551397 4.17108937,15.8569042 C2.47329271,14.9812942 1.52540716,13.9856253 1.57047493,13.1250031 C1.63397716,11.9124031 3.66646605,10.6289897 7.1285905,9.90581642 C7.44928716,11.0640531 7.86121605,12.266992 8.35513382,13.4867464 C7.11078271,15.8225942 6.20284716,18.1247064 5.73206382,20.1724964 C5.39559605,21.6357632 5.29726161,22.9061732 5.43977605,23.9484764 C5.60620827,25.1658287 6.09312827,26.0446764 6.88685382,26.5606319 C7.29157605,26.8236753 7.83703716,27.0294309 8.55352605,27.0294309 C9.59243493,27.0293787 10.9907372,26.5966132 12.8392472,25.2781587 C13.1914338,25.0269698 13.2733705,24.5378042 13.0221294,24.1855653 C12.7709927,23.8333787 12.2817749,23.7514942 11.9295361,24.0026832 C10.1073983,25.3023375 8.54146271,25.7675332 7.74063493,25.2470864 C6.88659271,24.6919642 6.70647827,22.9261219 7.25888493,20.5234819 C7.62517161,18.9303387 8.27878493,17.1644442 9.16515271,15.3444475 C9.35759161,15.7564286 9.55843827,16.1686709 9.76790161,16.5801297 C11.5518649,20.0844498 13.7357461,23.1333398 15.9172772,25.1652542 C17.0158761,26.1884442 18.0666394,26.9089019 19.0403749,27.3066264 C19.6311128,27.5478409 20.1858694,27.6684742 20.7008849,27.6684742 C21.1775694,27.6684219 21.6203617,27.5650742 22.0257628,27.3583264 C22.8391238,26.9435253 23.4047428,26.1611319 23.7069528,25.0329232 C23.9657138,24.0667598 24.0238372,22.8615232 23.8798083,21.4506353 C23.5965549,18.6765387 22.5482983,15.2931653 20.928156,11.9237353 C20.7407304,11.533792 20.2726104,11.3698142 19.8827194,11.5571875 C19.4928283,11.7446653 19.328746,12.2127331 19.5162238,12.6026242 C21.059756,15.8127242 22.0559994,19.0115442 22.321236,21.6097564 C22.5545128,23.8947919 22.1779904,25.5220364 21.314026,25.9626353 C20.4067694,26.4252719 18.7885594,25.6985998 16.9850649,24.0188198 C14.9342461,22.1086875 12.8669772,19.2144798 11.1640105,15.8693853 C10.7746938,15.1045909 10.4160316,14.3382297 10.0896949,13.5776131 C10.4947305,12.8533953 10.9327183,12.1267231 11.4012038,11.4046986 C11.8788805,10.668522 12.3624583,9.97474974 12.8473416,9.32395642 C12.9759649,9.32218087 13.1052672,9.3208753 13.2356661,9.32045753 C13.9083927,9.31831642 14.6294249,9.33706419 15.3814772,9.37649198 C19.127586,9.57300419 22.6092417,10.2853675 25.1851028,11.3822953 C27.4507638,12.3472053 28.7715683,13.5310831 28.7183017,14.5492075 C28.6730249,15.413642 27.6226794,16.3071642 25.8366272,17.0006231 C25.4333149,17.1572375 25.2333038,17.6111009 25.389866,18.0143609 C25.5102904,18.3245086 25.8064949,18.5143887 26.1203504,18.5143887 C26.2145594,18.5143887 26.3104917,18.4972598 26.4036038,18.4610698 C29.5071704,17.256042 30.226166,15.7132409 30.2828272,14.631092 C30.3323338,13.6853475 29.9082894,12.7746964 29.0224438,11.9243097 L29.0224438,11.9243097 L29.0224438,11.9243097 Z"/>
        <path fill="#F1F8F3" d="M13.5277339,14.0468458 C13.5277339,14.9929558 14.2940428,15.7599436 15.2393172,15.7599436 C16.1846439,15.7599436 16.9509528,14.9929558 16.9509528,14.0468458 C16.9509528,13.1007358 16.1846439,12.333748 15.2393172,12.333748 C14.2940428,12.333748 13.5277339,13.1007358 13.5277339,14.0468458"/>
      </g>
    </g>
    <g transform="translate(391 75)">
      <polygon fill="#264DE4" points="25.888 72.816 4.791 66.967 .09 14.31 51.748 14.31 47.042 66.959"/>
      <polygon fill="#2965F1" points="43.013 63.606 47.035 18.615 25.919 18.615 25.919 68.339"/>
      <polygon fill="#EBEBEB" points="10.868 38.145 11.447 44.603 25.919 44.603 25.919 38.145"/>
      <polygon fill="#EBEBEB" points="9.703 25.074 10.291 31.532 25.919 31.532 25.919 25.074"/>
      <polygon fill="#EBEBEB" points="25.919 54.918 25.891 54.925 18.689 52.983 18.228 47.833 11.736 47.833 12.642 57.973 25.89 61.645 25.919 61.637"/>
      <polygon fill="#000000" points="12.248 0 20.08 0 20.08 3.271 15.523 3.271 15.523 6.542 20.08 6.542 20.08 9.813 12.248 9.813"/>
      <polygon fill="#000000" points="21.647 0 29.48 0 29.48 2.844 24.922 2.844 24.922 3.413 29.48 3.413 29.48 9.955 21.647 9.955 21.647 6.969 26.204 6.969 26.204 6.4 21.647 6.4"/>
      <polygon fill="#000000" points="31.046 0 38.879 0 38.879 2.844 34.322 2.844 34.322 3.413 38.879 3.413 38.879 9.955 31.046 9.955 31.046 6.969 35.603 6.969 35.603 6.4 31.046 6.4"/>
      <polygon fill="#FFFFFF" points="40.93 38.145 42.097 25.074 25.897 25.074 25.897 31.532 35.01 31.532 34.421 38.145 25.897 38.145 25.897 44.603 33.86 44.603 33.11 52.979 25.897 54.923 25.897 61.642 39.155 57.973 39.252 56.882 40.772 39.879"/>
    </g>
    <g transform="translate(227 95)">
      <path fill="#D34A47" d="M27.7425 77.1678281L28.5056719 64.4511094 30.6129375 60.8539219C30.6129375 60.8539219 25.8167813 62.8159219 17.7872344 62.8159219 9.75754688 62.8159219 5.03409375 60.8902031 5.03409375 60.8902031L7.39575 64.8142031 8.23120313 77.1678281C8.23120313 78.4922344 12.598875 79.5657656 17.9869219 79.5657656 23.3746875 79.5657656 27.7425 78.4922344 27.7425 77.1678281M25.3351406 17.7825938L26.937 11.4509531 35.8077656 2.11682813 33.4697344.1254375 24.0782344 10.0686094 22.2183281 17.63325C20.8707187 17.5876875 19.4643281 17.5633594 18.0174375 17.5633594 8.1264375 17.5633594.108140625 18.6906094.108140625 20.0808281.108140625 21.4711875 8.1264375 22.5982969 18.0174375 22.5982969 27.9082969 22.5982969 35.9264531 21.4711875 35.9264531 20.0808281 35.9264531 19.0570781 31.5777656 18.1759219 25.3351406 17.7825938"/>
      <path fill="#FFFFFF" d="M24.4033594,21.3284531 C24.4033594,21.3284531 24.0564375,21.4062188 23.0359219,21.4105781 C22.015125,21.4147969 21.2903438,21.4039688 21.0016406,21.141 C20.9240156,21.0704063 20.8815469,20.9302031 20.8819688,20.8352813 C20.8828125,20.6545781 21.0110625,20.548125 21.1744688,20.4814688 L21.3290156,20.7239063 C21.2617969,20.7471094 21.2234063,20.7745313 21.2232656,20.8037813 C21.2227031,20.9410313 22.2669844,21.0349688 23.0657344,21.0248438 C23.864625,21.015 24.829875,20.9491875 24.8307188,20.8139063 C24.8307188,20.7729844 24.7577344,20.7344531 24.63075,20.7040781 L24.7845938,20.4633281 C24.9915938,20.5275938 25.1722969,20.6517656 25.171875,20.8666406 C25.1699063,21.2319844 24.705,21.2875313 24.4033594,21.3284531"/>
      <path fill="#D34A47" d="M35.7903281 2.13525C36.0133594 1.877625 35.674875 1.21865625 35.0343281.663609375 34.3935.10884375 33.6931875-.1321875 33.4697344.1254375 33.2465625.3830625 33.5851875 1.04203125 34.2260156 1.59679688 34.8665625 2.15170313 35.5671562 2.39301563 35.7903281 2.13525M27.3158437 46.1060156C27.1056094 44.0832656 31.7401875 41.1537656 30.5507812 41.0599687 27.9902812 41.2063594 26.7159375 44.060625 25.4276719 47.0500312 24.9555937 48.1456406 23.3402344 52.8174844 22.2807656 52.2423281 21.2215781 51.6674531 23.6539687 47.8257187 24.3357187 45.5442187 23.5490625 46.1210625 20.6641406 48.3624844 19.9206562 46.263375 18.7253437 47.2785469 16.1711719 47.8285312 16.4593125 45.1618594 15.8234062 46.2882656 14.3962031 47.860875 12.6831094 47.2073906 10.4333906 46.3494375 13.9867031 39.1830469 14.87025 39.5445937 15.7539375 39.906 14.6919375 41.5385156 14.4137812 42.1724531 13.8020625 43.5675937 13.0954219 45.3214687 13.5675 45.6804844 14.3762344 46.2955781 16.5770156 43.3535625 16.6259531 43.288875 17.0375625 42.7450781 18.2102344 39.1874062 19.155375 39.5959219 20.1005156 40.0044375 16.7979375 44.7017344 18.0327656 45.6339375 18.2818125 45.8220937 19.3007812 45.5179219 19.9206562 44.8472812 20.3217187 44.4134531 20.1837656 43.4525625 21.5206875 40.2643125 22.8576094 37.0762031 24.049125 33.1057969 24.966 33.4082812 25.882875 33.710625 25.1271562 35.7484219 24.7982344 36.5080781 23.2547344 40.0734844 20.5856719 45.9638437 21.8444062 45.5179219 23.1031406 45.0721406 23.7585937 45.0459844 24.9911719 43.6035937 26.22375 42.1612031 26.1669375 39.7853437 26.9884687 39.8358281 27.8102812 39.8864531 27.6723281 40.6482187 27.4730625 41.2282969 28.2816562 40.3029844 31.3059375 38.3542031 32.0360625 40.2842812 32.9009062 42.5692969 27.7091719 45.8699062 29.003625 45.7015781 30.2657344 45.5374687 32.3104219 44.2424531 33.1834219 43.065L35.5864219 21.4613437C35.5864219 21.4613437 33.168375 23.4624375 17.7848437 23.4624375 2.40117187 23.4624375.233296875 21.5029687.233296875 21.5029687L2.27910937 41.2219687C3.36501562 38.1356719 5.94365625 31.8930469 10.0082812 32.1025781 11.8572187 32.1979219 14.3254687 35.758125 12.2111719 35.8787812 11.3162344 35.9296875 11.2253906 34.1017031 10.1656406 33.83325 9.40092187 33.6394687 8.33625 34.2611719 7.64817187 34.9347656 6.27595312 36.2777344 3.32465625 41.5763437 3.71460937 44.2179844 4.2114375 47.5858125 8.36198437 43.0477031 9.06426562 41.700375 9.55884375 40.7512969 9.89296875 37.9393594 10.9746562 38.2343906 12.0564844 38.5294219 10.8802969 41.4313594 10.0961719 43.9970625 9.21529687 46.8780469 8.75221875 49.9170937 7.64817187 49.5675 6.54398437 49.2181875 8.34257812 45.4989375 8.27746875 44.8472812 7.23965625 45.8047969 5.32771875 48.2288906 2.8816875 47.0290781L4.15223437 59.2744219C4.15223437 59.2744219 7.5290625 61.9425 17.7014531 61.9425 27.8738437 61.9425 31.3756875 59.3160469 31.3756875 59.3160469L32.9533594 45.1330312C31.6625625 46.3899375 27.5774062 48.6219375 27.3158437 46.1060156"/>
    </g>
    <path fill="#4A4A4A" d="M355.069984,184.337771 L364.793558,168.336325 L368.880784,164.89045 L355.069984,184.337771 Z M342.017505,169.236496 L361.721055,169.236496 L352.021324,187.113442 L342.017505,169.236496 Z M335.147698,164.89045 L339.23475,168.336325 L348.958497,184.337771 L335.147698,164.89045 Z M337.423869,155.97081 L343.696557,159.115015 L339.20486,166.0624 L332.737624,161.227739 L337.423869,155.97081 Z M345.746908,152.094718 L358.409083,152.094718 L364.643069,154.843955 L358.382475,157.570902 L345.7203,157.570902 L339.52277,154.846201 L345.746908,152.094718 Z M362.202586,166.96067 L341.450795,166.96067 L345.580869,159.624191 L357.950358,159.654081 L362.202586,166.96067 Z M371.290857,161.227739 L364.643069,166.20235 L359.91553,159.118816 L366.604439,155.97081 L371.290857,161.227739 Z M366.978848,154.23405 L359.627337,151 L344.385421,151 L337.078832,154.294004 L331,161.046495 L352.021324,189 L373.042649,161.046495 L366.978848,154.23405 L366.978848,154.23405 Z"/>
    <g transform="translate(79 52)">
      <mask id="d" fill="white">
        <use xlink:href="#c"/>
      </mask>
      <path fill="#393937" d="M14.5900767 9.04015385C14.5900767 8.24930769 14.4475288 7.52607692 14.1626685 6.86953846 13.8780438 6.21369231 13.4885699 5.652 12.9949534 5.18446154 12.5008658 4.71715385 11.9219562 4.35323077 11.2575178 4.09246154 10.5923726 3.83215385 9.88033973 3.70153846 9.12118356 3.70153846 8.20958356 3.70153846 7.41649863 3.86792308 6.74263562 4.20023077 6.06830137 4.53323077 5.50376438 4.95992308 5.04784658 5.481 4.59216438 6.00253846 4.25476164 6.57761538 4.03681644 7.20669231 3.81816438 7.836 3.70907397 8.44684615 3.70907397 9.04015385 3.70907397 9.72346154 3.84172603 10.3795385 4.1079726 11.0083846 4.37374795 11.6379231 4.74390137 12.1947692 5.21890411 12.6800769 5.6932 13.1653846 6.26292055 13.5563077 6.92783014 13.8530769 7.59226849 14.1496154 8.31372603 14.2977692 9.09267397 14.2977692 9.87115068 14.2977692 10.5923726 14.1588462 11.2575178 13.8798462 11.9219562 13.6015385 12.5008658 13.224 12.9949534 12.7474615 13.4885699 12.2713846 13.8780438 11.7140769 14.1626685 11.0757692 14.4475288 10.4379231 14.5900767 9.75923077 14.5900767 9.04015385zM14.6506301 17.7251538L14.6506301 15.627C14.6506301 15.627 13.7428 16.6516154 12.4605753 17.2262308 11.4031288 17.6997692 10.3037425 17.9166923 9.12424658 17.9166923 7.67591233 17.9166923 6.3826137 17.6665385 5.24482192 17.1669231 4.10679452 16.6673077 3.14995616 16.0040769 2.37407123 15.1779231 1.59842192 14.3517692 1.00867397 13.4083846.605063014 12.3473077.201687671 11.2869231 0 10.1953846 0 9.07315385 0 8.03284615.186136986 6.98238462.558646575 5.92130769.931156164 4.86092308 1.53386301 3.94661538 2.28924932 3.07915385 3.0444 2.21238462 3.99087123 1.50323077 5.12889863.952615385 6.26669041.401769231 7.57247671.0768461538 9.12424658.0768461538 10.3240055.0768461538 11.4193863.364846154 12.476126.795923077 13.6419562 1.27153846 14.6579342 2.38915385 14.6579342 2.38915385L14.6579342.298846154 18.3696.298846154 18.3696 17.7251538 14.6506301 17.7251538 14.6506301 17.7251538zM43.5619452.345L43.5619452 9.58753846C43.5619452 10.6241538 43.590926 11.5841538 44.1052767 12.3842308 44.8477041 13.5392308 45.9996329 14.3589231 47.5073425 14.3589231 49.1246137 14.3589231 50.6558849 13.4067692 51.2760274 11.9695385 51.5608877 11.31 51.6134301 10.4316923 51.6134301 9.49453846L51.6134301.345 55.2690192.345 55.2690192 17.7595385 51.593874 17.7595385 51.593874 16.3331538C51.593874 16.3331538 51.1777753 16.9776923 50.338274 17.3628462 49.4134795 17.7872308 48.6123836 18 47.4941479 18 46.4809973 18 45.5519616 17.8497692 44.7082192 17.5504615 43.8637699 17.2509231 42.9611233 16.7296154 42.3280219 16.1919231 41.5888932 15.5718462 40.9053699 14.7664615 40.5048219 13.7326154 40.1035671 12.6992308 39.8460384 11.8804615 39.8460384 9.58753846L39.8460384.345 43.5619452.345M59.3093699 17.7196154L59.3093699.366230769 63.0408274.373153846 63.0408274 1.92346154C63.0408274 1.92346154 63.3132 1.28146154 65.1387562.688615385 66.3623123.291461538 68.0530959.373153846 68.2642082.373153846L68.2642082 4.04653846C68.0109205 4.04653846 65.3908658 3.89423077 64.0445534 5.27861538 63.4048548 5.93630769 63.1115123 6.56607692 63.0509589 8.32453846L63.0509589 17.7196154 59.3093699 17.7196154M82.0088932 7.57130769C81.966011 6.95123077 80.2921918 3.84969231 76.9813096 3.84969231 73.7114247 3.84969231 71.9355836 6.95123077 71.8931726 7.57130769L82.0088932 7.57130769zM71.953726 11.1186923C72.1664877 11.9457692 73.7265041 14.3104615 76.6839616 14.4966923 78.2218301 14.5936154 79.3996767 14.1032308 80.3576932 13.2041538L84.4727342 14.0141538C83.5599562 15.4366154 81.0638356 17.5703077 78.084937 17.8363846 73.9428 18.2060769 71.2735014 16.353 69.8082027 14.4290769 68.1440438 12.2439231 67.9776986 9.89192308 67.9776986 9.243 67.9776986 7.96153846 68.1419233 6.74307692 68.6216384 5.637 69.1011178 4.53138462 69.7511836 3.57507692 70.5720712 2.769 71.3924877 1.96269231 72.3516822 1.33246154 73.4498904.877615385 74.5473918.423 75.7250027.195461538 76.9829589.195461538 78.1765918.195461538 79.317211.417692308 80.4043452.861923077 81.4914795 1.30684615 82.450674 1.92161538 83.2821644 2.70692308 84.1134192 3.49269231 84.7738521 4.42292308 85.2646411 5.49738462 85.7547233 6.57253846 86 7.74069231 86 9.00115385 86 9.291 85.988926 9.61107692 85.9679562 9.96230769 85.9465151 10.3142308 85.8039671 11.0155385 85.7829973 11.1186923L71.953726 11.1186923 71.953726 11.1186923z" mask="url(#d)"/>
      <g transform="translate(20.263 .462)">
        <mask id="f" fill="white">
          <use xlink:href="#e"/>
        </mask>
        <use fill="#2190C3" xlink:href="#e"/>
        <g mask="url(#f)">
          <polygon fill="#6EB443" points="9.849 17.418 18.015 17.418 18.015 10.601 9.849 10.601"/>
          <polygon fill="#D92377" points="8.457 17.418 14.286 17.418 14.286 14.454 8.457 14.454"/>
          <polygon fill="#6EB443" points="3.412 8.337 13.298 8.337 13.298 .003 3.412 .003"/>
          <polygon fill="#2190C3" points=".226 5.336 3.454 5.336 3.454 .003 .226 .003"/>
          <polygon fill="#D92377" points="1.679 4.25 4.665 4.25 4.665 1.425 1.679 1.425"/>
          <polygon fill="#2190C3" points="13.328 4.987 18.015 4.987 18.015 .003 13.328 .003"/>
          <polygon fill="#D92377" points="9.001 9.849 14.831 9.849 14.831 4.574 9.001 4.574"/>
          <polygon fill="#D92377" points=".409 17.418 6.873 17.418 6.873 13.002 .409 13.002"/>
          <polygon fill="#2190C3" points="3.702 17.418 6.179 17.418 6.179 15.587 3.702 15.587"/>
          <polygon fill="#6EB443" points="4.529 12.32 8.215 12.32 8.215 8.9 4.529 8.9"/>
        </g>
      </g>
    </g>
    <g transform="translate(460.496 30)">
      <polygon fill="#E44D26" points="44.775 12.376 40.703 57.908 22.399 62.973 4.146 57.915 .078 12.376"/>
      <polygon fill="#F16529" points="22.426 59.101 37.217 55.008 40.696 16.099 22.426 16.099"/>
      <polygon fill="#EBEBEB" points="14.511 27.27 22.426 27.27 22.426 21.684 8.395 21.684 8.529 23.183 9.905 38.574 22.426 38.574 22.426 32.989 15.022 32.989"/>
      <polygon fill="#EBEBEB" points="15.772 41.367 10.155 41.367 10.939 50.136 22.401 53.312 22.426 53.305 22.426 47.494 22.402 47.501 16.17 45.821"/>
      <polygon fill="#000000" points="4.237 0 7.08 0 7.08 2.804 9.681 2.804 9.681 0 12.525 0 12.525 8.492 9.682 8.492 9.682 5.648 7.08 5.648 7.08 8.492 4.237 8.492 4.237 0"/>
      <polygon fill="#000000" points="16.265 2.816 13.761 2.816 13.761 0 21.613 0 21.613 2.816 19.108 2.816 19.108 8.492 16.265 8.492 16.265 2.816"/>
      <polygon fill="#000000" points="22.859 0 25.824 0 27.648 2.984 29.47 0 32.436 0 32.436 8.492 29.604 8.492 29.604 4.283 27.648 7.302 27.599 7.302 25.641 4.283 25.641 8.492 22.859 8.492"/>
      <polygon fill="#000000" points="33.852 0 36.696 0 36.696 5.685 40.695 5.685 40.695 8.492 33.852 8.492"/>
      <polygon fill="#FFFFFF" points="22.407 38.574 29.297 38.574 28.648 45.818 22.407 47.499 22.407 53.31 33.878 50.136 33.962 49.193 35.277 34.489 35.414 32.989 22.407 32.989"/>
      <polygon fill="#FFFFFF" points="22.407 27.256 22.407 27.27 35.923 27.27 36.035 26.014 36.29 23.183 36.424 21.684 22.407 21.684"/>
    </g>
    <path fill="#464342" d="M3.75222765,26.3965854 C3.75222765,35.3600487 8.96130894,43.1062358 16.5148862,46.7770245 L5.71279675,17.1806179 C4.45630894,19.9969431 3.75222765,23.1136016 3.75222765,26.3965854 L3.75222765,26.3965854 Z M41.6847155,25.2538536 C41.6847155,22.4551951 40.6794391,20.5170325 39.8172195,19.0084716 C38.6693172,17.1431301 37.5933739,15.5634716 37.5933739,13.6981301 C37.5933739,11.6164797 39.1721708,9.67874798 41.3960162,9.67874798 C41.4964146,9.67874798 41.5916423,9.69124391 41.6894553,9.69684553 C37.6605934,6.00580487 32.2929431,3.75222765 26.3974471,3.75222765 C18.4862276,3.75222765 11.5259919,7.81125202 7.47687805,13.959252 C8.00817073,13.9751951 8.50886993,13.9863984 8.93416261,13.9863984 C11.3027886,13.9863984 14.9692683,13.6989919 14.9692683,13.6989919 C16.1899919,13.6270325 16.3339106,15.4199837 15.1144797,15.5643333 C15.1144797,15.5643333 13.8877236,15.7086829 12.5226504,15.7802114 L20.7691057,40.3088699 L25.7248212,25.4460325 L22.1966586,15.7793496 C20.9772275,15.7078211 19.822,15.5634716 19.822,15.5634716 C18.6017073,15.4919431 18.7447642,13.6261707 19.9650569,13.6981301 C19.9650569,13.6981301 23.7047887,13.9855366 25.9299268,13.9855366 C28.2981219,13.9855366 31.9650325,13.6981301 31.9650325,13.6981301 C33.1866179,13.6261707 33.3301057,15.419122 32.110244,15.5634716 C32.110244,15.5634716 30.8809024,15.7078211 29.5184146,15.7793496 L37.7019593,40.1222927 L39.9607073,32.5743172 C40.9396993,29.4421464 41.6847155,27.1924471 41.6847155,25.2538536 L41.6847155,25.2538536 Z M26.7947318,28.3774066 L20.0003902,48.1205529 C22.0290407,48.7169106 24.1744635,49.0430976 26.3974471,49.0430976 C29.0345202,49.0430976 31.5634391,48.5872113 33.9174146,47.7594635 C33.8566586,47.6625122 33.801504,47.5595285 33.7562602,47.447496 L26.7947318,28.3774066 L26.7947318,28.3774066 Z M46.2677073,15.5320163 C46.3650894,16.2533333 46.420244,17.0276504 46.420244,17.8605691 C46.420244,20.1585284 45.9910732,22.7417398 44.6983903,25.9717235 L37.781244,45.9708212 C44.5135365,42.0449431 49.0418049,34.7511951 49.0418049,26.3970162 C49.0422358,22.459935 48.0365285,18.7576911 46.2677073,15.5320163 L46.2677073,15.5320163 Z M26.3974471,0 C11.8422683,0 0,11.8414065 0,26.3965854 C0,40.9534878 11.8422683,52.7944635 26.3974471,52.7944635 C40.9521951,52.7944635 52.7961871,40.9534878 52.7961871,26.3965854 C52.795756,11.8414065 40.9521951,0 26.3974471,0 L26.3974471,0 Z M26.3974471,51.5845122 C12.5097236,51.5845122 1.21038211,40.2851708 1.21038211,26.3965854 C1.21038211,12.5088618 12.5092927,1.21038211 26.3974471,1.21038211 C40.2847398,1.21038211 51.5832195,12.5088618 51.5832195,26.3965854 C51.5832195,40.2851708 40.2847398,51.5845122 26.3974471,51.5845122 L26.3974471,51.5845122 Z" transform="translate(495.248 102)"/>
    <g transform="translate(495.248 175)">
      <path fill="#2F2707" d="M37.4978316 9.12138846C36.1259703 9.12138846 35.1042372 9.79499877 35.1042372 11.4161332 35.1042372 12.6375713 35.777561 13.4856727 37.4239092 13.4856727 38.8192655 13.4856727 39.7670762 12.6633581 39.7670762 11.3657056 39.7670762 9.89499452 38.9189746 9.12138846 37.4978316 9.12138846L37.4978316 9.12138846 37.4978316 9.12138846zM34.7549684 20.568466C34.4303404 20.9667298 34.1068585 21.3902075 34.1068585 21.8896132 34.1068585 22.8864189 35.3778645 23.1864061 37.1239221 23.1864061 38.5702788 23.1864061 40.5403956 23.0849778 40.5403956 21.7403359 40.5403956 20.9409429 39.5925849 20.8916614 38.3949281 20.8165929L34.7549684 20.568466 34.7549684 20.568466zM42.1360297 9.19674343C42.5841483 9.77035798 43.0586267 10.5686048 43.0586267 11.7155474 43.0586267 14.483338 40.8890914 16.1038994 37.7479644 16.1038994 36.9491445 16.1038994 36.2259659 16.0044767 35.777561 15.8798402L34.9543868 17.2012739 37.3978359 17.3505513C41.7122657 17.6256112 44.2548508 17.7505343 44.2548508 21.0655795 44.2548508 23.9339388 41.7369063 25.5539271 37.3978359 25.5539271 32.8845608 25.5539271 31.1640038 24.4069846 31.1640038 22.4371544 31.1640038 21.3148525 31.6628363 20.7177433 32.5355785 19.893423 31.7124045 19.5455868 31.4384907 18.9224042 31.4384907 18.2487938 31.4384907 17.6998201 31.7124045 17.2012739 32.1619556 16.7270821 32.610647 16.2540363 33.1091932 15.7795579 33.7077351 15.2311572 32.4860105 14.6326153 31.5631272 13.3358224 31.5631272 11.4903421 31.5631272 8.62312885 33.4584621 6.65387164 37.2729129 6.65387164 38.3453601 6.65387164 38.9940431 6.75243481 39.5676578 6.90314471L44.430488 6.90314471 44.430488 9.02196575 42.1360297 9.19674343 42.1360297 9.19674343zM48.8174074 4.66541756C47.3956913 4.66541756 46.5730904 3.8419569 46.5730904 2.41995436 46.5730904.999957459 47.3956913.226351402 48.8174074.226351402 50.2637643.226351402 51.0866518.999957459 51.0866518 2.41995436 51.0866518 3.8419569 50.2637643 4.66541756 48.8174074 4.66541756L48.8174074 4.66541756 48.8174074 4.66541756zM45.6000658 19.6507399L45.6000658 17.6817693 46.8722179 17.5078512C47.2214868 17.4574235 47.2710548 17.3829281 47.2710548 17.008159L47.2710548 9.67695222C47.2710548 9.4033249 47.1965594 9.22797418 46.9464268 9.1537653L45.6000658 8.67957343 45.8742661 6.66046163 51.0365107 6.66046163 51.0365107 17.008159C51.0365107 17.4078554 51.0605785 17.4574235 51.4356341 17.5078512L52.7074998 17.6817693 52.7074998 19.6507399 45.6000658 19.6507399 45.6000658 19.6507399zM62.5683982 18.6840189C61.4956647 19.2072058 59.9249578 19.6811111 58.5029552 19.6811111 55.5357462 19.6811111 54.4140175 18.48546 54.4140175 15.6663822L54.4140175 9.13342234C54.4140175 8.984145 54.4140175 8.88414927 54.2137394 8.88414927L52.4685415 8.88414927 52.4685415 6.66475943C54.663577 6.41491333 55.5357462 5.31753882 55.8099466 2.59960288L58.1791868 2.59960288 58.1791868 6.14157254C58.1791868 6.31549064 58.1791868 6.39084561 58.3788918 6.39084561L61.8945016 6.39084561 61.8945016 8.88414927 58.1791868 8.88414927 58.1791868 14.8434946C58.1791868 16.3147787 58.5287422 16.8878202 59.8745302 16.8878202 60.5736408 16.8878202 61.2959598 16.7136156 61.8945016 16.4892699L62.5683982 18.6840189"/>
      <path fill="#DE4C36" d="M25.6209732,12.1401712 L14.2194524,0.739510087 C13.5633198,0.0828045002 12.4983222,0.0828045002 11.8413301,0.739510087 L9.47380899,3.10703114 L12.4771196,6.11034176 C13.1750842,5.87453519 13.9753367,6.03269463 14.53176,6.58911796 C15.090762,7.14897954 15.2477754,7.95610853 15.0062384,8.65636526 L17.9006711,11.550798 C18.6009279,11.3095475 19.4089164,11.4657013 19.9682049,12.0258494 C20.7498336,12.8071915 20.7498336,14.0736133 19.9682049,14.8555285 C19.1862898,15.6374436 17.919868,15.6374436 17.1376663,14.8555285 C16.5497257,14.2670148 16.4044597,13.4034412 16.7021548,12.6791168 L14.0028427,9.97980466 L14.0025562,17.0832274 C14.1930925,17.1777793 14.3730275,17.3035619 14.53176,17.4617213 C15.3133886,18.2430634 15.3133886,19.5094852 14.53176,20.2919734 C13.7498448,21.073602 12.48285,21.073602 11.702081,20.2919734 C10.9204523,19.5094852 10.9204523,18.2430634 11.702081,17.4617213 C11.8951959,17.2688928 12.1186821,17.1230538 12.3570674,17.0250637 L12.3570674,9.85545465 C12.1186821,9.7580376 11.8954825,9.61305809 11.702081,9.418797 C11.1098425,8.82741815 10.9674417,7.9584007 11.2708672,7.23121098 L8.31053469,4.27030544 L0.492815711,12.0874514 C-0.164176397,12.74473 -0.164176397,13.8097277 0.492815711,14.4664333 L11.8943364,25.8673808 C12.5507555,26.5240864 13.6154666,26.5240864 14.2727452,25.8673808 L25.6209732,14.5194396 C26.2776785,13.8624475 26.2776785,12.7968768 25.6209732,12.1401712"/>
    </g>
    <path fill="#11110F" d="M8.86723311,5.37850039 L4.99850161,5.37850039 C4.89870605,5.37850039 4.81770003,5.46035786 4.81770003,5.5610832 L4.81770003,7.47022005 C4.81770003,7.57094539 4.89870605,7.65289963 4.99850161,7.65289963 L6.50770567,7.65289963 L6.50770567,10.0248311 C6.50770567,10.0248311 6.16882259,10.1414249 5.2319331,10.1414249 C4.12660861,10.1414249 2.58250963,9.73378237 2.58250963,6.30679894 C2.58250963,2.87904147 4.1903589,2.42805132 5.6998506,2.42805132 C7.00649175,2.42805132 7.56941154,2.66027109 7.92756352,2.77212363 C8.04010913,2.8069566 8.1442186,2.6938462 8.1442186,2.59302413 L8.57580325,0.748425 C8.57580325,0.701303736 8.5599855,0.64450665 8.50668451,0.605900111 C8.36125719,0.501207693 7.47383405,0 5.2319331,0 C2.64923173,0 0,1.10904297 0,6.44042208 C0,11.7719947 3.0331714,12.5664767 5.58912639,12.5664767 C7.70544412,12.5664767 8.98926933,11.6536594 8.98926933,11.6536594 C9.04218685,11.6241481 9.04793882,11.5495475 9.04793882,11.5152951 L9.04793882,5.5610832 C9.04793882,5.46035786 8.96702867,5.37850039 8.86723311,5.37850039 Z M28.7945173,0.667341594 C28.7945173,0.56574544 28.7147576,0.483791209 28.6149621,0.483791209 L26.4366198,0.483791209 C26.3371116,0.483791209 26.2562016,0.56574544 26.2562016,0.667341594 C26.2562016,0.667825387 26.2567766,4.91628624 26.2567766,4.91628624 L22.8613312,4.91628624 L22.8613312,0.667341594 C22.8613312,0.56574544 22.7811879,0.483791209 22.6815841,0.483791209 L20.5033375,0.483791209 C20.4042132,0.483791209 20.3233988,0.56574544 20.3233988,0.667341594 L20.3233988,12.1721868 C20.3233988,12.2736862 20.4042132,12.3563177 20.5033375,12.3563177 L22.6815841,12.3563177 C22.7811879,12.3563177 22.8613312,12.2736862 22.8613312,12.1721868 L22.8613312,7.2511594 L26.2567766,7.2511594 C26.2567766,7.2511594 26.2508332,12.1717998 26.2508332,12.1721868 C26.2508332,12.2736862 26.3316474,12.3563177 26.4312511,12.3563177 L28.6147703,12.3563177 C28.714566,12.3563177 28.7943257,12.2736862 28.7945173,12.1721868 L28.7945173,0.667341594 Z M12.9708341,2.20550736 C12.9708341,1.41383143 12.3419591,0.774065933 11.5661229,0.774065933 C10.7910538,0.774065933 10.1616994,1.41383143 10.1616994,2.20550736 C10.1616994,2.99631247 10.7910538,3.63781962 11.5661229,3.63781962 C12.3419591,3.63781962 12.9708341,2.99631247 12.9708341,2.20550736 Z M12.7979894,9.75129565 L12.7979894,4.44062276 C12.7979894,4.33980066 12.7173668,4.25736264 12.617763,4.25736264 L10.4463228,4.25736264 C10.346719,4.25736264 10.2575645,4.36108748 10.2575645,4.46190956 L10.2575645,12.0704939 C10.2575645,12.2941022 10.3956103,12.3605751 10.5743027,12.3605751 L12.5307175,12.3605751 C12.7453594,12.3605751 12.7979894,12.2542378 12.7979894,12.0669138 L12.7979894,9.75129565 Z M37.1200171,4.25736264 L34.958355,4.25736264 C34.8592303,4.25736264 34.7785123,4.33980066 34.7785123,4.44130007 L34.7785123,10.082499 C34.7785123,10.082499 34.2293967,10.4880129 33.4499178,10.4880129 C32.6705347,10.4880129 32.4636579,10.1310717 32.4636579,9.36077931 L32.4636579,4.44130007 C32.4636579,4.33980066 32.3831312,4.25736264 32.2839106,4.25736264 L30.090038,4.25736264 C29.9910097,4.25736264 29.9099077,4.33980066 29.9099077,4.44130007 L29.9099077,9.73329859 C29.9099077,12.0212439 31.1733139,12.5809904 32.9113476,12.5809904 C34.3371492,12.5809904 35.4867634,11.785928 35.4867634,11.785928 C35.4867634,11.785928 35.5415024,12.2048911 35.5662354,12.2546248 C35.5910647,12.304165 35.6555815,12.3541891 35.7252756,12.3541891 L37.1209755,12.3479965 C37.2200042,12.3479965 37.301106,12.265365 37.301106,12.1643494 L37.300435,4.44130007 C37.300435,4.33980066 37.2196206,4.25736264 37.1200171,4.25736264 Z M42.1004957,10.492367 C41.3507352,10.4693385 40.8421706,10.1259435 40.8421706,10.1259435 L40.8421706,6.48260868 C40.8421706,6.48260868 41.3439283,6.17220825 41.9594781,6.116669 C42.7379029,6.04632577 43.4879511,6.28367372 43.4879511,8.15788088 C43.4879511,10.1342647 43.1494515,10.5242972 42.1004957,10.492367 Z M42.9531198,4.01024209 C41.7253757,4.01024209 40.8902948,4.56311869 40.8902948,4.56311869 L40.8902948,0.667341594 C40.8902948,0.56574544 40.8098642,0.483791209 40.7105478,0.483791209 L38.5260703,0.483791209 C38.426754,0.483791209 38.3460356,0.56574544 38.3460356,0.667341594 L38.3460356,12.1721868 C38.3460356,12.2736862 38.426754,12.3563177 38.5263577,12.3563177 L40.0419849,12.3563177 C40.1102406,12.3563177 40.161912,12.3208075 40.2000662,12.2585919 C40.2377413,12.1967634 40.2920969,11.7281632 40.2920969,11.7281632 C40.2920969,11.7281632 41.1853678,12.5825385 42.8763319,12.5825385 C44.8615062,12.5825385 46,11.56619 46,8.01990361 C46,4.47361731 44.1817268,4.01024209 42.9531198,4.01024209 Z M19.0674703,4.23762395 L17.4334498,4.23762395 C17.4334498,4.23762395 17.4309574,2.05930566 17.4309574,2.05882186 C17.4309574,1.97638384 17.3888726,1.93516484 17.2944454,1.93516484 L15.0676912,1.93516484 C14.981125,1.93516484 14.9346304,1.97357786 14.9346304,2.05756402 L14.9346304,4.30912828 C14.9346304,4.30912828 13.8187608,4.58101896 13.743315,4.60298307 C13.6681567,4.6249472 13.6128426,4.69490339 13.6128426,4.77830901 L13.6128426,6.19320478 C13.6128426,6.29499445 13.6933693,6.37704543 13.7929731,6.37704543 L14.9346304,6.37704543 L14.9346304,9.7808069 C14.9346304,12.3090029 16.6916458,12.5573814 17.8773052,12.5573814 C18.4190389,12.5573814 19.0670868,12.3817651 19.1740722,12.3419008 C19.2387812,12.3179047 19.2763603,12.2502707 19.2763603,12.176928 L19.2781817,10.6204749 C19.2781817,10.5189755 19.1932453,10.4368277 19.0975719,10.4368277 C19.0023779,10.4368277 18.7587847,10.4759181 18.5080017,10.4759181 C17.7054191,10.4759181 17.4334498,10.0992383 17.4334498,9.61167342 C17.4334498,9.1244957 17.433354,6.37704543 17.433354,6.37704543 L19.0674703,6.37704543 C19.1670741,6.37704543 19.2476967,6.29499445 19.2476967,6.19320478 L19.2476967,4.42098082 C19.2476967,4.31948142 19.1670741,4.23762395 19.0674703,4.23762395 Z" transform="translate(398 168)"/>
    <g transform="translate(145 164)">
      <polygon fill="#CB3837" points="0 0 0 20.956 17.443 20.956 17.443 24.469 31.374 24.469 31.374 20.956 62.748 20.956 62.748 0"/>
      <polygon fill="#FFFFFF" points="10.418 3.513 3.513 3.513 3.513 7.026 3.513 17.443 10.418 17.443 10.418 7.026 13.931 7.026 13.931 17.443 17.443 17.443 17.443 7.026 17.443 3.513"/>
      <path fill="#FFFFFF" d="M20.956394,3.51292154 L20.956394,16.7166611 L20.956394,17.4434725 L20.956394,20.956394 L27.9822371,20.956394 L27.9822371,17.4434725 L34.8869449,17.4434725 L34.8869449,3.51292154 L20.956394,3.51292154 L20.956394,3.51292154 Z M31.3740234,13.9305509 L27.9822371,13.9305509 L27.9822371,7.0258431 L31.3740234,7.0258431 L31.3740234,13.9305509 L31.3740234,13.9305509 Z"/>
      <polygon fill="#FFFFFF" points="45.305 3.513 38.4 3.513 38.4 7.026 38.4 17.443 45.305 17.443 45.305 7.026 48.817 7.026 48.817 17.443 52.33 17.443 52.33 7.026 55.843 7.026 55.843 17.443 59.356 17.443 59.356 7.026 59.356 3.755 59.356 3.513"/>
    </g>
    <path fill="#CD6799" d="M64.2486947,32.2331511 C61.6510017,32.2467515 59.3933212,32.8723739 57.5028536,33.7972069 C56.8092289,32.4235581 56.1156041,31.1995142 55.9931998,30.3018823 C55.857195,29.2546447 55.6939892,28.615422 55.857195,27.3641773 C56.0204006,26.1129326 56.7548269,24.331269 56.7412265,24.1952641 C56.7276261,24.0592593 56.5780206,23.4200364 55.0819672,23.4064359 C53.5859138,23.3928355 52.2938675,23.6920461 52.1442623,24.0864602 C51.9946569,24.4808743 51.7090467,25.3785064 51.51864,26.3033394 C51.2602306,27.663388 48.5265331,32.5187613 46.9624773,35.0620521 C46.4592593,34.0692167 46.0240436,33.1987857 45.9288404,32.5051609 C45.7928354,31.4579236 45.6296295,30.8187008 45.7928354,29.567456 C45.9560412,28.3162113 46.6904675,26.5345477 46.6768671,26.3985428 C46.6632664,26.2625379 46.5136612,25.6233151 45.0176078,25.6097146 C43.5215544,25.5961141 42.2295081,25.8953248 42.079903,26.2897389 C41.9302975,26.684153 41.7670916,27.608986 41.4542806,28.5066181 C41.1414692,29.4042502 37.5101396,37.5101396 36.5581058,39.6046146 C36.0684882,40.6790527 35.6468732,41.5358834 35.3476623,42.1207042 L35.3476623,42.1207042 C35.3476623,42.1207042 35.3340619,42.1615057 35.2932603,42.2295081 C35.0348512,42.7327262 34.8852458,43.004736 34.8852458,43.004736 C34.8852458,43.004736 34.8852458,43.004736 34.8852458,43.0183364 C34.6812387,43.3855494 34.4636308,43.7255615 34.3548269,43.7255615 C34.2732241,43.7255615 34.1236187,42.7463266 34.382028,41.413479 C34.9260473,38.5981785 36.2180936,34.2188222 36.2044929,34.0692167 C36.2044929,33.9876139 36.4493019,33.2259865 35.361263,32.8315727 C34.300425,32.4371585 33.9196115,33.0899817 33.824408,33.0899817 C33.7292045,33.0899817 33.6612022,33.32119 33.6612022,33.32119 C33.6612022,33.32119 34.8444445,28.3978142 31.4035216,28.3978142 C29.2546447,28.3978142 26.2897389,30.7506981 24.8208864,32.8723739 C23.8960534,33.375592 21.923983,34.4500304 19.8159077,35.6060717 C19.013479,36.0548877 18.1838494,36.5037038 17.4086217,36.9253188 C17.3542198,36.8709168 17.2998178,36.8029145 17.2454159,36.7485125 C13.0836673,32.3011535 5.38579236,29.1594414 5.71220402,23.1888282 C5.83460838,21.0127504 6.58263509,15.3005464 20.495932,8.36429872 C31.9475409,2.72009715 41.0598665,4.28415301 42.6375227,7.75227687 C44.8952035,12.7028537 37.7549483,21.896782 25.9225258,23.2296296 C21.4071645,23.7328476 19.04068,21.9919854 18.4422587,21.3391621 C17.8166363,20.6591378 17.7214329,20.6183364 17.4902246,20.7543412 C17.1094111,20.9583485 17.3542198,21.5703704 17.4902246,21.923983 C17.8438373,22.848816 19.2990892,24.4808743 21.7607772,25.283303 C23.9368549,25.9905282 29.2274439,26.3849423 35.6332725,23.9096539 C42.8007285,21.1351548 48.4041288,13.4236794 46.7584699,6.96344868 C45.112811,0.408014571 34.2324226,-1.75446266 23.9368549,1.904068 C17.8166363,4.08014571 11.1795993,7.50746812 6.40582877,11.9684274 C0.73442623,17.2726169 -0.163205829,21.8831815 0.204007286,23.8144505 C1.5232544,30.6690953 10.975592,35.1300547 14.756527,38.4349726 C14.5661202,38.5437765 14.3893139,38.63898 14.2397086,38.7205828 C12.349241,39.6590162 5.1409836,43.4263509 3.3457195,47.4112931 C1.30564663,51.9266545 3.67213114,55.16357 5.23618702,55.5987857 C10.0915604,56.9452336 15.0829387,54.5243472 17.7622344,50.5258046 C20.4415301,46.5272617 20.1151184,41.3318762 18.8774742,38.9517911 C18.8638737,38.9245902 18.8502732,38.8973891 18.8230722,38.8701883 C19.3126897,38.5845781 19.8159077,38.2853675 20.3055252,37.9997572 C21.2711597,37.4285368 22.2231937,36.8981177 23.0392228,36.4629023 C22.5768063,37.7277475 22.2367942,39.2374013 22.0735883,41.413479 C21.8695811,43.9703705 22.9168185,47.2888888 24.2904675,48.5945355 C24.9024894,49.1657559 25.6233151,49.1793563 26.0857316,49.1793563 C27.6905889,49.1793563 28.4114147,47.8465088 29.2138435,46.2688526 C30.1930784,44.3375835 31.0771099,42.0935034 31.0771099,42.0935034 C31.0771099,42.0935034 29.9754706,48.1593198 32.9675774,48.1593198 C34.0556163,48.1593198 35.1572556,46.7448695 35.6468732,46.0240436 L35.6468732,46.0376443 C35.6468732,46.0376443 35.674074,45.9968428 35.728476,45.9016393 C35.8372799,45.724833 35.9052823,45.6160291 35.9052823,45.6160291 L35.9052823,45.5888282 C36.340498,44.8272008 37.3197329,43.0999392 38.7749848,40.2302367 C40.6518519,36.5309047 42.4607164,31.9067397 42.4607164,31.9067397 C42.4607164,31.9067397 42.6239222,33.0355798 43.1815422,34.9124469 C43.507954,36.0140862 44.187978,37.2245294 44.7319976,38.3941711 C44.296782,39.006193 44.0247725,39.3462052 44.0247725,39.3462052 C44.0247725,39.3462052 44.0247725,39.3462052 44.0383729,39.3598056 C43.6847603,39.8222221 43.3039466,40.3254402 42.8823316,40.8150578 C41.3998786,42.5831207 39.6318154,44.6095933 39.3870067,45.1944141 C39.1013965,45.8880389 39.1693989,46.3912569 39.7134182,46.7992715 C40.1078323,47.0984821 40.8150578,47.1392836 41.5358834,47.0984821 C42.8687309,47.0032786 43.8071646,46.6768671 44.2695811,46.4728597 C44.9904067,46.2144506 45.8336369,45.8200365 46.6224652,45.2352157 C48.077717,44.1607772 48.9617485,42.6239222 48.8801457,40.59745 C48.8393442,39.48221 48.4721312,38.3669702 48.0233151,37.3197329 C48.1593198,37.1293259 48.2817245,36.9389192 48.4177292,36.7485125 C50.7162113,33.3891924 52.4978749,29.7034608 52.4978749,29.7034608 C52.4978749,29.7034608 52.6610808,30.8323012 53.2187008,32.709168 C53.4907103,33.6612022 54.0483303,34.6948391 54.5379479,35.7012752 C52.3754706,37.4557377 51.042623,39.4958107 50.5666058,40.8286582 C49.7097752,43.3039466 50.3761991,44.4191863 51.6410443,44.6775957 C52.2122647,44.8 53.0282938,44.5279902 53.6267153,44.2695811 C54.3883425,44.0247725 55.2859746,43.6031572 56.142805,42.9775348 C57.5980571,41.9030967 58.998907,40.4070432 58.9173042,38.3805707 C58.8765027,37.4557377 58.631694,36.5445051 58.2916819,35.6604736 C60.1277475,34.8988465 62.4942319,34.4772312 65.5135399,34.8308438 C71.9873709,35.5924712 73.2658167,39.6318154 73.0210078,41.3318762 C72.7761991,43.0319368 71.4161505,43.9567698 70.9673347,44.24238 C70.5185186,44.5279902 70.3689131,44.6231937 70.4097147,44.8272008 C70.4641166,45.1264117 70.6817245,45.112811 71.0625379,45.0584091 C71.5929567,44.9632059 74.4626592,43.6847603 74.5850639,40.5566484 C74.789071,36.5581058 70.9809351,32.1923496 64.2486947,32.2331511 L64.2486947,32.2331511 Z M14.307711,49.0705524 C12.1588342,51.409836 9.16672738,52.2938675 7.87468124,51.5458408 C6.48743171,50.7434121 7.03145112,47.2888888 9.66994537,44.8136004 C11.2748027,43.3039466 13.3420765,41.9030967 14.7157256,41.046266 C15.0285367,40.855859 15.4909532,40.5838495 16.0485732,40.2438374 C16.1437766,40.1894354 16.1981785,40.1622343 16.1981785,40.1622343 L16.1981785,40.1622343 C16.3069824,40.0942319 16.4157863,40.0262295 16.5245902,39.9582272 C17.4902246,43.4943533 16.5653916,46.6088645 14.307711,49.0705524 L14.307711,49.0705524 Z M29.9482695,38.4349726 C29.2002427,40.2574378 27.636187,44.9224043 26.684153,44.6639952 C25.8681239,44.4463874 25.3649059,40.910261 26.5209472,37.4149361 C27.1057681,35.6604736 28.3434123,33.5659987 29.064238,32.7499696 C30.2338797,31.4443229 31.525926,31.0091075 31.838737,31.5395264 C32.2331511,32.2331511 30.410686,37.2925318 29.9482695,38.4349726 L29.9482695,38.4349726 Z M42.8551305,44.6095933 C42.5423195,44.7727992 42.2431085,44.8816028 42.1071038,44.8 C42.0119003,44.745598 42.2431085,44.5279902 42.2431085,44.5279902 C42.2431085,44.5279902 43.8615666,42.7871281 44.5007894,41.9982999 C44.8680024,41.5358834 45.303218,40.9918641 45.7656345,40.3798421 L45.7656345,40.5566484 C45.7656345,42.6375227 43.7527627,44.0383729 42.8551305,44.6095933 L42.8551305,44.6095933 Z M52.810686,42.338312 C52.5794777,42.1751062 52.6202792,41.6310869 53.3955071,39.931026 C53.6947177,39.2646024 54.4019429,38.1493624 55.6123861,37.0749242 C55.7483911,37.5101396 55.8435943,37.9317546 55.8299939,38.3261687 C55.8163935,40.9510625 53.9395264,41.9302975 52.810686,42.338312 L52.810686,42.338312 Z" transform="translate(294 88)"/>
    <g fill="#000000" transform="translate(219 15)">
      <g transform="translate(101.916)">
        <path d="M6.47281236,52.984593 L6.47281236,52.984593 C5.6948301,52.984593 4.93240749,52.8459302 4.20110417,52.5686047 C1.13585409,51.4130814 -0.482348998,48.1159884 0.357871837,45.065407 L0.326752547,45.05 L0.529027933,44.5261628 L16.1042327,4.46802326 C16.3376273,3.88255814 16.2287098,2.46511628 16.1197923,1.67936047 C16.088673,1.49447674 16.088673,1.325 16.135352,1.15552326 L16.1509116,1.1247093 C16.1664712,1.09389535 16.1664712,1.0630814 16.1820309,1.03226744 C16.4309852,0.385174419 17.1934078,0.061627907 18.4381794,0.061627907 C19.9319054,0.061627907 22.0013382,0.523837209 24.1174499,1.325 C25.8912494,2.00290698 27.5094525,2.8502907 28.6453066,3.69767442 C29.9834361,4.69912791 30.512464,5.59273256 30.2168308,6.3630814 C30.2012711,6.39389535 30.1857115,6.4247093 30.1701518,6.45552326 L30.1545922,6.48633721 C30.076794,6.64040698 29.9678764,6.76366279 29.8278396,6.87151163 C29.1432152,7.47238372 28.1318383,8.48924419 27.9606822,8.95145349 L12.1987617,49.5642442 L12.1676425,49.5488372 C11.0629077,51.644186 8.90011699,52.984593 6.47281236,52.984593 Z M1.60264344,44.7880814 L1.55596451,44.8959302 C0.560147223,47.5459302 1.91383635,50.5348837 4.5900953,51.5517442 C5.19692146,51.7828488 5.81930726,51.8906977 6.45725271,51.8906977 C8.62004338,51.8906977 10.5338797,50.6119186 11.3274216,48.6090116 L11.3896602,48.4703488 L26.8870667,8.58168605 C27.2138193,7.71889535 28.7542241,6.34767442 29.065417,6.07034884 L29.0965363,6.03953488 C29.1276556,6.02412791 29.1432152,6.00872093 29.1432152,5.99331395 L29.1587749,5.97790698 C29.1743345,5.87005814 29.0342977,5.39244186 27.9451226,4.56046512 C26.9026264,3.7747093 25.3933408,2.98895349 23.6973395,2.34186047 C21.7368242,1.5869186 19.7451896,1.14011628 18.4070601,1.14011628 C17.5201604,1.14011628 17.2245271,1.325 17.1778482,1.41744186 L17.1778482,1.43284884 L17.1778482,1.49447674 L17.1778482,1.50988372 C17.2089675,1.74098837 17.5046007,3.79011628 17.10005,4.85319767 L1.60264344,44.7880814 Z"/>
        <path d="M21.5345488,19.4127907 C21.5345488,19.4127907 19.3873178,21.8625 17.4268025,22.7406977 C15.4662872,23.6188953 14.0192402,23.3877907 12.2610003,24.4046512 C10.5027604,25.4215116 9.61586066,26.8389535 9.61586066,26.8389535 L2.45842392,45.2811047 C1.68044167,47.3610465 2.83185541,49.7953488 4.96352678,50.6119186 C7.09519816,51.4284884 9.50694315,50.35 10.3316043,48.2854651 L10.3316043,48.2854651 L21.5345488,19.4127907 Z M14.3304331,30.0590116 C14.6727453,29.9049419 15.0772961,30.0590116 15.2173329,30.3979651 C15.3729293,30.7369186 15.2173329,31.1375 14.8750207,31.2761628 C14.5327085,31.4302326 14.1281577,31.2761628 13.9881209,30.9372093 C13.8169648,30.5982558 13.9881209,30.1976744 14.3304331,30.0590116 Z M11.4518988,27.0238372 C11.6852935,26.9313953 11.9498074,27.0238372 12.0431653,27.2549419 C12.1365232,27.4860465 12.0431653,27.7479651 11.8097706,27.840407 C11.5763759,27.9328488 11.311862,27.840407 11.2185041,27.6093023 C11.1251462,27.3781977 11.2340638,27.1162791 11.4518988,27.0238372 Z M8.29329083,37.4543605 C7.95097864,37.6084302 7.54642787,37.4543605 7.40639106,37.115407 C7.25079461,36.7764535 7.40639106,36.3758721 7.74870325,36.2372093 C8.09101545,36.0831395 8.49556622,36.2372093 8.63560302,36.5761628 C8.80675912,36.9151163 8.65116267,37.3002907 8.29329083,37.4543605 Z M8.93123628,35.0354651 C8.65116267,34.4037791 8.93123628,33.6642442 9.56918173,33.3715116 C10.2071272,33.094186 10.9539901,33.3715116 11.2496234,34.0031977 C11.529697,34.6348837 11.2496234,35.3744186 10.6116779,35.6671512 C9.95817286,35.9444767 9.21130989,35.6671512 8.93123628,35.0354651 Z M10.5494394,41.4293605 C10.782834,41.3369186 11.047348,41.4293605 11.1407059,41.6604651 C11.2340638,41.8915698 11.1407059,42.1534884 10.9073112,42.2459302 C10.6739165,42.3383721 10.4094026,42.2459302 10.3160447,42.0148256 C10.2226868,41.7991279 10.3160447,41.5372093 10.5494394,41.4293605 Z"/>
        <ellipse cx="22.99" cy="4.118" transform="rotate(-68.96 22.99 4.118)" rx="1.136" ry="4.283"/>
      </g>
      <path d="M30.1079132,24.527907 C30.7925376,25.0671512 32.0373092,24.7590116 32.8775301,23.85 C33.7488702,22.8947674 33.888907,21.6776163 33.2042826,21.1229651 C32.5196582,20.5837209 31.2748866,20.8918605 30.4346658,21.847093 C29.547766,22.8177326 29.3921696,23.9886628 30.1079132,24.527907 Z M28.0695997,26.2997093 C27.882884,26.2997093 27.5716911,26.6232558 27.8362051,26.7465116 C28.2096365,26.8851744 28.3807926,27.193314 28.3807926,27.6555233 C28.0540401,29.5197674 25.7200933,31.6613372 24.7865146,32.3854651 C24.5531199,32.6165698 24.8798725,33.109593 25.1132672,32.9247093 C25.6111758,32.5241279 26.6692317,31.7075581 27.5405718,30.6136628 C26.1246441,33.756686 23.3550273,37.793314 22.2969714,39.2107558 C18.1581058,44.8959302 11.8720092,50.1188953 7.54642787,50.1188953 C4.09218666,50.1188953 1.16697338,47.8078488 0.529027933,44.3875 C0.482348998,44.0177326 -0.0155596451,43.9406977 0.0777982254,44.4337209 C0.85578048,49.1174419 4.49673743,50.9200581 8.90011699,50.9200581 C13.723607,50.9200581 19.3873178,47.4534884 22.4992468,43.9252907 C27.5405718,38.1938953 30.8236569,31.6151163 29.9367571,27.8866279 C29.594445,26.484593 28.6141873,26.2534884 28.0695997,26.2997093 Z M59.0644128,38.7639535 C60.3869826,38.440407 61.4917174,37.7162791 61.4917174,36.5761628 C61.4917174,36.468314 61.2583227,36.468314 61.2583227,36.5761628 C61.2583227,37.2540698 60.4803405,37.8087209 59.6090003,37.9473837 C57.5551272,38.2709302 53.4629405,35.8674419 51.5335445,33.4023256 C53.5874177,34.1726744 57.8196411,33.0479651 59.8112757,31.6459302 C61.6473138,30.3363372 62.3786172,28.8726744 62.5342136,27.6863372 C62.7676083,25.7450581 60.6048176,24.5895349 57.6173658,25.7450581 C55.6879698,26.515407 53.3851423,28.1947674 51.0045166,31.3377907 C53.5251791,27.193314 58.4887059,20.4758721 63.3588748,16.1619186 C69.2870996,10.9389535 72.7257811,11.940407 67.4043825,17.4715116 C65.2104726,19.7363372 61.071607,22.6944767 58.2086323,23.9732558 C57.3372921,24.3430233 57.7574026,24.8360465 58.395348,24.5587209 C61.4294788,23.2491279 65.4594269,20.506686 67.9022912,18.2418605 C75.1064068,11.3857558 69.1003838,6.20901163 61.1027263,13.4656977 C55.6879698,18.4267442 52.1403707,23.6034884 49.0751206,30.3209302 C48.0170647,31.5843023 47.2390825,32.6319767 46.2588248,33.4639535 C46.1499073,33.5563953 46.0565495,33.6642442 45.9787512,33.756686 C43.3336116,36.0061047 39.1636267,39.0412791 36.565166,39.0875 C34.7291278,39.1337209 33.9511456,37.777907 34.2778981,35.9906977 C34.7758068,33.2174419 37.6854604,29.9511628 40.159444,28.8110465 C43.3802905,27.3627907 45.2630076,30.1668605 41.0307841,32.447093 C39.4281407,33.2636628 37.483185,33.7104651 36.7052028,33.7104651 C35.7871837,33.7104651 35.8805416,34.0802326 36.6585238,34.1110465 C37.9344147,34.1572674 40.0194072,33.6180233 41.3886559,32.9709302 C45.7142373,30.9372093 45.9787512,27.1162791 41.2952981,26.9776163 C36.1917345,26.7927326 30.0923536,31.122093 30.1390325,36.5299419 C30.1857115,38.9796512 32.1617864,40.3046512 34.8691646,40.3046512 C39.3814617,40.2584302 43.4114098,36.8534884 46.6944949,33.8799419 C47.1612843,33.4947674 47.6280736,33.0633721 48.0793033,32.6165698 C46.9278896,35.5284884 46.3366231,38.2093023 46.6166967,40.1968023 C46.8034124,41.6450581 47.6280736,42.3229651 48.2660191,42.8776163 C48.4060559,42.9700581 48.6705698,42.8776163 48.4994137,42.6002907 C47.5347157,41.4601744 47.8147894,38.0860465 49.1373592,34.8351744 C50.242094,36.9921512 54.5521157,39.765407 59.0644128,38.7639535 Z M53.6496563,29.2886628 C58.9243759,24.6049419 60.9938087,28.7956395 57.648485,31.3223837 C55.9058048,32.6319767 52.4515636,33.6334302 51.3623884,33.0017442 L51.1289938,32.8630814 C50.988957,32.6319767 50.8489201,32.4162791 50.7555623,32.1851744 C51.6269024,31.1375 52.6382793,30.1976744 53.6496563,29.2886628 Z M82.948468,23.9886628 C85.04902,24.2197674 84.1776799,21.6776163 82.0304489,22.3093023 C81.0657509,22.5866279 80.1477318,24.3892442 79.4631075,25.9915698 C77.3625554,29.134593 73.8149563,33.3869186 71.3254131,35.6209302 C69.1315031,37.4851744 67.0931896,37.9781977 69.5827328,34.480814 C70.5941098,33.0787791 71.8700007,31.5688953 72.6168636,30.0744186 C74.3595439,26.2997093 70.6407887,24.6203488 67.6533368,26.8851744 C65.9106566,28.1947674 63.5611502,30.9372093 61.7251121,32.431686 C61.2272034,32.8322674 61.3516806,33.4331395 61.8651489,33.0171512 C63.3277555,31.8462209 65.9106566,29.15 68.1045665,27.5630814 C69.9406047,26.1610465 70.671908,27.0700581 69.6138521,28.2409884 C68.1512455,29.9203488 65.5683444,32.8322674 64.9303989,34.6965116 C64.0123799,37.4697674 65.1171147,38.7023256 66.9375932,38.7023256 C69.4582557,38.7023256 73.2236898,34.7889535 75.7599119,31.7075581 C76.5845731,30.6598837 77.5025922,29.4427326 78.2805744,28.2563953 C76.0866645,32.477907 73.783837,36.7610465 70.936422,40.6127907 C66.8909142,46.0668605 61.8340296,50.1651163 57.0572185,50.1651163 C53.6029773,50.1651163 50.6310851,47.8540698 49.9931397,44.4337209 C49.9464607,44.0639535 49.495231,43.9869186 49.54191,44.4799419 C50.3198922,49.1636628 53.9608492,50.9662791 58.3642287,50.9662791 C63.1877187,50.9662791 67.8244929,48.1930233 71.0764588,44.7880814 C77.642629,37.9165698 78.4361709,30.1976744 80.4433651,25.8837209 C81.3925035,23.9886628 82.2638436,23.8962209 82.948468,23.9886628 Z M109.648819,17.3482558 C110.613517,15.7151163 110.566838,14.4363372 108.326249,14.4363372 C106.630248,14.4825581 103.549438,15.6534884 102.13351,16.7473837 C101.806758,17.0709302 101.946795,17.240407 102.366905,17.0709302 C102.646979,16.9784884 102.958172,16.7936047 103.284924,16.6703488 C104.887568,15.8075581 104.249622,17.6255814 103.876191,18.3034884 C101.946795,21.6313953 98.554792,26.2997093 96.7654328,28.6261628 C95.9096523,29.7662791 94.9449543,30.9063953 93.995816,31.8770349 C92.2686954,33.4947674 88.8611331,36.3758721 86.2937917,37.3311047 C77.9227026,40.427907 88.5810595,26.3305233 89.4679593,25.205814 C91.4440342,22.7561047 95.8474137,18.4883721 97.1699836,16.3468023 C98.1346816,14.7136628 98.0880026,13.4348837 95.8474137,13.4348837 C94.1514124,13.4811047 91.0706027,14.6520349 89.654675,15.7459302 C89.3279224,16.0694767 89.4679593,16.2389535 89.8880697,16.0694767 C90.1681433,15.9770349 90.4793362,15.7921512 90.8060887,15.6688953 C92.4087322,14.8061047 91.7707867,16.6241279 91.3973552,17.3020349 C89.4679593,20.6299419 86.0759566,25.2982558 84.2865974,27.6247093 C82.8239908,29.5659884 81.019072,31.5380814 79.6498232,32.6165698 C79.1052356,33.0633721 79.4164285,33.4793605 79.9765757,33.109593 C80.4744844,32.7860465 81.2057877,32.0619186 82.0304489,31.1991279 C80.5211633,34.2034884 79.2608321,38.425 83.2596609,38.9180233 C86.6672231,39.3802326 90.7127309,35.9290698 93.3267512,33.3869186 C93.6068248,33.109593 93.9335774,32.8014535 94.2603299,32.4625 C94.3381282,32.3854651 94.4159264,32.3084302 94.4937246,32.2313953 C92.984439,35.2357558 91.7396674,39.4418605 95.7384962,39.9348837 C100.110756,40.5203488 105.525513,34.7119186 107.626065,32.5857558 C108.030616,32.1851744 107.906139,31.4918605 107.221514,32.1851744 C105.992302,33.4485465 101.806758,37.2232558 98.7570674,38.3633721 C90.3859783,41.4601744 101.044335,27.3627907 101.931235,26.2380814 C103.90731,23.7729651 108.326249,19.5052326 109.648819,17.3482558 Z"/>
    </g>
  </g>
</svg>
