<svg xmlns="http://www.w3.org/2000/svg" width="667" height="375" viewBox="0 0 667 375" xmlns:xlink="http://www.w3.org/1999/xlink">
  <defs>
    <rect id="a" width="15" height="18" x="642" y="40"/>
    <mask id="b" width="15" height="18" x="0" y="0" fill="white">
      <use xlink:href="#a"/>
    </mask>
  </defs>
  <g fill="none" fill-rule="evenodd">
    <rect width="667" height="375" fill="#FFD0B8" fill-opacity=".143"/>
    <path stroke="#000000" d="M292.953972,85.4581525 C292.953972,85.4581525 305.023892,77.3180399 327.786741,78.4456991 C350.555256,79.5676916 389.779662,83.7723304 400.206259,107.628838 C410.624356,131.485346 397.783775,165.788285 372.224445,182.55584 C346.667948,199.323395 312.979839,200.519054 290.483322,192.656606 C267.998138,184.799825 257.843539,161.311648 263.878499,137.837638 C269.913459,114.363627 272.386942,98.9305629 292.956805,85.4581525 L292.953972,85.4581525 Z M348.299937,131.264348 L361.588182,131.264348 L361.588182,115.142788 L348.299937,115.142788 L348.299937,131.264348 Z M326.965079,159.540827 C326.965079,159.540827 327.514742,164.59546 331.628715,168.244769 C335.745521,171.891244 333.110538,178.065037 329.214731,177.226376 C325.321757,176.382048 323.675601,173.251235 324.497262,168.641433 C325.318924,164.034463 326.962246,159.546493 326.962246,159.546493 L326.965079,159.540827 Z M292.132311,162.070976 C292.132311,162.070976 288.568001,148.03757 296.795947,141.586113 C305.023892,135.131822 313.8015,135.97615 319.009132,130.077189 C324.222431,124.192395 326.693081,115.485619 326.693081,115.485619 M286.856679,156.679179 C286.856679,156.679179 283.29237,142.645772 291.520315,136.194315 C293.070138,134.97599 294.642628,134.01833 296.203784,133.225002 C302.930072,129.816524 309.506195,129.468027 313.736334,124.688225 C318.949633,118.794931 321.423116,110.096655 321.423116,110.096655"/>
    <polygon stroke="#000000" points="460.278 137.964 459.546 152.519 474.997 150.239 473.19 124.58"/>
    <use stroke="#000000" stroke-width="2" mask="url(#b)" xlink:href="#a"/>
    <path stroke="#000000" d="M518.973192 79.4932486L561.247474 97.5268911M90.2622916 110.617832C90.2622916 110.617832 74.632803 126.242343 90.2622916 126.242343 105.89178 126.242343 109.853905 104.843881 109.853905 104.843881L90.2622916 110.617832z"/>
    <polygon stroke="#000000" points="206.702 63.809 204.193 92.823 217.225 95.496"/>
    <polyline stroke="#000000" points="411.488 206.963 410.826 215.315 422.185 207.735"/>
    <path stroke="#000000" d="M565.04534 167.779949C565.04534 167.779949 543.806159 190.726428 570.978573 198.561082M160.395889 162.862136C160.395889 162.862136 170.482656 174.355285 167.334585 174.355285 164.186515 174.355285 155.493008 183.06101 164.158912 189.467109M19.8828125 239.625L30.7148438 217.636719M30.59375 239.9375L40.3242188 215.363281"/>
    <ellipse cx="282.5" cy="265" stroke="#000000" rx="6.5" ry="4"/>
    <ellipse cx="641.5" cy="238" stroke="#000000" rx="6.5" ry="2"/>
    <ellipse cx="416" cy="27.5" stroke="#000000" rx="5" ry="5.5"/>
    <polyline stroke="#000000" points="40.023 66.66 43.922 52.486 61.652 48.453"/>
  </g>
</svg>
