<svg xmlns="http://www.w3.org/2000/svg" width="667" height="375" viewBox="0 0 667 375" xmlns:xlink="http://www.w3.org/1999/xlink">
  <defs>
    <rect id="a" width="117" height="117" x="524" y="144"/>
    <mask id="b" width="117" height="117" x="0" y="0" fill="white">
      <use xlink:href="#a"/>
    </mask>
  </defs>
  <g fill="none" fill-rule="evenodd">
    <rect width="667" height="375" fill="#F1EAE6"/>
    <polygon stroke="#FFFCB5" stroke-width="10" points="17 135.914 167.887 102 134.426 273.898"/>
    <circle cx="268.5" cy="89.5" r="68.5" stroke="#99D5FF" stroke-opacity=".38" stroke-width="11"/>
    <use stroke="#FFC0C0" stroke-width="22" mask="url(#b)" xlink:href="#a"/>
    <path stroke="#B7F2D4" stroke-width="11" d="M354.142745,210.671563 C321.330245,238.07 364.185714,233.472344 374.767745,262.933281 C385.349777,292.394219 304.244308,274.136406 346.080245,317.995781 C387.916183,361.855156 369.521484,293.100084 394.654464,287.605156 C419.787444,282.110229 419.849777,362.198906 456.353683,324.902031 C492.857589,287.605156 416.193527,282.655938 416.193527,268.273125 C416.193527,253.890313 485.51794,215.960625 440.209152,210.671563 C394.900363,205.3825 408.654464,238.07 394.654464,238.07 C380.654464,238.07 386.955245,183.273125 354.142745,210.671563 Z"/>
    <polygon stroke="#979797" points="128.105 168.754 270.219 76.328 585.371 190.637 399.277 278.777"/>
  </g>
</svg>
