<svg xmlns="http://www.w3.org/2000/svg" width="667" height="375" viewBox="0 0 667 375">
  <g fill="none" fill-rule="evenodd" transform="translate(-34 -91)">
    <rect width="667" height="375" x="34" y="91" fill="#B7F2D4"/>
    <g transform="rotate(90 388 388)">
      <path stroke="#000000" stroke-opacity=".181" d="M369.289196,120.972589 C360.021116,85.1542582 341.596208,49.9001405 311.225288,27.597482 C246.191048,-20.1570753 150.100856,-3.48953007 100.586708,58.7424071 C53.5130956,117.907586 69.8802796,198.97091 64.4946316,268.291051 C60.5824156,318.644675 36.0386476,362.323383 20.6315596,409.541806 C-2.37920839,480.057939 -7.66586839,557.184054 12.5671036,629.078692 C27.8874676,683.51343 67.6140676,731.229379 118.807508,755.311546 C227.137172,806.269747 378.314624,759.490059 422.125136,643.138396 C446.745116,577.751077 441.303404,503.736471 415.618208,439.628502 C399.608432,399.670267 373.240832,362.884087 365.606492,319.644113 C358.515272,279.478795 371.297864,239.435445 375.396668,199.918578 C378.712328,167.957605 377.330876,152.051704 369.289196,120.972589"/>
      <path stroke="#000000" stroke-opacity=".181" d="M321.759286,205.43707 C315.445078,181.035503 302.852578,157.028797 282.192994,141.809078 C237.761398,109.077687 172.427566,120.35932 138.659518,163.032448 C107.317114,202.638818 116.864638,260.171902 114.065818,305.823164 C111.999334,339.514507 94.340926,370.848966 84.175822,402.074618 C68.501554,450.222282 64.80133,502.584435 78.680674,551.672747 C89.15413,588.713394 116.234794,621.271046 151.075066,637.690267 C224.889454,672.477571 327.914062,640.53327 357.762886,561.252966 C374.540038,516.691522 370.820542,466.268578 353.328574,422.576708 C342.431134,395.355829 324.470506,370.265448 319.249546,340.816673 C314.39563,313.431707 323.118838,286.180117 325.921162,259.233009 C328.184746,237.469995 327.235162,226.599017 321.759286,205.43707"/>
      <path stroke="#000000" stroke-opacity=".181" d="M251.79005,255.671972 C228.406982,238.445479 194.023106,244.383319 176.251694,266.840412 C159.756614,287.684715 164.78135,317.963577 163.308794,341.98871 C162.221678,359.718871 152.928194,376.210045 147.578462,392.643306 C139.32917,417.982889 137.381822,445.539838 144.686786,471.373437 C150.198578,490.867313 164.450222,508.001672 182.785778,516.642998 C221.632874,534.950535 275.852018,518.139085 291.561326,476.41538 C300.39053,452.963236 298.43267,426.426784 289.227662,403.433556 C283.49249,389.107101 274.039574,375.902931 271.292438,360.404176 C268.738022,345.992606 273.328262,331.650357 274.803446,317.468684 C275.994806,306.015066 275.49461,300.294839 272.613446,289.15711 C269.289902,276.315335 262.662962,263.68152 251.79005,255.671972 Z"/>
      <path fill="#000000" fill-opacity=".165" d="M252.033556,332.328474 C250.10548,324.878753 246.261592,317.550122 239.954392,312.903918 C226.390408,302.911288 206.444764,306.355358 196.135996,319.383157 C186.567448,331.473818 189.482776,349.038138 188.6278,362.974996 C187.99708,373.259824 182.606176,382.826003 179.503384,392.358839 C174.717796,407.057341 173.588632,423.042215 177.825844,438.028527 C181.023244,449.336485 189.290056,459.275589 199.926448,464.287698 C222.460672,474.907719 253.912576,465.156394 263.024728,440.953135 C268.1467,427.348838 267.010528,411.955379 261.671308,398.617833 C258.34426,390.307314 252.861376,382.647877 251.267056,373.657318 C249.784864,365.29766 252.44878,356.977488 253.303756,348.751205 C253.99492,342.107001 253.704964,338.789287 252.033556,332.328474"/>
    </g>
  </g>
</svg>
