<svg xmlns="http://www.w3.org/2000/svg" width="667" height="375" viewBox="0 0 667 375">
  <g fill="none" fill-rule="evenodd">
    <rect width="667" height="375" fill="#F1F1F1" fill-opacity=".62"/>
    <polygon fill="#0000FF" fill-opacity=".102" points="466.946 140.865 464.274 194 520.68 185.677 514.084 92"/>
    <rect width="136" height="102" x="346" y="96" fill="#E06C75" fill-opacity=".212"/>
    <path stroke="#000000" d="M422 30L464.274282 48.0336425M422 83L464.274282 101.033642M422 143L464.274282 161.033642M422 206.963177L464.274282 224.996819M193.946439 157.773951C193.946439 157.773951 178.316951 173.398462 193.946439 173.398462 209.575928 173.398462 213.538053 152 213.538053 152L193.946439 157.773951z"/>
    <polygon fill="#81E8B3" points="237.147 90 227.884 197.131 276 207"/>
    <polyline stroke="#000000" points="411.488 206.963 410.826 215.315 422.185 207.735"/>
    <path stroke="#000000" d="M565.04534,167.779949 C565.04534,167.779949 543.806159,190.726428 570.978573,198.561082"/>
    <path stroke="#000000" stroke-width="2" d="M80.3958886,122.862136 C80.3958886,122.862136 90.4826555,134.355285 87.3345852,134.355285 C84.1865149,134.355285 75.4930077,143.06101 84.158912,149.467109"/>
    <path stroke="#000000" d="M283 111.988281L293.832031 90M304 155.574219L313.730469 131"/>
    <ellipse cx="537.5" cy="149" stroke="#000000" rx="6.5" ry="2"/>
    <ellipse cx="416" cy="27.5" stroke="#000000" rx="5" ry="5.5"/>
    <ellipse cx="416" cy="77.5" stroke="#000000" rx="5" ry="5.5"/>
    <ellipse cx="416" cy="137.5" stroke="#000000" rx="5" ry="5.5"/>
    <ellipse cx="386" cy="27.5" stroke="#000000" rx="5" ry="5.5"/>
    <ellipse cx="386" cy="77.5" stroke="#000000" rx="5" ry="5.5"/>
    <ellipse cx="304" cy="148.5" fill="#FFFCB5" fill-opacity=".657" rx="52" ry="53.5"/>
    <ellipse cx="366" cy="27.5" stroke="#000000" rx="5" ry="5.5"/>
    <ellipse cx="366" cy="77.5" stroke="#000000" rx="5" ry="5.5"/>
    <ellipse cx="366" cy="137.5" stroke="#000000" rx="5" ry="5.5"/>
    <polyline stroke="#000000" points="228 207.207 231.899 193.033 249.629 189"/>
    <path stroke="#000000" d="M384 137L411.63478 137M384 77L411.63478 77M394.5 27L411.63478 27"/>
    <path stroke="#979797" d="M366.410156 33.9140625L366.410156 72.1112698M386.410156 33.9140625L386.410156 72.1112698M416.410156 33.9140625L416.410156 72.1112698"/>
  </g>
</svg>
