<svg width="24" height="29" viewBox="0 0 24 29" xmlns="http://www.w3.org/2000/svg"><title>cor 2</title><g stroke="#81E8B3" fill="none" fill-rule="evenodd"><path d="M11.225 9.934S8.587 11.447 5.69 11.04c-2.897-.406-3.475 0-3.475 0m9.563-7.297s-1.588 4.477-.553 6.19c0 0 7.714 5.408 8.566 8.774m-.022-.027c-6.83-2.347-5.52 7.366-3.11 8.17"/><path d="M2.215 7.904C2.693 5.737 4.797 2.834 6.47 2.3c1.676-.536 2.597-.19 3.28.26.68.448 2.028 1.183 2.028 1.183s4.05-2.233 6.827-1.08c2.776 1.15 3.73 4.24 3.25 8.447-.48 4.208-1.876 7.126-2.08 7.638-.205.513.363 1.016-1.038 3.53-1.402 2.514-1.603 4.533-2.08 4.533-.476 0-4.115.815-8.182-4.912C4.41 16.17 2.215 11.04 2.215 11.04s-.478-.97 0-3.136z"/></g></svg>
