<?xml version="1.0" encoding="UTF-8" standalone="no"?>
<svg width="163px" height="154px" viewBox="0 0 163 154" version="1.1" xmlns="http://www.w3.org/2000/svg" xmlns:xlink="http://www.w3.org/1999/xlink">
    <!-- Generator: Sketch 3.8.3 (29802) - http://www.bohemiancoding.com/sketch -->
    <title>imagen post2</title>
    <desc>Created with Sketch.</desc>
    <defs></defs>
    <g id="Page-1" stroke="none" stroke-width="1" fill="none" fill-rule="evenodd" stroke-linejoin="round">
        <g id="imagen-post2" transform="translate(1.000000, 1.000000)" stroke="#81E8B3" stroke-width="3">
            <path d="M83.363526,82.3941355 C83.3635246,85.5920664 83.7905646,89.2361771 78.1983977,89.2361771 C74.2210022,89.2361771 68.9889551,87.8799266 68.9889551,81.9035418 C68.9889551,75.927157 71.7144409,71.6677507 78.1983977,71.6677507 C89.5039414,71.6677507 90.1637548,77.0288397 91.5680286,81.9035418 C92.9723024,86.7782439 89.3606925,98.8220079 78.1983977,98.8220079 C67.0361029,98.8220079 58.2952038,91.7450237 58.2952038,81.9035418 C58.2952038,72.0620599 64.7696224,58.9501945 78.1983977,58.9501945 C91.627173,58.9501945 104.171766,65.7411962 104.171766,81.9035418 C104.171766,98.0658875 89.0937285,109.265244 78.1983977,109.265245 C67.2048545,109.265246 46.3892625,105.316194 46.3892625,81.9035418 C46.3892625,58.4908893 60.1200001,45.0702927 78.1983977,45.0702927 C96.2767953,45.0702927 120.265569,51.5807282 120.265569,81.9035418 C120.265569,112.226355 104.083863,128.863172 78.1983977,128.863172 C52.3129322,128.863172 25.4716599,109.265245 25.4716599,81.9035418 C25.4716599,54.5418389 51.6742808,27.8615111 78.1983977,27.8615111 C109.492596,27.8615111 141.268904,42.1617205 141.268904,81.9035418 C141.268904,121.645363 116.959448,150.627092 78.1983977,150.627092 C39.4373475,150.627092 0.855629723,129.157821 0.855629723,81.9035418 C0.855629723,36.4366537 39.4113022,0.627092053 78.1983977,0.627092053 C118.816801,0.627092053 160.306906,21.6782223 160.306906,81.949039 C160.306906,142.219856 90.1963113,104.743688 78.1983977,81.949039 C78.1983977,77.2335772 83.3635274,79.1962045 83.363526,82.3941355 Z" id="Path-1"></path>
        </g>
    </g>
</svg>