<svg width="24" height="37" viewBox="0 0 24 37" xmlns="http://www.w3.org/2000/svg">
  <g fill-rule="evenodd">
    <path d="M13.842 26.335c-.156-.535-.467-1.06-.978-1.395-1.1-.718-2.714-.47-3.55.465-.774.87-.538 2.13-.608 3.132-.05.74-.487 1.427-.74 2.11-.386 1.058-.478 2.206-.134 3.283.26.812.928 1.526 1.79 1.886 1.825.764 4.373.063 5.11-1.676.415-.978.323-2.084-.11-3.042-.27-.597-.713-1.147-.842-1.793-.12-.6.096-1.2.165-1.79.056-.477.033-.715-.103-1.18" vector-effect="non-scaling-stroke"/>
    <path d="M15.412 20.305c-.24-.858-.722-1.703-1.51-2.238-1.698-1.15-4.193-.754-5.483.747-1.2 1.393-.84 3.416-.94 5.022-.08 1.185-.76 2.287-1.15 3.385-.6 1.7-.74 3.54-.21 5.27.4 1.307 1.432 2.45 2.762 3.03 2.82 1.223 6.754.1 7.894-2.69.64-1.566.5-3.34-.17-4.876-.416-.96-1.1-1.84-1.3-2.876-.186-.962.147-1.92.254-2.87.086-.764.05-1.147-.16-1.89" vector-effect="non-scaling-stroke"/>
    <path d="M17.288 14.06c-.338-1.2-1.013-2.38-2.12-3.128-2.382-1.61-5.884-1.054-7.694 1.044-1.68 1.947-1.168 4.776-1.318 7.02-.11 1.657-1.058 3.198-1.603 4.733-.84 2.36-1.038 4.94-.294 7.35.56 1.82 2.01 3.42 3.88 4.23 3.95 1.71 9.47.14 11.07-3.76.9-2.19.7-4.67-.24-6.82-.585-1.34-1.547-2.57-1.827-4.02-.26-1.35.207-2.69.357-4.01.125-1.07.074-1.61-.22-2.65" vector-effect="non-scaling-stroke"/>
    <path d="M19.474 6.466c-.454-1.615-1.36-3.204-2.843-4.21C13.44.088 8.75.836 6.32 3.66c-2.256 2.62-1.57 6.43-1.77 9.45-.15 2.23-1.42 4.305-2.15 6.37-1.126 3.188-1.392 6.653-.395 9.903.753 2.45 2.7 4.606 5.203 5.693 5.305 2.302 12.708.188 14.854-5.06 1.205-2.95.938-6.286-.32-9.178-.782-1.802-2.073-3.462-2.448-5.41-.35-1.814.278-3.618.48-5.4.162-1.442.094-2.16-.3-3.562" vector-effect="non-scaling-stroke"/>
  </g>
</svg>
