<svg width="351" height="359" viewBox="0 0 351 359" xmlns="http://www.w3.org/2000/svg">
  <title>
    mountain
  </title>
  <path d="M327.968 67.21c6.17-1.028 13.366 0 19.535-2.056 4.113-3.085 5.14-15.424 3.085-20.565-13.367-19.54-38.043-23.65-56.55-35.99-5.14-1.03-14.395 2.05-18.507 4.11-7.19 15.42-17.48 30.84-17.48 48.32 21.6 13.365 44.22 14.394 69.92 6.17M143.93 97.02c2.058-17.48 12.34-33.93 24.678-46.27 51.41 58.61 76.085 176.85 183.016 158.346M143.927 304.72c8.225-13.366 9.253-29.817 20.563-41.127m1.027 0c-7.197-26.734 3.085-57.58-13.366-81.23m-1.03-1.028C115.14 216.3 67.84 236.862 18.49 249.2m143.94-101.79c-6.168-17.48-7.196-35.987-18.506-50.382m0 0c-37.015 43.185-78.142 88.426-142.917 89.454m142.917 118.244c-30.846-7.197-66.832-1.028-96.65 10.282-1.027 12.34 2.057 26.734 13.367 32.903 25.71 6.17 55.53 2.06 81.23-4.11 12.34-9.25 11.31-27.76 2.06-39.07m21.59-41.13c25.71 6.17 62.72 12.34 84.31-6.17-40.1-27.76-31.87-98.7-86.36-108.99m-1.03-1.02c-5.14 11.31-9.252 22.62-11.31 33.93" vector-effect="non-scaling-stroke" />
</svg>
