<svg width="1202" height="201" viewBox="-1 0 1202 201" xmlns="http://www.w3.org/2000/svg" xmlns:xlink="http://www.w3.org/1999/xlink">
  <defs>
    <path d="M5.195 0s-8.217 14.46-3.983 21.54c4.234 7.084 14.474 0 9.415-6.2C5.57 9.14 5.195 0 5.195 0z" id="a"/>
    <path d="M7.043.406S-3.01 11.39 1.225 18.473c4.234 7.082 16.195 1.215 12.396-5.8C9.827 5.655 7.048.405 7.048.405z" id="c"/>
    <path d="M.246 2.955c1.726 2.887 4.785 8.304 8.31 8.303 5.126-.002 10.44-6.766 7.444-10.44" id="e"/>
    <path d="M.22 0C5.214 10.94 15.473 10.94 19 10.94" id="g"/>
    <path d="M.113 11.723C5.107 22.663 10.57.633 14.096.63" id="i"/>
  </defs>
  <g fill="none" fill-rule="evenodd">
    <path fill="#FFF" d="M0 0h1200v200H0z"/>
    <path d="M11 35.09s10.598 1.34 16.406 14.61c5.81 13.27 15.06 17.698 15.06 17.698M157.908 10s3.567 11.256-4.808 20.875c-8.375 9.62-12.918 7.27-18.44 12.092-5.52 4.82-7.66 13.144-7.66 13.144M358.908 11s2.567 10.256-5.808 19.875c-8.375 9.62-12.918 7.27-18.44 12.092-5.52 4.82-7.66 13.144-7.66 13.144M562.908 15s-5.433 5.256-13.808 14.875c-8.375 9.62-8.918 8.27-14.44 13.092-5.52 4.82-7.66 13.144-7.66 13.144M757.908 16s-9.433 1.256-17.808 10.875c-8.375 9.62 1.082 11.27-4.44 16.092-5.52 4.82-8.66 13.144-8.66 13.144M956.908 18s-6.08.814-14.454 10.434c-8.375 9.62-2.272 9.712-7.794 14.533-5.52 4.82-7.66 13.144-7.66 13.144M1157.908 14s-.433 9.256-8.808 18.875c-8.375 9.62-8.918 5.27-14.44 10.092-5.52 4.82-7.66 13.144-7.66 13.144M150 139s13.034 10.25 16.668 15.586c3.442 5.055 4.56 15.586 4.56 15.586M56.795 158s-3.25 18.402-19.586 18.402c-16.34 0-10 9.81-10 9.81" stroke="#00F" stroke-width="3"/>
    <path d="M169.653 71.588c10.772 24.094-2.5 58.747-28.913 75.685-26.413 16.937-61.228 18.14-84.472 10.204-23.245-7.937-33.733-31.664-27.497-55.375 6.24-23.71 8.79-39.302 30.05-52.908 0 0 12.47-8.22 36-7.087 23.53 1.134 64.066 5.386 74.837 29.48zm200 0c10.772 24.094-2.5 58.747-28.913 75.685-26.413 16.937-61.228 18.14-84.472 10.204-23.245-7.937-33.733-31.664-27.497-55.375 6.24-23.71 8.79-39.302 30.05-52.908 0 0 12.47-8.22 36-7.087 23.53 1.134 64.066 5.386 74.837 29.48zm200 0c10.772 24.094-2.5 58.747-28.913 75.685-26.413 16.937-61.228 18.14-84.472 10.204-23.245-7.937-33.733-31.664-27.497-55.375 6.24-23.71 8.79-39.302 30.05-52.908 0 0 12.47-8.22 36-7.087 23.53 1.134 64.066 5.386 74.837 29.48zm200 0c10.772 24.094-2.5 58.747-28.913 75.685-26.413 16.937-61.228 18.14-84.472 10.204-23.245-7.937-33.733-31.664-27.497-55.375 6.24-23.71 8.79-39.302 30.05-52.908 0 0 12.47-8.22 36-7.087 23.53 1.134 64.066 5.386 74.837 29.48zm200 0c10.772 24.094-2.5 58.747-28.913 75.685-26.413 16.937-61.228 18.14-84.472 10.204-23.245-7.937-33.733-31.664-27.497-55.375 6.24-23.71 8.79-39.302 30.05-52.908 0 0 12.47-8.22 36-7.087 23.53 1.134 64.066 5.386 74.837 29.48zm200 0c10.772 24.094-2.5 58.747-28.913 75.685-26.413 16.937-61.228 18.14-84.472 10.204-23.245-7.937-33.733-31.664-27.497-55.375 6.24-23.71 8.79-39.302 30.05-52.908 0 0 12.47-8.22 36-7.087 23.53 1.134 64.066 5.386 74.837 29.48z" stroke="#00F" stroke-width="3"/>
    <g transform="translate(295 10)">
      <mask id="b" fill="#fff">
        <use xlink:href="#a"/>
      </mask>
      <path d="M5.195 0s-8.217 14.46-3.983 21.54c4.234 7.084 14.474 0 9.415-6.2C5.57 9.14 5.195 0 5.195 0z" mask="url(#b)" stroke="#00F" stroke-width="8"/>
    </g>
    <path d="M212 36.09s8.598 1.34 14.406 14.61c5.81 13.27 16.06 16.698 16.06 16.698M350 139s13.034 10.25 16.668 15.586c3.442 5.055 4.56 15.586 4.56 15.586M256.795 158s-3.25 18.402-19.586 18.402c-16.34 0-10 9.81-10 9.81M412 39.09s10.598-.66 16.406 12.61c5.81 13.27 14.06 15.698 14.06 15.698M550 139s13.034 10.25 16.668 15.586c3.442 5.055 4.56 15.586 4.56 15.586M456.795 158s-3.25 18.402-19.586 18.402c-16.34 0-10 9.81-10 9.81M620 40.09s-.797 10.195 7.406 16.61c8.203 6.413 15.06 10.698 15.06 10.698M750 139s13.034 10.25 16.668 15.586c3.442 5.055 4.56 15.586 4.56 15.586M656.795 158s-3.25 18.402-19.586 18.402c-16.34 0-10 9.81-10 9.81" stroke="#00F" stroke-width="3"/>
    <g transform="translate(493 21)">
      <mask id="d" fill="#fff">
        <use xlink:href="#c"/>
      </mask>
      <path d="M7.043.406S-3.01 11.39 1.225 18.473c4.234 7.082 16.195 1.215 12.396-5.8C9.827 5.655 7.048.405 7.048.405z" mask="url(#d)" stroke="#00F" stroke-width="8"/>
    </g>
    <path d="M834.17 30.293s-12.506 9.398-6.697 22.668c5.807 13.27 14.992 14.44 14.992 14.44M950 139s13.034 10.25 16.668 15.586c3.442 5.055 4.56 15.586 4.56 15.586M856.795 158s-3.25 18.402-19.586 18.402c-16.34 0-10 9.81-10 9.81" stroke="#00F" stroke-width="3"/>
    <g transform="translate(691 34)">
      <mask id="f" fill="#fff">
        <use xlink:href="#e"/>
      </mask>
      <path d="M.246 2.955c1.726 2.887 4.785 8.304 8.31 8.303 5.126-.002 10.44-6.766 7.444-10.44" mask="url(#f)" stroke="#00F" stroke-width="8"/>
    </g>
    <g transform="translate(870 34)">
      <mask id="h" fill="#fff">
        <use xlink:href="#g"/>
      </mask>
      <path d="M.22 0C5.214 10.94 15.473 10.94 19 10.94" mask="url(#h)" stroke="#00F" stroke-width="8"/>
    </g>
    <g transform="translate(905 23)">
      <mask id="j" fill="#fff">
        <use xlink:href="#i"/>
      </mask>
      <path d="M.113 11.723C5.107 22.663 10.57.633 14.096.63" mask="url(#j)" stroke="#00F" stroke-width="8"/>
    </g>
    <path d="M1022.133 30.582s-2.535 4.848 3.273 18.117c5.81 13.27 17.06 18.694 17.06 18.694M1150 139s13.034 10.25 16.668 15.586c3.442 5.055 4.56 15.586 4.56 15.586" stroke="#00F" stroke-width="3"/>
    <path d="M100 11.25c2.76 0 5-1.16 5-4.75s-2.24-3.267-5-3.267-5-.323-5 3.267 2.24 4.75 5 4.75z" stroke="#00F" stroke-width="4"/>
    <path d="M1056.795 158s-3.25 18.402-19.586 18.402c-16.34 0-10 9.81-10 9.81" stroke="#00F" stroke-width="3"/>
    <path d="M1200 199.5H0" stroke="#FFF"/>
  </g>
</svg>
