<svg xmlns="http://www.w3.org/2000/svg" width="21.207" height="17.25" viewBox="364.771 6.607 21.207 17.25">
  <path d="M385.98 8.642s-.83 1.34-2.17 2.247c.276 6.144-4.217 12.964-12.376 12.964-4.06 0-6.662-1.97-6.662-1.97s3.194.67 6.426-1.775c-3.27-.197-4.06-3.034-4.06-3.034s.905.235 1.97-.08c-3.666-.907-3.507-4.336-3.507-4.336s.91.554 1.97.554c-3.31-2.562-1.34-5.833-1.34-5.833s3 4.22 8.99 4.575c-.865-4.77 4.61-6.977 7.41-3.98 1.46-.237 2.8-1.065 2.8-1.065s-.472 1.616-1.93 2.404c1.18-.082 2.483-.673 2.483-.673z" vector-effect="non-scaling-stroke"/>
</svg>
