<svg width="1200" height="200" viewBox="0 0 1200 200" xmlns="http://www.w3.org/2000/svg" xmlns:xlink="http://www.w3.org/1999/xlink"><title>anim_sentir</title><defs><path d="M300.195 10s-8.217 14.459-3.983 21.541c4.234 7.083 14.474 0 9.415-6.201-5.058-6.201-5.432-15.34-5.432-15.34z" id="path-1"/><mask id="mask-2" x="0" y="0" width="12" height="24.498" fill="#fff"><use xlink:href="#path-1"/></mask><path d="M500.043 21.406s-10.052 10.984-5.818 18.067c4.234 7.082 16.195 1.215 12.396-5.801-3.799-7.016-6.578-12.266-6.578-12.266z" id="path-3"/><mask id="mask-4" x="0" y="0" width="14.172" height="21.274" fill="#fff"><use xlink:href="#path-3"/></mask><path d="M691.246 36.955c1.726 2.887 4.785 8.304 8.311 8.303 5.125-.002 10.44-6.766 7.443-10.44" id="path-5"/><mask id="mask-6" x="0" y="0" width="16.622" height="10.439" fill="#fff"><use xlink:href="#path-5"/></mask><path d="M870.22 34c4.994 10.94 15.253 10.94 18.78 10.94" id="path-7"/><mask id="mask-8" x="0" y="0" width="18.78" height="10.939" fill="#fff"><use xlink:href="#path-7"/></mask><path d="M905.113 34.723c4.994 10.94 10.456-11.091 13.983-11.092" id="path-9"/><mask id="mask-10" x="0" y="0" width="13.982" height="14.139" fill="#fff"><use xlink:href="#path-9"/></mask></defs><g id="Page-1" fill="none" fill-rule="evenodd"><g id="anim_sentir"><path id="Rectangle-1" fill="#FFF" d="M0 0h1200v200H0z"/><path d="M11 35.09s10.598 1.34 16.406 14.61c5.809 13.269 15.059 17.698 15.059 17.698M157.908 10s3.567 11.256-4.808 20.875c-8.375 9.62-12.918 7.271-18.44 12.092-5.52 4.82-7.66 13.143-7.66 13.143" id="Path-5-Copy" stroke="#00F" stroke-width="3"/><path d="M358.908 11s2.567 10.256-5.808 19.875c-8.375 9.62-12.918 7.271-18.44 12.092-5.52 4.82-7.66 13.143-7.66 13.143" id="Path-5-Copy-4" stroke="#00F" stroke-width="3"/><path d="M562.908 15s-5.433 5.256-13.808 14.875c-8.375 9.62-8.918 8.271-14.44 13.092-5.52 4.82-7.66 13.143-7.66 13.143" id="Path-5-Copy-8" stroke="#00F" stroke-width="3"/><path d="M757.908 16s-9.433 1.256-17.808 10.875c-8.375 9.62 1.082 11.271-4.44 16.092-5.52 4.82-8.66 13.143-8.66 13.143" id="Path-5-Copy-12" stroke="#00F" stroke-width="3"/><path d="M956.908 18s-6.079.814-14.454 10.434c-8.375 9.619-2.272 9.712-7.794 14.533-5.52 4.82-7.66 13.143-7.66 13.143" id="Path-5-Copy-16" stroke="#00F" stroke-width="3"/><path d="M1157.908 14s-.433 9.256-8.808 18.875c-8.375 9.62-8.918 5.271-14.44 10.092-5.521 4.82-7.66 13.144-7.66 13.144" id="Path-5-Copy-20" stroke="#00F" stroke-width="3"/><path d="M150 139s13.034 10.25 16.668 15.586c3.442 5.055 4.559 15.586 4.559 15.586M56.795 158s-3.25 18.402-19.586 18.402-10 9.809-10 9.809" id="Path-5-Copy" stroke="#00F" stroke-width="3"/><path d="M169.653 71.588c10.772 24.094-2.5 58.747-28.913 75.685-26.413 16.937-61.228 18.141-84.472 10.204-23.245-7.937-33.733-31.664-27.497-55.375 6.237-23.71 8.788-39.302 30.048-52.908 0 0 12.472-8.22 36-7.087 23.527 1.134 64.063 5.386 74.834 29.481zm200 0c10.772 24.094-2.5 58.747-28.913 75.685-26.413 16.937-61.228 18.141-84.472 10.204-23.245-7.937-33.733-31.664-27.497-55.375 6.237-23.71 8.788-39.302 30.048-52.908 0 0 12.472-8.22 36-7.087 23.527 1.134 64.063 5.386 74.834 29.481z" id="icono_t0t-2-path" stroke="#00F" stroke-width="3" stroke-linecap="square" stroke-linejoin="round"/><path d="M569.653 71.588c10.772 24.094-2.5 58.747-28.913 75.685-26.413 16.937-61.228 18.141-84.472 10.204-23.245-7.937-33.733-31.664-27.497-55.375 6.237-23.71 8.788-39.302 30.048-52.908 0 0 12.472-8.22 36-7.087 23.527 1.134 64.063 5.386 74.834 29.481z" id="icono_t0t-2-path-copy" stroke="#00F" stroke-width="3" stroke-linecap="square" stroke-linejoin="round"/><path d="M769.653 71.588c10.772 24.094-2.5 58.747-28.913 75.685-26.413 16.937-61.228 18.141-84.472 10.204-23.245-7.937-33.733-31.664-27.497-55.375 6.237-23.71 8.788-39.302 30.048-52.908 0 0 12.472-8.22 36-7.087 23.527 1.134 64.063 5.386 74.834 29.481z" id="icono_t0t-2-path-copy-2" stroke="#00F" stroke-width="3" stroke-linecap="square" stroke-linejoin="round"/><path d="M969.653 71.588c10.772 24.094-2.5 58.747-28.913 75.685-26.413 16.937-61.228 18.141-84.472 10.204-23.245-7.937-33.733-31.664-27.497-55.375 6.237-23.71 8.788-39.302 30.048-52.908 0 0 12.472-8.22 36-7.087 23.527 1.134 64.063 5.386 74.834 29.481z" id="icono_t0t-2-path-copy-3" stroke="#00F" stroke-width="3" stroke-linecap="square" stroke-linejoin="round"/><path d="M1169.653 71.588c10.772 24.094-2.5 58.747-28.913 75.685-26.413 16.937-61.228 18.141-84.472 10.204-23.245-7.937-33.733-31.664-27.497-55.375 6.237-23.71 8.788-39.302 30.048-52.908 0 0 12.472-8.22 36-7.087 23.527 1.134 64.063 5.386 74.834 29.481z" id="icono_t0t-2-path-copy-4" stroke="#00F" stroke-width="3" stroke-linecap="square" stroke-linejoin="round"/><use id="Path-8-Copy-4" stroke="#00F" mask="url(#mask-2)" stroke-width="8" xlink:href="#path-1"/><path d="M212 36.09s8.598 1.34 14.406 14.61c5.809 13.269 16.059 16.698 16.059 16.698" id="Path-5-Copy-5" stroke="#00F" stroke-width="3"/><path d="M350 139s13.034 10.25 16.668 15.586c3.442 5.055 4.559 15.586 4.559 15.586" id="Path-5-Copy-3" stroke="#00F" stroke-width="3"/><path d="M256.795 158s-3.25 18.402-19.586 18.402-10 9.809-10 9.809" id="Path-5-Copy-2" stroke="#00F" stroke-width="3"/><path d="M412 39.09s10.598-.66 16.406 12.61c5.809 13.269 14.059 15.698 14.059 15.698" id="Path-5-Copy-9" stroke="#00F" stroke-width="3"/><path d="M550 139s13.034 10.25 16.668 15.586c3.442 5.055 4.559 15.586 4.559 15.586" id="Path-5-Copy-7" stroke="#00F" stroke-width="3"/><path d="M456.795 158s-3.25 18.402-19.586 18.402-10 9.809-10 9.809" id="Path-5-Copy-6" stroke="#00F" stroke-width="3"/><path d="M620 40.09s-.797 10.195 7.406 16.61c8.203 6.413 15.059 10.698 15.059 10.698" id="Path-5-Copy-13" stroke="#00F" stroke-width="3"/><path d="M750 139s13.034 10.25 16.668 15.586c3.442 5.055 4.559 15.586 4.559 15.586" id="Path-5-Copy-11" stroke="#00F" stroke-width="3"/><path d="M656.795 158s-3.25 18.402-19.586 18.402-10 9.809-10 9.809" id="Path-5-Copy-10" stroke="#00F" stroke-width="3"/><use id="Path-8-Copy-3" stroke="#00F" mask="url(#mask-4)" stroke-width="8" xlink:href="#path-3"/><path d="M834.17 30.293s-12.506 9.398-6.697 22.668c5.808 13.27 14.992 14.437 14.992 14.437" id="Path-5-Copy-17" stroke="#00F" stroke-width="3"/><path d="M950 139s13.034 10.25 16.668 15.586c3.442 5.055 4.559 15.586 4.559 15.586" id="Path-5-Copy-15" stroke="#00F" stroke-width="3"/><path d="M856.795 158s-3.25 18.402-19.586 18.402-10 9.809-10 9.809" id="Path-5-Copy-14" stroke="#00F" stroke-width="3"/><use id="Path-8" stroke="#00F" mask="url(#mask-6)" stroke-width="8" xlink:href="#path-5"/><use id="Path-8-Copy" stroke="#00F" mask="url(#mask-8)" stroke-width="8" xlink:href="#path-7"/><use id="Path-8-Copy-2" stroke="#00F" mask="url(#mask-10)" stroke-width="8" xlink:href="#path-9"/><path d="M1022.133 30.582s-2.535 4.848 3.273 18.117c5.809 13.27 17.059 18.7 17.059 18.7" id="Path-5-Copy-21" stroke="#00F" stroke-width="3"/><path d="M1150 139s13.034 10.25 16.668 15.586c3.442 5.055 4.559 15.586 4.559 15.586" id="Path-5-Copy-19" stroke="#00F" stroke-width="3"/><path d="M100 11.249c2.761 0 5-1.16 5-4.749 0-3.59-2.239-3.267-5-3.267S95 2.91 95 6.5s2.239 4.749 5 4.749z" id="Oval-1" stroke="#00F" stroke-width="4"/><path d="M1056.795 158s-3.25 18.402-19.586 18.402-10 9.809-10 9.809" id="Path-5-Copy-18" stroke="#00F" stroke-width="3"/><path d="M1200 199.5H0" id="Line" stroke="#FFF"/></g></g></svg>