<svg width="798" height="666" viewBox="0 0 798 666" xmlns="http://www.w3.org/2000/svg"><title>Group 3</title><g id="Layout-(ipad)" fill="none" fill-rule="evenodd"><g id="Home" transform="translate(-482 -693)"><g id="wrap"><g id="section-todh" transform="translate(289 694)"><g id="Group-3" transform="translate(194)"><path d="M600.31 17.207c0 1.035 0 2.07-.414 2.976m-12.54-7.375c1.422-.388 3.232.13 4.525-.647m-.001-.129c-.129-2.329-1.939-3.752-2.714-5.822.387-2.2.905-4.528 2.456-6.08.517-.13 1.164-.13 1.551-.13 3.233 1.682 6.594 4.27 10.214 3.881 3.103 3.882 2.586 12.162-3.103 13.326m-8.404-5.175c4.009-.259 4.914 4.27 8.534 5.175m-.518 2.976c-1.939.517-4.007-.776-5.818.388-1.163 3.364 1.81 8.021 5.043 9.056 1.551-.517 3.49-.905 4.525-2.458-.388-2.587-1.81-5.045-3.75-6.986M254.607 157.194c5.43 8.15 18.876.258 13.963-8.151-4.913.647-11.248 1.035-14.997 4.657-.388 1.424-.13 2.717 1.034 3.494M226.642 29.369c4.784-1.682 12.024.258 13.834 5.175-.776 1.035-2.069 1.811-3.103 2.458-4.267-.388-8.533-1.682-11.507-4.528-.517-1.165.388-2.07.776-3.105" id="Shape" stroke="#81E8B3"/><path d="M226.642 29.369c-.905-2.976-2.327-6.21-1.552-9.315 5.56.129 15.774 7.374 17.842-1.553-5.3-.647-14.61-1.553-13.834-9.056 2.974-5.046 10.343-3.752 13.446.129.13 1.552-2.068 1.94-1.68 3.622m-45.51 8.151c-.517-3.752.776-7.504 2.198-10.867m443.458 6.986c4.267-.13 8.404.906 12.412 1.94m0-.129c.646-3.493 4.395-6.08 7.886-4.916 1.81 2.2 1.164 5.693-.258 8.021m0 0c.129 3.364.129 7.375-1.81 10.221m0 0c.129.647.129 1.165.129 1.682-3.232 1.423-7.499 1.423-11.119 1.294m5.172-16.302c.103.388.31.906.413 1.294m7.215 1.811c-2.328-.647-4.784-1.035-7.111-1.682m0 0c-1.164 4.529 1.68 9.316 5.3 11.903m-172.599.517c4.267-.517 8.533 1.165 12.153 2.588 1.68-3.622 2.845-7.633 3.879-11.644-2.457-1.035-4.913-1.94-7.24-3.105" id="Shape" stroke="#81E8B3"/><path d="M495.432 20.96c1.034-2.588 1.422-5.693.129-8.152-.905-.776-2.069-1.293-3.232-1.035-5.042 2.07-1.94 11.386 3.103 9.186m-311.584 9.833c-.13 2.07-.647 4.14-.905 6.08 1.422 1.812 3.878 2.459 5.947 3.106m-5.042-9.186c2.585-.776 6.205-.776 7.498-3.493-.905-4.787-5.43-4.658-9.308-4.787-1.81 1.811-3.88 3.881-4.396 6.598 1.422 2.07 4.396.388 6.206 1.682m214.618-2.717c1.422.906 3.103 1.811 4.783.906 2.845-3.752 3.491-9.186 3.62-13.714M392.26 26.134c.13 3.364 4.008 3.105 6.206 2.07m0-.129c2.068-4.399.517-9.445.517-13.973m-6.723 12.032c2.327-2.975 2.715-10.35-2.198-10.35-2.844 2.588-1.293 8.798 2.198 10.35M135.752 266.518c2.845.646 3.103-2.588 5.172-3.623m0-.129c.259-1.553.776-3.105 2.327-3.752 3.362.905 3.62 8.021.259 9.315-2.845-.776-1.164-4.01-2.586-5.563m-5.301 3.364c0 2.458-1.163 4.657-.388 7.115-6.335 3.364-11.894-4.01-16.29-7.763m.15-.372c-.13 0-.13 0-.259-.13-2.198-2.07-1.163-6.857 1.681-8.41 1.422-.388 2.974.13 4.396.13m10.193 9.128c1.422-6.08-5.56-17.336-10.99-9.056m1.294 5.218c-.518-1.424-.906-2.847-1.293-4.27m10.989 8.668c-3.49-.906-6.335-3.364-9.697-4.787m.647 0c-1.422 2.846-4.913 2.07-7.111 4.01M764.61 31.18c-.13-4.528-3.491-8.28-4.784-12.42m27.926 27.04c1.68 3.105 3.879 6.08 4.784 9.574-2.974 4.787-9.438 4.916-13.705 8.28m8.921-17.854c-1.68 1.81-4.137 2.199-6.464 1.94m.129.13c-1.034 1.423-2.586 1.94-4.267 1.94m0 0c-2.327 4.529-8.92 7.763-8.533 13.973m8.663-35.967c-3.62-1.811-7.24-4.27-10.473-6.857m10.473 6.857c1.81-1.164.517-3.752 1.939-4.916 3.49 2.846 8.145 5.822 9.567 10.35" id="Shape" stroke="#81E8B3"/><path d="M788.657 33.25c4.913-.518 10.343 2.846 10.214 8.15-3.232 2.588-8.016 1.424-11.12 4.4M777.28 27.816c2.973 1.294 2.585 3.881 2.585 6.598m0 0c-5.43-1.81-15.126 3.364-7.886 8.669m-.129 0c3.49-1.682 8.92.517 9.567 4.657m7.24-14.49c-2.844 1.164-5.947 1.164-8.92 1.164m-7.887 8.669c.517 3.105 3.49 4.528 5.3 6.727M241.436 176.768c-1.034-.517-1.81-.905-2.198-1.552-.258-1.94.388-4.27 1.94-5.434 3.361-.518 6.981 4.27 4.654 7.245-.517.259-1.034.388-1.422.518-1.035 0-2.069-.518-2.974-.777M435.96 36.226c1.939-.777 3.878.258 5.43 1.293.646 1.165.775 2.588.387 3.882-1.422 2.07-4.525 1.94-6.723 1.294m-3.62-.389c-2.456 4.27-7.757 3.235-11.248 1.165m11.248-1.165c0-2.458-3.361-3.493-2.973-5.95 2.197-1.165 5.43-1.553 7.498-.13m-4.525 6.08c1.164.3 2.327.3 3.62.3m.906-6.38c-.26 2.2-.518 4.399-.906 6.469M261.29 174.735c-1.55 2.717-1.68 6.857-2.585 10.35-.905-.517-.646-2.07-2.586-1.552-.517-5.046.388-12.808 5.172-8.798zm16.919-.948c1.293 2.975-1.293 5.304-3.62 6.21-.776-3.105-1.293-7.245 3.62-6.21zM380.536 51.233c-.1-.517-.2-1.164-.3-1.681m.129 0c-5.43.1-10.86.5-16.29.2m24.435-2.119c3.75-.7 8.016-.2 11.895-.1m-36.976 12.11c4.654-.259 9.438 1.423 13.963-.259m0 0c-1.164-3.234.388-6.34 3.232-8.15m5.042 3.881c2.198-1.811 2.845-4.787 2.845-7.504m-.001.129c-2.585-.388-7.24-1.552-8.274 1.94m-2.844 9.704c1.68 1.294 2.586 3.364 4.266 4.787 3.232-1.035 5.43-5.822 4.008-9.056m0 0c-2.586.259-3.103-2.717-5.042-3.882m271.893 14.103c.775.517 1.939 1.035 2.198 1.94-.13.906 0 1.812-.518 2.588-3.49 2.587-9.696 4.27-11.765-.906 1.552-4.14 6.982-2.329 10.085-3.622m0 0c-3.879-8.151-10.731-14.49-17.842-20.054m-60.507.647c4.654 1.164 10.085-.776 14.093 2.329" id="Shape" stroke="#81E8B3"/><path d="M588.26 48.258c3.233-.13 6.594.259 9.826-.13.518.389.776.906 1.293 1.294m-11.119-1.164c-2.197 2.975-6.464 3.234-9.696 4.657m180.874.647c.13-3.881 4.266-5.822 7.628-6.34M246.974 183.975c-5.818 2.07-.905 12.679 4.654 9.186 3.232-3.235-.776-8.798-4.654-9.186M185.916 50.457c-2.844 4.27-1.551 12.032 4.525 12.809 3.62-2.459 5.56-6.728 7.24-10.739-2.585-3.622-8.145-2.975-11.765-2.07m248.104 2.2c.258 2.328-.259 3.88-2.586 3.622-.13-1.552-.776-1.294-1.034-3.622 1.422-1.035 2.198-1.035 3.62 0zm159.153-.517c2.716.646 2.586 4.01 2.586 7.244-3.49.906-8.533 2.329-11.377-1.035.517-4.528 7.886-2.07 8.791-6.21zM270.561 192.51c-1.422 1.035-4.525.259-6.723.518-.646-1.423 2.457-1.294 0-1.553 1.293-1.94 7.628-4.528 6.723 1.035zM573.522 89.659c.775-9.963-2.845-22.383 4.008-30.534 4.008 1.424 3.749 6.599 5.3 9.833m-341.32-2.199c.388 1.164.646 2.458.517 3.752-1.293 2.458-4.266 1.811-6.076 3.105m5.559-6.857c.517-1.294-1.034-2.847-1.68-3.882-4.914.389-12.024-1.81-15.127 2.976 3.62 6.986 11.506 2.846 16.807.906m.259 131.447c5.559 1.165 12.282 1.035 16.548 5.046-.387 1.423-1.163 2.587-1.68 3.881m0 .13c.388 3.105-2.586 5.175-4.525 7.115m.646-.646c-2.974 2.716-7.37 2.199-10.99 3.88" id="Shape" stroke="#81E8B3"/><path d="M257.671 207.23c-3.879-.905-9.05-2.717-12.024.906 1.035 3.623 5.301 3.752 7.499 6.21M585.933 61.972c3.75 2.975 8.533 4.916 10.343 9.832-2.198.777-1.551-.905-4.137 0-.776-4.269-8.016-4.528-6.206-9.832zM201.69 210.223c6.334-.259 12.67-1.035 18.875.906M659.31 89.53c.3 1.293-.1 2.457-.2 3.751m-.129 0c1.81 2.976 1.94 6.598 1.94 9.962-6.336 2.329-13.317.776-20.04.388m18.488-14.101c.905-1.683 1.94-3.753.776-5.564-7.499-2.458-16.29-2.846-22.884-8.539" id="Shape" stroke="#81E8B3"/><path d="M659.369 89.53c-3.49-1.036-7.37.387-9.826 2.975-.388.776-.259 1.811-.13 2.717.13.259.518.517.776.776 3.362.776 6.206-1.035 8.921-2.717m-477.719-2.199c4.396-2.588 7.887-6.34 8.533-11.644 3.232-2.2 7.24-.518 10.472.517-.905 7.245-6.464 12.938-11.635 17.854m21.719 126.92c1.164.258 2.199 1.682 3.362 1.293 1.94-1.293 4.655-2.587 3.75-5.433-.388-.906-1.293-1.682-2.327-1.682-1.681 1.035-4.008 1.423-5.56 2.717-.258.646-.258 1.293-.258 1.81.129.389.646.777 1.034 1.295m25.34-123.297c4.784.517 6.465-5.693 9.438-8.28-.646-2.07-.646-4.27-1.551-6.21-5.818.776-11.248 9.444-7.887 14.49m359.939-12.55c-.13 2.33-1.552 1.553-2.587 2.07.647 1.682 2.07-.129 2.07 2.588-2.716 1.035-8.663.647-12.413 2.07-.258-1.035-1.422-.906-1.034-2.588 2.974-1.164 5.818-2.458 10.343-2.07-2.844-1.682-6.594.13-9.309-.517.388-5.822 9.697-2.976 12.93-1.553zm1.034-2.07c5.3.518 4.137 5.952 5.171 9.833-1.94 1.294-5.3.388-6.206-1.035-.13-3.364.259-6.34 1.035-8.798zm-393.812 20.183c-2.973 2.329-8.662.13-11.377-1.035-3.103-9.186 12.153-5.304 11.377 1.035zm222.763 1.553c5.43-2.33 7.24 3.105 5.69 7.374m-12.413 5.046c1.423 5.951 8.921 5.434 10.99 10.868m-10.99-10.868c-1.81-.647-4.007 0-5.43-1.164.647-4.27-1.034-8.41-.129-12.55 3.879-1.165 8.792-1.165 12.153 1.294m-6.594 12.42c1.035-4.658 5.172-7.892 6.723-12.42m36.589 24.193c2.198 3.235 6.206 6.728 5.818 10.868-3.103 2.846-7.11 4.658-11.119 5.951m5.301-16.819c-4.008 6.47-10.214 2.588-15.644.777m15.644-.777c.388-3.752 3.879-6.727 4.008-10.738-1.68-2.846-5.689-2.976-8.662-3.493-1.681 1.811-1.035 4.657-1.035 6.857m142.993 23.029c-4.525-5.175-5.947-12.162-10.214-17.466m-1.551 10.091c2.715 2.717 5.171 5.952 6.335 9.704m-6.335-9.704c-1.035-4.14-11.378-8.15-12.024-2.328.905 1.293 2.327 2.328 3.361 3.493 2.845.517 5.948-.259 8.663-1.165m81.063 9.704c7.499 1.811 3.75 17.466-1.81 20.7-4.008-1.552-2.973-7.374-6.981-9.186-14.093 11.903-12.412-5.434-15.515-14.62m-73.048 18.501c1.681 3.494 3.62 6.728 5.56 10.221m-.13 0c2.198.389 4.396 1.035 5.948 2.717m.129 0c4.137-4.657 7.11-11.644 10.084-17.466" id="Shape" stroke="#81E8B3"/><path d="M577.012 176.341c-.646.777-1.422 1.682-1.81 2.717.259 1.941 2.328 3.235 4.138 3.364 1.68-.517 3.103-1.682 3.62-3.364m-185.529-9.444c7.5-2.588 14.222-8.41 22.367-8.022m-4.137 13.197c-.517 4.399 4.784 4.528 6.206 7.633-5.689 4.399-13.317-3.364-13.188-9.315 1.681-1.682 4.138-.518 6.077.13" id="Shape" stroke="#81E8B3"/><path d="M415.661 174.789c5.3.647 12.412-1.811 10.99-8.539-4.008 1.682-10.085 1.94-11.895 6.986m.905 1.553c-.259-.259-.646-.906-.905-1.553m293.225 7.892c.259-4.916 3.491-9.315 1.94-14.49m-.518 23.288c4.784 4.01 12.283 2.329 16.679 6.34 0 .905-.905 1.423-1.423 2.07m-31.546-14.491c4.913 3.105 10.86 4.011 16.29 6.081m0 0c4.655-5.046 7.5-11.256 10.99-17.078m-66.454 20.572c3.103-.13 6.335 1.94 8.404 3.88-.518.777-.905 1.424-1.293 1.941-.13.13-.259.259-.388.259m-26.634 8.28c4.267-4.399 10.99-6.08 13.834-12.032m-.129 0c-4.008-1.035-10.214-5.563-7.887-10.091 4.784 1.81 10.602 3.752 13.964 7.762m-6.077 2.329c2.069-.647 4.784-.259 6.077-2.329m-19.782 14.361c-1.163-1.423-2.068-3.364-3.878-4.01-2.844.129-6.465 2.846-6.465 5.692 3.233 2.976 7.37.647 10.343-1.682m60.249-5.046c3.361.518 6.593 1.424 9.955 1.553" id="Shape" stroke="#81E8B3"/><path d="M704.232 204.158c5.042-3.105 11.377-4.14 17.066-3.105.517 1.035.905 2.199 1.034 3.363-4.525.647-7.37 3.752-10.601 6.47-3.491.646-7.5-3.235-7.5-6.728m-48.999 64.171c1.68 1.94 3.103 4.399 4.266 6.598-.646 1.164-1.68 2.2-2.844 2.717m0 .129c-.259 3.494-3.49 5.952-6.335 7.634 0 1.293.258 2.717.13 4.14m.128-.104c3.879-.1 7.758-.6 11.636-.2m-11.636.304c-3.49.776-6.981 1.682-10.601 1.293m15.256-22.511c.129-3.105-2.845-4.658-4.008-7.116 1.034-3.105 5.43-1.164 7.11-3.493-4.654-5.305-12.54-2.717-18.617-4.01-3.75-2.07-4.913-6.987-8.662-8.928" id="Shape" stroke="#81E8B3"/><path d="M655.232 268.329c-3.62.259-5.301 4.01-4.008 7.116 1.293 1.681 3.75 1.164 5.56 2.328m-248.88-6.857c2.327.518 5.43.388 6.723 2.717-4.655 5.046-9.568 10.61-14.48 15.267m7.757-17.984c-3.103-3.493-8.404-6.598-12.93-6.986-.904 5.822 8.146 11.256 12.93 6.986m7.757 31.31c1.164.517 1.551 1.94 2.327 2.846 4.137.13 9.18-2.717 11.636-6.08-.905-4.529-5.43-8.022-9.826-8.54-2.456 2.847-5.56 7.634-4.137 11.774m241.898 7.115c6.335-1.681 16.549 5.434 12.282 11.903m-12.282-11.903c.517-4.398-5.3-10.22-8.921-5.822-.776 4.658 4.913 7.634 8.92 5.822M401.18 320.856c-1.034-.647-2.456-1.423-2.326-2.846 2.197-4.4 12.54-1.812 9.179 3.881-2.327 1.164-4.654-.388-6.852-1.035m311.713-10.997c4.396-1.164 8.533 1.811 12.929 1.94m-13.017-1.94c-.1.776-.2 1.035-.3 1.552m0 0c1.552 3.235 1.94 7.246 1.035 10.61-1.681 1.034-3.75 1.293-5.56 2.328m0-.129c-1.68 3.364-2.715 6.986-4.008 10.48m-13.316-23.03c6.723-3.752 15.385-5.692 22.237-1.811m-.388 1.552c-4.395 1.424-11.118 6.34-7.886 11.386 1.163.258 2.456.647 3.361 1.423m-53.784 23.288c-4.008.905-23.66.776-18.358-7.504 6.464 1.682 17.324 5.692 18.358-4.916-2.585-5.046-10.472-3.235-12.67-9.057 2.198-3.105 6.206-1.552 9.18-2.846-1.552-5.952-9.697-6.34-14.351-8.927m126.444 29.11c-2.716-5.046-1.164-11.774-5.043-16.302m5.043 16.302c3.49-4.011 8.532-1.423 12.023 1.164m-.129 0c2.844-2.846.258-7.245 2.327-10.091m.129-.001c-.775-4.916 1.552-10.35-1.034-15.007m0 .129c-.517-.258-1.034-.517-1.551-.905m0 0c-3.233.776-6.594 2.587-9.956 1.94-1.292-.776-1.81-2.587-1.292-3.881 2.844-4.399 10.989-3.752 11.248 1.94m9.438 16.69c.646.388.905.647 1.292 1.035 4.008 9.186-9.179 15.784-5.171 23.935m-2.974-25.876c2.198.648 4.525 1.165 6.853.906" id="Shape" stroke="#81E8B3"/><path d="M784.003 335.346c.517-6.21-2.586-12.032-3.233-18.113-1.939-.388-3.103 1.553-4.654 2.33M762.8 343.368c0 .388-.13 1.164-.13 1.682 1.81 4.01 8.662 5.563 11.895 2.458.387-.906.387-1.94.258-2.976m22.497-17.854c-2.587 1.035-4.138-1.294-7.24-.517-.518-2.459-2.587-4.787-1.035-7.763 4.525-.647 8.533 2.717 8.274 8.28zm-46.544 2.07c3.749 2.2 8.145 15.008 1.034 15.008-5.56 0-7.24-12.291-1.034-15.008zm-184.753 14.878c5.818.26 11.377.777 17.195.906m0 0c10.343-4.01 11.507 3.881 3.232 8.798m0 0c.388 2.458 3.233 3.752 3.491 6.34-3.103 1.552-7.24.258-9.955 2.716m3.232-17.854c.517 3.105.647 6.857 3.232 8.798m-6.593 9.056c-2.715-.517-5.947 1.423-5.689 4.528 1.422 2.976 4.913 4.4 8.016 3.752 2.586-2.975-1.422-5.692-2.327-8.28m214.618-16.948c-3.62 1.423-1.034 6.21 1.034 7.892 2.327-.388 2.586-3.882 2.198-5.693-1.034-.905-1.81-2.2-3.232-2.2m-377.78 2.976c1.164-.646 2.586-1.681 4.008-1.035 2.715 4.917 8.145 7.892 10.731 12.809m-14.739-11.774c-4.783-1.035-12.023-.258-14.739 4.529.518 3.105 3.233 5.563 6.077 6.598 4.525-1.682 7.499-6.598 8.662-11.127m-11.765 24.323a14.633 14.633 0 0 1 4.654-.776m0 0c3.233 4.27 8.663 10.092 14.222 5.951.259-.646.259-1.293.388-1.681-2.586-4.4-9.955-6.47-14.61-4.27m-4.654.776c-3.103-1.423-7.37-.388-9.309 2.33-.258 1.034.388 2.07 1.293 2.716 2.974 0 6.723-1.94 8.016-5.046m9.438 23.159c5.042 4.14 12.67 11.256 9.955 17.983m-9.955-17.983c0-.776-.13-1.035-.13-1.553-5.17-4.01-14.092-7.245-20.556-4.657 4.008 5.434 13.834 8.539 20.686 6.21m170.143 10.091c2.069 1.165 4.267 2.459 6.594 2.717m.129-.129c.13-5.434.388-10.997 2.069-16.431m-2.069 16.431c1.552 1.552 2.586 3.622 4.137 5.046-2.844 5.175-8.274 7.892-13.058 10.997.388 1.164 1.293 2.2 1.681 3.364m-3.749-23.159c1.293.647 2.715 1.294 4.266 1.164m0 0c1.034-4.787-1.163-9.703 1.293-14.231" id="Shape" stroke="#81E8B3"/><path d="M580.245 404.822c.258-1.811.646-3.493.517-5.304-1.81-3.623-7.37-6.34-11.119-4.4.517 4.658 5.43 9.963 10.602 9.704m3.749 23.158c-.776.777-2.327.777-2.586 2.07-.388 2.33 2.069 3.623 3.62 4.788 1.681-.13 3.62-.906 4.138-2.717-1.293-1.941-3.362-3.105-5.172-4.14m47.966-11.256c14.48-.906 18.1-18.113 29.348-24.582m-264.135 40.883c-2.198 2.458-.259 6.081 2.198 7.634 2.844-3.235 4.525-7.892 4.266-12.291-4.783-5.305-13.316-8.798-12.282-17.596 3.75-5.045 10.99-2.717 15.644-.388m242.544 31.31c2.457-6.857 3.49-13.326-.517-19.278-1.422-2.2-4.784-10.091 1.94-10.48 2.326.777 3.49 3.235 4.524 5.305m1.035 20.442c-2.715 1.423-1.293 5.951.517 7.504 2.973-1.294 3.232-6.987-.517-7.504m-65.42 20.183c-.259-.906-.388-2.33.776-2.847 3.232 2.459 5.042 7.375 5.042 11.515-2.845 1.682-6.335 1.682-9.567 1.94-1.552-.517-2.328-2.328-2.716-3.751.13-.259.647-.647 1.035-.906m48.612-.776c.905 5.175 5.947 6.857 9.567 9.444m0 .13c2.586-.259 4.784 1.035 7.24 1.423 1.293 4.787-3.232 10.48-7.369 12.808m-5.689-9.057c4.008 1.165 4.138 5.823 5.69 8.928" id="Shape" stroke="#81E8B3"/><path d="M643.854 472.616c-1.293 1.682-3.749 1.423-5.43 2.329-.775.776-.517 1.94-.388 2.846" id="Shape" stroke="#81E8B3"/><path d="M638.036 477.79c-3.232 3.235-.775 13.974 5.172 10.869.259-.647.388-1.553.517-1.941m-245.776-16.172c.258-1.553.905-3.105 2.068-4.27 6.206-.647 12.8.777 18.876 2.33m167.945 9.184c3.62.518 6.853 2.33 9.826 4.27m-9.826-4.27c-1.551 4.012.905 8.152 2.457 11.645" id="Shape" stroke="#81E8B3"/><path d="M583.348 491.375c.129-.388.129-.776.129-1.164-5.3-3.364-10.731-7.763-9.567-12.679 1.292-5.951 7.628-1.423 12.928.13m-190.441 4.268c-5.3 7.375 6.077 16.69 11.377 8.281-1.422-4.787-6.981-6.857-11.377-8.28m248.75 64.171c0-2.976 1.81-5.434 3.362-7.892m-.129 0c-5.172-3.234-11.507-1.552-16.808-3.105m141.312 12.55c.13-10.739-1.68-21.994-1.293-33.121-.517-.647-1.552-.647-1.94-.647-2.456 1.035-5.17 1.553-7.627 2.976-1.293 4.528-1.423 12.808-8.275 12.032" id="Shape" stroke="#81E8B3"/><path d="M649.802 538.08c1.422 2.2 1.68 5.823-.388 7.634-1.422.518-2.845.518-4.267.259m0 .129c-.129 0-.258.13-.388.13-1.81-.389-3.62-1.165-5.042-2.33m10.085-5.822c-.388 0-.905.1-1.423.1m-8.662 5.723c-.517-2.717-5.689-3.105-7.757-2.33-.388 1.812.646 3.753 1.68 5.047 2.457 1.552 4.914-.647 6.077-2.717m-48.871-21.477a7.055 7.055 0 0 0 3.62-3.364c-4.008-7.633-14.092-4.14-19.78-9.574-1.423 2.588 0 6.21 1.421 8.54 2.328.905 4.655-.518 6.982 0m-196.647-1.295c9.05-6.598 21.203 4.011 31.805 2.976M397.82 540.15c-.389-6.339-2.328-12.808-.13-19.018m.13 19.018c-4.138.777-8.792-.517-12.542 1.553-1.293 2.33-.517 5.693 1.293 7.634 5.301 1.81 13.575-3.364 11.248-9.186m189.149 5.563c.388-2.2.129-4.787-.776-6.857-5.818-.518-10.472-5.046-13.575-9.574m14.351 16.431c-4.655.647-9.438 2.07-13.576 3.752.13 4.658 4.655 8.021 8.533 9.315 5.43-1.294 6.336-8.41 5.043-13.067m-151.914-8.021c1.94-.518.905 2.717.517 3.105-1.163 0-.258-2.2-.517-3.105z" id="Shape" stroke="#81E8B3"/><g id="Group" transform="rotate(-90 243.922 56.48)" stroke="#81E8B3"><path d="M17.712 13.196C15.127 17.983 11.248 27.3 4.008 24.452c-.776-2.328-2.586-4.398-3.232-6.857m16.936-4.399C15.515 7.246 8.274 5.693 5.172.388m12.54 12.808c5.043 4.787 10.99 19.148 19.394 12.033 0-1.294-.517-2.459-1.293-3.494" id="Shape"/><path d="M35.813 21.735c0-4.787-.905-10.48-4.267-14.102a3.585 3.585 0 0 0-2.327 0c-6.852 5.046-.905 14.879 6.594 14.102M20.169 35.579c0 .517.1.905.1 1.552m.029-.129c10.99 10.868-2.715 23.676-.905 35.45" id="Shape"/><path d="M20.298 37.002c-1.293 6.21-8.145 18.63-8.274 25.229 0 2.846.388 7.245-2.327 9.703m7.628-38.037c-3.62 5.175-6.206 10.868-8.404 16.819-6.206 3.881-7.499 11.256-6.206 17.983 0 .13-.388.906-.517 1.812m.258-35.838c3.362-4.399 10.86-4.14 14.74-.905m.129.129c1.034.259 2.068 1.035 2.973 1.682m-.129 0c5.042-1.94 9.697 1.94 14.35 3.493" id="Shape"/></g><path d="M398.078 569.52c-7.499 1.94-1.034 12.032 4.783 11.643 5.56-.388 8.792-8.797 9.697-12.679-4.654-1.035-9.955-.646-14.48 1.035m249.655 26.911c.646-.13 1.034-.388 1.422-.647-.388-5.693 0-11.644-1.293-17.207" id="Shape" stroke="#81E8B3"/><g id="Group" transform="rotate(-90 342.894 141.223)" stroke="#81E8B3"><path d="M14.48 24.064c-2.973 3.235 1.164 9.962-3.49 11.644M9.18 9.445c4.654 3.493.904 10.738 5.171 14.49m.129.129c.776.1 1.681.2 2.457.3m-.13.088c3.103-.517 5.818 1.812 8.921 2.07m-.053 0c.512-1.552-.103-3.234-.205-4.916" id="Shape"/><path d="M25.47 21.606c-5.301-1.552-4.396-10.48-.905-13.714 3.232-.517 6.852.906 8.662 3.623m-.129 0c3.103.646 5.56 2.975 7.628 5.304m-14.998 9.703c.517.518 1.422 1.294 1.94 1.812m0-.13c2.715-.388 5.688-.258 8.274 1.035 1.034 4.658 2.069 9.704 1.422 14.62m-9.696-15.655c-1.035 6.21 1.034 12.938-.905 19.019m-9.956-22.771c-.258 4.27 4.526 10.221 4.396 16.431-.258 9.186-9.955 15.784-16.549 9.057M9.18 9.445c.387-2.976-.776-5.952-2.457-8.28-1.164-.389-2.586-.26-3.75.258-1.68 2.329.518 5.434 1.81 7.633 1.423.518 2.974 1.035 4.396.389M25.47 21.606c4.266-1.682 4.913-6.857 7.628-10.091" id="Shape"/><path id="Path-435" d="M.506 20.22l8.168.333 4.017-.896"/><path d="M13.991 23.963l3.59.375" id="Path-436"/></g><path d="M567.445 633.95c3.232.905 6.206 2.328 9.697 2.458m0 0c4.783-.26 9.438-2.976 14.221-2.07m-14.221 2.07c.2 1.035.2 2.07.2 3.105m.058 0c3.103.776 4.267 4.27 5.43 6.857-.387 2.846-2.456 6.21-5.818 5.045-3.62-2.458-3.878-9.962.388-11.902m-163.937 8.539c.905-.26 1.81-.518 2.327-.777 2.069-4.399 2.457-9.315 4.525-13.714m-6.852 14.491c-6.206-4.011-14.61-3.494-21.332-4.27-2.328 10.22 17.712 13.843 21.332 4.27m55.335-541.057c.259 6.08-9.696 8.28-10.73 1.94 5.43-2.716 2.844-9.832 7.11-13.066" id="Shape" stroke="#81E8B3"/><path d="M468.798 106.995c13.446 1.035 12.153-19.148-1.163-16.56-.388 1.94-2.715 3.234-2.457 5.434m3.62 11.126c-2.844-3.234.13-8.28-3.62-11.126m-44.345-6.21c-.13 3.622 2.973 5.433 6.205 5.563 5.301-2.847 1.164-14.102-4.654-14.361-2.974 1.682-1.68 5.951-1.551 8.798m284.433 184.88c1.034.259 2.198.259 2.974.906.258 3.363 2.068 8.927-1.68 10.867-4.397-1.294-3.104-8.539-1.294-11.773m0 0c-2.715-3.752-8.404-1.682-11.377-4.916.388-3.623 5.56-4.27 6.594-7.634 5.817-.647 13.704-2.07 12.153-7.762-1.423-4.787-9.568-9.704-14.48-11.515-3.75-3.364-7.758-6.598-10.085-11.256m-103.172 106.09c-2.069 5.563-8.662.13-10.343-2.588 2.198-5.951 9.309-1.423 10.343 2.588zm44.734 51.751c6.076-.13 11.765-3.235 17.712-3.882m0 0c.647 1.941.517 4.658 2.457 5.822 4.525.518 8.015-3.493 7.886-7.892-3.361-1.811-7.11 1.165-10.343 2.07" id="Shape" stroke="#81E8B3"/><g id="Group" transform="rotate(-90 297.609 84.945)" stroke="#81E8B3"><path d="M36.071 41.53c.13.776 0 1.682.259 2.458.388.518 1.94.647 2.586.388 2.456-1.681 2.973-4.787 4.525-7.115.13-.647-.259-1.812-.517-2.33-1.94-.905-3.879-2.199-6.077-2.199-1.68 2.717-1.81 5.564-.776 8.798m-3.749-23.158c2.198.258 4.267 1.552 5.818 3.105-7.37 6.469-22.238 9.574-19.91 23.029M6.206 18.372c1.68 1.035 3.75 1.164 5.171 2.587m0 .13c3.362-.906 7.24.388 10.214-1.682m.129-.13c-4.395-4.528-6.981-10.48-8.533-16.69m12.8 18.113c2.198-.776 4.525-.905 6.335-2.328m0 0C26.892 13.714 21.203 8.539 21.074.388" id="Shape"/><path d="M6.206 18.372c.905-3.882.13-8.41-1.293-12.162C3.36 6.08 1.55 6.47.776 7.892c-.776 3.234-.259 6.986.517 10.22 1.163 1.553 3.49 1.424 4.913.26m5.171 2.717c-.775 3.234-1.551 7.892.776 10.608 3.49-5.045 12.412-4.01 13.705-10.867m.129-.13c-1.422-.646-2.844-1.164-4.267-1.423" id="Shape"/></g><path d="M411.394 602.51c3.75.648 6.982 3.494 10.86 3.235.26-.517.518-1.035.647-1.552m-23.142 13.584c-6.853 1.423-14.48-6.857-9.697-13.196-8.016-9.704 6.464-10.35 11.377-4.011m.001.13c.904-4.27.258-10.998 6.076-12.291 4.654 2.975 2.715 9.444 3.75 14.102m-4.656 5.563c.389 0 .647.1.906.1m0 .029c1.68-1.552 2.586-3.752 3.878-5.692m-11.635 15.266c3.102-2.846 3.102-7.762 6.852-9.832m-.001.129c-2.197-2.07-4.524-4.399-5.17-7.375" id="Shape" stroke="#81E8B3"/><path d="M399.759 617.777c0 4.14-3.103 9.186.646 12.68 8.662 3.104 12.282-5.564 12.153-12.68-3.103-2.329-3.49-6.34-5.042-9.703m-192.81-443.506c.905 3.105-.776 6.21-2.198 8.927-12.8.388-4.396 11.385-2.198 17.595" id="Shape" stroke="#81E8B3"/><path d="M196.518 177.247c.388-2.458.776-4.916 1.551-7.245 5.689-1.164 11.378-3.623 16.808-5.434m.775-.228c5.172-4.398 3.103-14.748-4.913-10.35m.473 36.454c-3.75.388-10.343 1.035-9.438 6.34 3.232 2.328 8.533 4.915 12.54 3.492-.775-3.234-.129-7.762-3.102-9.832M454.189 28.075c-4.137 1.035-9.438-.518-14.093-.906-5.042 4.14-13.058 2.458-17.97-.905m32.063 1.811c-.259-1.682-.259-3.364-.388-5.175 1.551-1.294 3.879-.906 5.818-.647m0 .129c.388-.13 1.422-.517 2.069-.647" id="Shape" stroke="#81E8B3"/><path d="M461.688 21.735c.129-1.94-1.423-3.234-2.198-4.787 4.137-2.199 9.18 1.294 13.833.777 1.81 1.811 1.552 5.175.518 7.374m-12.153-3.364c4.137.906 8.403 1.424 12.153 3.235m-19.652 3.098c2.973-.352 5.818.82 8.791.352" id="Shape" stroke="#81E8B3"/><path d="M462.98 28.463c3.491 1.164 8.533 1.164 11.12-1.682.128-.647-.13-1.682-.13-1.94m-14.351-2.459c.13 2.717 4.266 3.105 3.361 6.21" id="Shape" stroke="#81E8B3"/><g id="Group" transform="translate(110.895 284.89)" stroke="#81E8B3"><path d="M2.232 19.018c2.457 4.011 6.852 1.294 9.955 0 2.586-2.716.647-6.21-.517-9.056-1.551-2.07-4.654-1.035-6.981-.906-1.94 2.847-6.206 6.728-2.457 9.962M17.23 31.05c1.163 7.634-3.103 15.396.517 22.642m-7.628-23.159C8.567 35.45 5.335 40.236.81 42.823M.164 27.17c2.844 2.457 7.11 1.164 9.825 3.363m.13 0c2.327-1.164 4.913-.259 7.24.518m-.129-.001c17.453-.517 3.62-20.053 6.981-30.144" id="Shape"/></g><path d="M460.395 43.341c1.422-1.293-1.552-2.587-1.035-4.657 2.974-5.175 11.766-2.717 8.792 4.657-4.913 3.752-12.541 1.294-10.86-5.175 1.81 1.035 2.068 3.494 3.103 5.175zm64.127 11.644c4.137-2.328 8.791.26 13.058-.776m-13.058.776c.775 6.081 6.593 12.162 13.058 9.316m-25.729-9.396c4.267-.2 8.533-.5 12.8 0m52.749 47.562c6.465 1.164 13.188-1.164 19.652-.518.647 1.941 2.457 5.434.13 7.116-2.586.388-5.301-.776-7.887 0m186.304 2.2c3.361.905 6.464 2.846 9.955 1.552" id="Shape" stroke="#81E8B3"/><path d="M785.554 112.817c.388-1.682.776-3.234 2.069-4.27-1.681-3.363-3.362-6.986-6.077-9.703m4.008 13.973c1.94.518 4.008.647 5.818 1.423m-.776 6.21c-3.62 8.927-8.791 18.76-12.153 28.334m-5.301-27.945c-2.715 4.14-1.68 8.927-2.715 13.455m2.715-13.455c-3.361-.906-7.757.517-9.825-2.976-.13-1.682.129-3.364.646-4.917m0 0c-.776-3.751-.517-7.633-1.552-11.385m1.552 11.385c3.361-.905 6.723-1.423 9.955-2.716m0 0c1.164-4.917-.646-9.833-3.75-13.844m2.974 24.453c1.035-.389 2.069-.647 2.974-1.294m-.103 0c-.104-2.717-.414-5.563-.414-8.28m0 0c-.517-.389-1.164-.777-1.68-1.165m2.197 9.445c4.654 1.423 9.697 0 14.48.905m0 0c0-.258.1-.517.1-.776m.03 0c-.388-1.811 0-3.752.646-5.434" id="Shape" stroke="#81E8B3"/><path d="M790.726 119.674c2.068-2.2 5.559-.388 7.498-2.587-.258-1.035-.388-2.07-1.034-2.847-1.94-.517-4.008-.905-5.947.13m-212.033-6.34h2.069c.905 2.846 3.361 4.27 3.103 8.28-2.327 1.812-4.525 1.812-6.723.518-.13-3.235-.13-3.493-1.034-5.693 1.939 0 1.292-2.587 2.585-3.105zm-67.359 27.816c-1.163 5.046-2.844 9.833-4.137 14.75m-9.309-31.439c3.879-.389 7.758-1.294 11.766-1.812m-.001 0c-2.456-4.27-4.912-10.48-1.55-14.62" id="Shape" stroke="#81E8B3"/><path d="M508.62 102.726c.258-1.682.258-3.623 1.292-5.046 3.361-.776 7.24.259 10.084-2.2m.13.13c.258-2.588-2.715-4.658-1.81-7.245 2.456-1.294 5.43-.388 7.757-2.07" id="Shape" stroke="#81E8B3"/><path d="M525.944 86.295c2.844-6.728 11.765-7.116 17.97-6.34 2.199 7.116-8.015 4.658-10.6 9.057m-4.267 13.972c.775 3.105 4.395 3.623 5.559 6.34m-16.032 25.358c-.775 5.822-4.525 10.997-4.913 17.078m12.283-65.465c2.068 1.94 5.042 1.423 7.37 2.717m-13.188 6.598c1.163 2.07 3.232 3.234 4.137 5.434m-.129 0c1.034.517 1.81 1.035 2.585 1.552m.001 0s1.68.2 2.327.2m0 .188c2.456-2.458 6.076-4.01 7.24-7.503-.647-2.33-2.845-3.882-2.845-6.47m-24.822 13.715c5.041 2.846 10.86.905 15.514-1.682m-13.964 16.301c.388.26.647.518 1.035.777m0 .129c2.844-2.2 5.171-4.916 8.662-6.21m-.129-.13c1.034-4.01 5.56-5.563 6.981-9.315m-6.981 9.315c2.068 2.07 5.042-.129 7.24 1.424m0 .07c.517-.1.776-.1 1.164-.2m0 0c1.81-1.811 4.913-1.682 6.464-3.881m-6.464 3.881c1.551 2.2 3.62 4.011 4.525 6.728m0 0c6.723 4.787 6.981-5.693 4.525-9.703-.776-.518-1.681-1.035-2.586-.906m-23.401 8.927c.1 1.164.1 2.329.2 3.364m-.071 0c1.94 1.423 4.008 2.717 5.947 3.881m.129 0c1.423 1.682 2.457 3.493 3.75 5.175m0 .129c6.077-.905 7.11-7.762 11.507-10.867m-5.689-6.469c-2.327 4.658-4.525 9.962-9.697 12.032m-5.43 10.35c2.198-.388 4.267-1.423 6.723-1.293m0 .129c1.035-1.294 1.94-2.458 2.715-3.881m-9.955-9.186c-5.042 3.622-3.103 10.35.388 14.231m138.597-6.856c4.396.387 8.533 1.552 12.929 1.552m0 0c.646 1.552.775 3.364 1.551 5.046 3.62 1.293 6.723-3.106 6.594-6.34-2.457-1.423-6.335-1.035-8.145 1.294m59.472 1.423c.776 1.164 2.198 2.2 3.75 1.94.904-.646 1.939-1.552 1.55-2.716-1.421-2.458-3.878-6.987-7.369-5.434-1.292 2.329 1.035 4.27 2.07 6.21m-9.181-26.652c4.267.13 7.758 2.717 11.12 4.917m-15.515-.13c-.517 8.54-7.887 14.879-10.473 22.512 5.948 1.811 13.059-.906 17.713 5.046m-7.24-27.558c-5.172-.388-11.248.518-15.127-3.622.388-13.714 6.465-4.27 15.515-2.2 1.68.388 2.585 0 4.008 1.165m-4.396 4.657c2.327-.647 3.49-2.587 4.396-4.657m-297.363 43.729c1.422 1.035 3.362 2.2 3.49 4.01-2.068 3.235-9.437 1.165-8.92-2.975 1.422-1.035 3.75-.259 5.43-1.035m0 0c-1.163-5.175-7.886-8.28-7.11-14.231m-.001-.001c-.517-10.996 10.731-4.269 12.93 1.812m-.001 0c5.947-.776 11.248 2.458 16.937 3.105m-29.866-4.917c4.008 1.036 9.31 6.081 12.93 1.812m370.151 46.188c-5.301 5.434-5.818 13.455-5.948 20.57m-13.316-11.385c.13-.517.388-.776.646-1.293 5.56 0 12.67-2.717 11.378-9.833m0 .129c-2.586-.129-5.56-1.94-5.43-4.916m5.43 4.916c.905-.388 1.939-.776 2.973-1.035m-.129 0c1.68-3.105-.388-6.34-.259-9.703m0 0l-1.163-.776m-6.852 6.598c2.456-3.105 1.81-8.15-2.198-9.833-3.62 2.847-1.552 8.28 2.198 9.833m8.274 3.881c1.422 1.035 2.844 2.07 4.396 2.847m0 0c3.103-4.011.775-10.48-.388-15.137-1.94-.26-2.586 2.199-4.267 2.587m-205.18 16.82v-.389c2.069-1.423 5.43-1.811 7.758-.647 1.034 4.01 2.585 8.28 1.163 12.42m-168.591-5.88c.775-.2 1.68-.2 2.456-.2m-12.153 7.504c1.94-4.4 8.404-2.717 9.697-7.246m0 0c-5.818-3.493-12.8-4.916-19.394-6.986m21.85 6.728c3.879 3.88 8.145 11.644 14.222 10.35 2.973-5.046-2.457-11.903-7.24-13.714a49.284 49.284 0 0 0-6.982 3.364m-12.153 7.504c-5.3-1.812-11.248-6.081-16.807-3.494 3.361 5.046 6.593 10.997 9.696 16.302 5.56.647 10.731.776 16.032-1.94 0-5.176-6.465-6.987-8.921-10.868m174.022 29.368c2.068-.517 4.525-.647 6.593 0 2.457 5.563-1.68 11.127 1.681 16.431m-8.274-16.431c.646 7.375.646 14.62 2.844 21.606m-2.844-21.606c-3.233-1.294-6.853-.517-10.085-1.164M0 465.241c.259-.776.905-1.552 1.68-1.811h1.164c4.138 3.881.517 12.29 5.818 15.525 7.628-4.01 1.552-13.196.647-19.406m69.945 17.336c1.292-5.434 6.464-6.857 11.248-6.08 1.034-2.33.905-5.305.517-7.893m0 0c-1.94 0-3.75-.646-5.43-1.423-.647-2.07-1.164-5.045 1.163-6.34 1.035-.258 2.069-.258 2.974-.775m2.456 3.493c7.758-.647 7.628-12.68-.388-11.774-3.361 1.424-2.456 5.434-2.068 8.151m1.293 8.668c.646-1.552 1.293-3.234 1.163-5.045m0 0a8.623 8.623 0 0 0-2.456-3.623m-36.847 18.242c-3.491-6.857-2.974-19.665 7.886-17.207m0 .001c.13-2.847.776-6.6 4.655-5.564m0 0c.517-1.035.905-1.682 1.551-2.2 2.715-.776 5.172 1.682 6.077 4.011" id="Shape" stroke="#81E8B3"/><path d="M60.765 455.28c1.552 1.81 1.552 4.657 3.75 6.08 2.198-.647 4.525-1.94 5.171-4.27a42.026 42.026 0 0 1-4.266-7.374m-35.684 22.253c2.586 3.881 6.465 9.833 11.378 4.787.129-2.846-.518-5.693-1.94-8.15m-9.954 4.01c-2.587-.518-5.043.776-7.5.517-.905-.905-1.68-1.94-2.327-2.975 1.552-2.459 4.525-2.717 7.111-2.847m.646-1.035c-.129-3.493-2.585-6.857-5.171-9.315m7.887 14.49c.129-2.2-1.293-3.881-2.716-5.433m390.838-223.823c.388 5.045 5.947 7.115 8.145 10.997m-8.145-10.997c2.069-.647 5.172-1.035 5.56-3.752-1.94-2.976-8.016-5.305-10.214-1.424 1.163 2.07 3.103 3.494 4.654 5.176m166.394-2.847c2.198 12.68-12.929 8.54-8.275-.517 3.62-1.035 5.818-1.812 8.275.517zm5.042 42.824c-2.198 6.34-10.73 5.175-15.127 8.41 1.681 3.105 6.853 4.657 6.594 9.315m-8.662-20.183c5.947-.388 11.506 1.682 17.195 2.588m0-.13c.13-.13.259-.13.388-.259.259-.388.646-1.035.905-1.552-5.43-5.563-12.929-10.22-17.971-17.078m139.502 70.899c2.585.388 4.266 2.587 4.913 5.046-1.035 1.164-2.845 1.035-4.267 1.423-1.94-.518-2.327-3.105-2.973-4.787.258-.647 1.422-1.294 2.327-1.682m43.828 47.352c4.008-.13 8.146-3.364 12.153-1.552 4.008 10.867-12.023 13.584-13.575 2.975.13-.517.905-1.035 1.422-1.423m21.333 12.55c.388.103.776.31 1.163.414m0 .074c.518-.1 1.164-.1 1.681-.1m0 0c.776-1.035 1.552-2.07 2.586-2.976m0 0c.517-3.622 1.164-7.245-.517-10.738m.517 10.738c2.844.776 8.274-.906 8.274 3.493-.258.26-.905.388-1.292.518m-21.979.388c2.973-1.94 6.593-.13 9.567-1.811m0 0c-.647-4.4 2.198-9.574-.13-13.585" id="Shape" stroke="#81E8B3"/><path d="M767.842 395.895c-3.75-.388-9.05-2.07-11.766 1.164-.905 2.33 1.035 4.4 1.81 6.34-.258 2.717-2.844 4.399-2.973 7.116 1.034 4.269 5.042 6.34 8.662 8.28 9.438-4.528 7.24-14.75 4.267-22.9m10.73-1.294c0 5.952 1.552 12.032 3.362 17.595.776.389 2.069.26 2.715-.129 2.069-5.692 1.034-14.102-4.525-17.725m-53.396-12.032c.259.26.259.647.259 1.035-.647.388-1.552.26-2.198.26-8.663-5.176-23.401-1.683-27.41-14.491m4.784 13.456c-1.422 2.07-1.293 2.845-2.068 5.174-7.111.518-10.473-2.587-12.412-7.245 1.68-11.385 12.412-4.27 14.48 2.07zm-5.43 15.266c-.13-1.424-2.068-2.2-1.94-3.752 8.922-5.175 19.782-6.34 29.996-7.245m-28.056 10.997c-4.137 4.01-1.94 10.22-1.422 14.878 2.198.388 3.75-1.553 4.913-3.105.646-3.105-.517-6.21-.13-9.315-1.163-.776-2.068-1.812-3.36-2.458m24.176 4.398c-1.293-1.423-2.198-3.363-4.137-4.01 0-1.294 1.422-1.94 1.68-3.105 1.423-.647 3.491-.26 4.526.776 0 2.07.129 5.304-2.069 6.34" id="Shape" stroke="#81E8B3"/><path d="M720.91 402.234c-1.422.906-2.974 1.682-4.396 2.459.259 3.105 2.845 5.563 2.198 8.797-.517.388-1.422.388-1.94-.13m2.974 34.157v-.777c-4.007-3.234-5.559-8.15-5.559-13.196m-29.737 18.63c7.887 2.458 16.55 2.458 24.695 1.035" id="Shape" stroke="#81E8B3"/><path d="M709.016 453.21c1.292-.777 2.973-.777 4.137-1.812.258-6.34-4.913-11.256-8.016-16.431m3.879 18.243c3.49 10.09-12.67 13.584-7.628 23.675m5.947-2.587c.646.776 1.81 1.164 2.844 1.035 3.103-5.305 5.56-11.386 8.275-16.949m-23.531 8.022c-2.327 4.14-11.636 1.94-14.997-.518.258-3.364.129-4.14 0-7.763 6.464-4.398 15.385-.258 14.997 8.28zm13.963 92.504c-9.438-10.48-3.878-34.543-8.662-47.222-.259-.777-1.293-1.035-1.81-1.294m-9.309 25.876c2.069 1.034 3.62 2.975 4.784 4.916 0 3.105-1.552 6.21-3.232 8.668m-1.552-13.584c-3.361 1.94-8.274-1.682-10.084-4.658 1.68-2.329 3.232-5.046 5.171-7.375m4.913 12.033c-.388-1.294-1.034-2.459-1.293-3.752 5.818-4.787 4.396-11.903-.646-16.82m22.496-3.622c.259-.259.388-.259.517-.388.13 0 .259-.13.388-.13 4.266 5.046.905 12.938 1.293 19.019-.259.388-.647.647-1.034 1.035m-90.502 47.093c3.62 2.2 8.145.259 11.507 2.847m-.001 0c-.775 3.234-3.232 4.14-5.817 5.175-.518 5.045-.388 12.032 4.137 15.525 12.929 1.94 12.929-20.442 1.68-20.7m72.273 9.962c5.43.388 11.506 1.682 16.548 3.234.13 3.752-2.327 7.504-5.3 9.833m-.001-.001c.2 1.424 0 2.847 0 4.27m-14.609-5.951c-3.62-1.165-6.594-3.752-9.05-6.598m9.05 6.598c2.198-1.811 4.913-2.588 7.499-3.881m-.13 0c-.517-2.976-3.878-4.4-4.137-7.504m.13 0c-4.913-2.976-9.18-6.728-13.059-11.127m17.066 18.631c3.103.776 4.655 3.88 7.111 5.563m-14.48-1.682c1.034 3.493 5.43 3.364 6.982 6.469m0-.13c2.456 1.165 5.171.26 7.628-.517" id="Shape" stroke="#81E8B3"/><path d="M707.723 609.238c-4.138 2.458-10.86 1.941-12.8 7.375.517 16.301 14.868 4.657 20.04-2.458.517-1.682 1.034-3.623.388-5.305v-.13m-124.375-5.174c2.197-9.057-10.214-15.267-7.24-25.876 2.844-1.035 6.205-1.035 9.308-1.552.647.517.776.905.905 1.552-.13 3.623-5.43 3.623-4.654 7.504m98.129 42.566c3.362 2.716 8.275 2.975 9.956 7.762m-51.974 5.046c-5.818-.777-11.895-.518-17.583-2.717m17.583 2.717c-.388-3.364-1.94-6.599-3.103-9.704m0 0c-4.525 1.294-9.955 1.812-14.351-.517m14.351.517c.776-.647 1.551-1.552 2.586-1.682 3.361.906 5.3 4.011 8.016 5.822.905 2.976-.13 6.728-3.103 8.151m0 0c-.13 2.07-2.845 2.329-3.233 4.14.905 2.976 1.81 7.116-2.585 7.504-1.164-.517-2.069-1.552-3.103-2.2" id="Shape" stroke="#81E8B3"/><path d="M640.88 652.58c-2.068.388-4.266-.259-6.205-1.165.13-1.552.646-3.234 1.81-4.398.905-.389 2.069-.389 2.844.129 1.422 1.423 2.069 3.493 1.552 5.434m4.525-12.032c1.551.776 2.973 1.682 4.396 2.587m-72.014 15.785c5.43 2.328 11.507 1.422 17.066 3.492m-17.066-3.492c-2.327-.906-4.654-2.718-7.24-2.2-1.551 2.587 1.293 6.34 3.49 7.762 1.682-1.552 2.199-3.88 3.75-5.563" id="Shape" stroke="#81E8B3"/><path d="M221.908 483.172s.245-6.643.247-7.65c.001-1.007-.288-3.98-.288-3.98" id="Path-434"/><path d="M223.278 458.59l4.84-.474" id="Path-437" stroke="#81E8B3"/><g id="Group" transform="rotate(-90 294.41 188.416)" stroke="#81E8B3"><path d="M2.327 34.803c14.48-.906 18.1-18.113 29.349-24.582M19.91 59.772c2.457-6.857 3.491-13.326-.517-19.277-1.422-2.2-4.783-10.091 1.94-10.48 2.327.777 3.49 3.235 4.525 5.305m1.034 20.442c-2.715 1.423-1.293 5.951.517 7.504 2.974-1.294 3.232-6.987-.517-7.504M0 7.375c6.077-.13 11.765-3.235 17.712-3.882m0 0c.647 1.94.518 4.658 2.457 5.822 4.525.518 8.016-3.493 7.887-7.892-3.362-1.811-7.111 1.165-10.344 2.07" id="Shape"/></g></g></g></g></g></g></svg>