<svg width="1173" height="410" viewBox="0 0 1173 410" xmlns="http://www.w3.org/2000/svg"><title>bg-hago</title><g id="Page-1" fill="none" fill-rule="evenodd"><g id="bg-hago" transform="translate(-5 -60)" stroke="#81E8B3"><path id="Rectangle-1-Copy" d="M39 61h98v123H39z"/><path id="Rectangle-1-Copy-2" d="M49 71h98v123H49z"/><path id="Rectangle-1-Copy-3" d="M59 81h98v123H59z"/><g id="imagen-post2" transform="translate(207 318)" stroke-linejoin="round"><path d="M83.364 82.394c0 3.198.427 6.842-5.166 6.842-3.977 0-9.209-1.356-9.209-7.332 0-5.977 2.725-10.236 9.21-10.236 11.305 0 11.965 5.36 13.369 10.236 1.404 4.874-2.207 16.918-13.37 16.918-11.162 0-19.903-7.077-19.903-16.918 0-9.842 6.475-22.954 19.903-22.954 13.43 0 25.974 6.791 25.974 22.954 0 16.162-15.078 27.361-25.974 27.361-10.993 0-31.809-3.949-31.809-27.361C46.39 58.49 60.12 45.07 78.2 45.07c18.078 0 42.067 6.51 42.067 36.834 0 30.322-16.182 46.96-42.068 46.96-25.885 0-52.726-19.599-52.726-46.96 0-27.362 26.202-54.042 52.726-54.042 31.295 0 63.07 14.3 63.07 54.042 0 39.741-24.309 68.723-63.07 68.723-38.76 0-77.342-21.47-77.342-68.723C.856 36.437 39.41.627 78.198.627c40.619 0 82.109 21.051 82.109 81.322 0 60.27-70.11 22.795-82.109 0 0-4.715 5.166-2.753 5.166.445z" id="Path-1"/></g><path id="Path-5" d="M180 137h107.118v180.512"/><path id="Path-5-decoration-1" d="M190.8 140l-10.8-3 10.8-3"/><path id="Path-5-Copy" d="M98 204v180.512h107.118"/><path id="Path-5-Copy-decoration-1" d="M205.118 384.512l-10.8-3v6l10.8-3z"/><path d="M5.5 337.5L542.734 75" id="Path-7"/><path id="Rectangle-1-Copy-6" d="M849 61h98v123h-98z"/><path id="Rectangle-1-Copy-5" d="M859 71h98v123h-98z"/><path id="Rectangle-1-Copy-4" d="M869 81h98v123h-98z"/><g id="imagen-post2-copy" transform="translate(1017 318)" stroke-linejoin="round"><path d="M83.364 82.394c0 3.198.427 6.842-5.166 6.842-3.977 0-9.209-1.356-9.209-7.332 0-5.977 2.725-10.236 9.21-10.236 11.305 0 11.965 5.36 13.369 10.236 1.404 4.874-2.207 16.918-13.37 16.918-11.162 0-19.903-7.077-19.903-16.918 0-9.842 6.475-22.954 19.903-22.954 13.43 0 25.974 6.791 25.974 22.954 0 16.162-15.078 27.361-25.974 27.361-10.993 0-31.809-3.949-31.809-27.361C46.39 58.49 60.12 45.07 78.2 45.07c18.078 0 42.067 6.51 42.067 36.834 0 30.322-16.182 46.96-42.068 46.96-25.885 0-52.726-19.599-52.726-46.96 0-27.362 26.202-54.042 52.726-54.042 31.295 0 63.07 14.3 63.07 54.042 0 39.741-24.309 68.723-63.07 68.723-38.76 0-77.342-21.47-77.342-68.723C.856 36.437 39.41.627 78.198.627c40.619 0 82.109 21.051 82.109 81.322 0 60.27-70.11 22.795-82.109 0 0-4.715 5.166-2.753 5.166.445z" id="Path-1"/></g><path id="Path-5-Copy-3" d="M990 137h107.118v180.512"/><path id="Path-5-Copy-2" d="M908 204v180.512h107.118"/><path d="M660 425.457L1177.5 170.5" id="Path-7-Copy"/></g></g></svg>