<svg width="699" height="396" viewBox="291 136 699 396" xmlns="http://www.w3.org/2000/svg"><path d="M879.5 468.505c32.125-8.294 63.744-24.784 83.748-51.965 42.83-58.205 27.882-144.203-27.934-188.517-53.066-42.13-125.772-27.482-187.946-32.302-45.163-3.5-84.338-25.46-126.69-39.25-63.245-20.59-132.42-25.32-196.903-7.22-48.823 13.71-91.62 49.27-113.22 95.09-45.704 96.954-3.747 232.254 100.61 271.463 58.646 22.035 125.03 17.164 182.53-5.823 35.838-14.33 68.832-37.93 107.614-44.76 36.02-6.348 71.94 5.092 107.38 8.76 28.66 2.97 42.93 1.732 70.8-5.466" stroke-opacity=".376" stroke="#00F" fill="none"/></svg>