<svg width="351" height="359" viewBox="0 0 351 359" xmlns="http://www.w3.org/2000/svg"><title>mountain</title><g id="Layout-(ipad)" fill="none" fill-rule="evenodd"><g id="Home" transform="translate(-929 -1402)" stroke-width="16" stroke="#81E8B3"><g id="wrap"><g id="section-pienso" transform="translate(289 1410)"><g id="mountain" transform="rotate(-90 492 -149)"><path d="M283.79 326.968c1.028 6.169 0 13.366 2.056 19.535 3.085 4.113 15.424 5.141 20.565 3.085 19.536-13.367 23.648-38.043 35.987-56.55 1.028-5.141-2.057-14.395-4.113-18.507-15.423-7.198-30.846-17.48-48.326-17.48-13.366 21.592-14.395 44.212-6.169 69.917m-29.818-184.044c17.48 2.056 33.93 12.338 46.27 24.676-58.609 51.409-176.852 76.085-158.345 183.016M46.274 142.924c13.367 8.225 29.818 9.253 41.128 20.563m0 1.028c26.734-7.197 57.58 3.085 81.229-13.366m1.028-1.029c-34.96-35.985-55.523-83.282-67.862-132.634M203.59 161.43c17.48-6.168 35.987-7.196 50.382-18.506m0 0C210.787 105.909 165.546 64.782 164.518.007" id="Shape"/><path d="M46.274 142.924c7.197-30.846 1.028-66.832-10.282-96.65-12.339-1.027-26.734 2.057-32.903 13.367-6.17 25.705-2.056 55.522 4.113 81.226 9.254 12.338 27.762 11.31 39.072 2.057m41.128 21.591c-6.169 25.705-12.338 62.72 6.17 84.311 27.761-40.099 98.707-31.874 108.99-86.367m1.028-1.029c-11.31-5.14-22.62-9.253-33.931-11.31" id="Shape"/></g></g></g></g></g></svg>