<svg xmlns="http://www.w3.org/2000/svg" width="667" height="375" viewBox="0 0 667 375" xmlns:xlink="http://www.w3.org/1999/xlink"><defs><linearGradient id="a" x1="50%" x2="50%" y1="3.961%" y2="100%"><stop stop-color="#FDFDFD" offset="0%"/><stop stop-color="#CBCBCB" offset="100%"/></linearGradient><linearGradient id="b" x1="50%" x2="50%" y1="3.961%" y2="100%"><stop stop-color="#B2E198" offset="0%"/><stop stop-color="#04A171" offset="100%"/></linearGradient><path id="c" d="M0 17.986h86V.077H0z"/><path id="e" d="M18.015.003l-6.577 8.903 6.352 8.512h-4.649l-4.035-5.422-4 5.422H.489l6.32-8.512L.226.003h4.655l4.225 5.781L13.361.003h4.654"/></defs><g fill="none" fill-rule="evenodd"><path fill="#FFF9F4" d="M0 0h667v375H0z"/><path fill="#B7F2D4" d="M304.516 212.829c3.894 16.717 9 41.802-10.597 41.105 0 .035 46.316-.506 83.881 0-18.238-4.349-16.28-26.56-12.862-41.105h98.806c6.081 0 11.004-4.925 11.004-11V61c0-6.083-4.927-11-11.004-11H197.752c-6.08 0-11.004 4.925-11.004 11v140.828c0 6.083 4.927 11 11.004 11h106.764zM199.626 64.057H461.87v134.714H199.626V64.057z"/><g transform="translate(118 95)"><circle cx="23.5" cy="23.5" r="23.474" fill="url(#a)"/><ellipse cx="23.474" cy="23.526" fill="url(#b)" rx="21.463" ry="21.463"/><path fill="#F2F8F6" d="M18.443 20.213c-.253.39-.497.78-.732 1.172a30.19 30.19 0 0 1-.677-2.09 30.257 30.257 0 0 1 2.18-.228c-.26.373-.518.755-.771 1.146zm18.935 1.372c-.758-.728-1.843-1.395-3.223-1.983-2.74-1.167-6.41-1.923-10.335-2.129a43.112 43.112 0 0 0-1.383-.05c2.997-3.577 5.89-5.48 7.576-5.544.357-.014.656.057.891.21.789.512 1.008 2.102.586 4.252a.783.783 0 0 0 1.537.302c.726-3.697-.29-5.232-1.27-5.868-.51-.333-1.118-.488-1.804-.462-2.592.099-6.224 2.863-9.539 7.124a33.384 33.384 0 0 0-3.76.335 19.48 19.48 0 0 1-.298-1.748c-.298-2.45.067-4.188.975-4.651.146-.075.305-.118.487-.131.811-.061 1.956.484 3.22 1.534a.783.783 0 0 0 1.002-1.205c-1.625-1.35-3.085-1.986-4.34-1.892-.387.03-.751.13-1.081.298-.843.43-1.42 1.253-1.713 2.447-.251 1.023-.287 2.298-.106 3.79.072.589.177 1.203.311 1.835a19.13 19.13 0 0 0-2.55.71c-3.364 1.215-4.14 2.816-4.2 3.945-.056 1.079.497 2.684 3.448 4.206a.783.783 0 0 0 .718-1.392c-1.698-.876-2.646-1.871-2.6-2.732.063-1.213 2.095-2.496 5.558-3.22a33.19 33.19 0 0 0 1.226 3.582c-1.244 2.336-2.152 4.638-2.623 6.685-.336 1.464-.435 2.734-.292 3.776.166 1.218.653 2.097 1.447 2.613.405.263.95.468 1.667.468 1.038 0 2.437-.432 4.285-1.75a.783.783 0 1 0-.91-1.276c-1.822 1.3-3.388 1.765-4.188 1.244-.854-.555-1.035-2.32-.482-4.724.366-1.593 1.02-3.359 1.906-5.179.193.412.393.825.603 1.236 1.784 3.504 3.968 6.553 6.15 8.585 1.098 1.023 2.149 1.744 3.122 2.142.591.24 1.146.361 1.66.361.478 0 .92-.103 1.326-.31.813-.414 1.379-1.197 1.681-2.325.259-.966.317-2.171.173-3.582-.283-2.774-1.332-6.158-2.952-9.527a.783.783 0 0 0-1.412.679c1.544 3.21 2.54 6.409 2.805 9.007.234 2.285-.143 3.912-1.007 4.353-.907.462-2.525-.264-4.329-1.944-2.05-1.91-4.118-4.805-5.821-8.15a38.657 38.657 0 0 1-1.074-2.291 39.16 39.16 0 0 1 2.758-4.254 36.593 36.593 0 0 1 2.533.052c3.747.197 7.228.91 9.804 2.006 2.266.965 3.587 2.15 3.533 3.167-.045.865-1.095 1.758-2.881 2.452a.783.783 0 0 0 .567 1.46c3.103-1.205 3.822-2.748 3.879-3.83.05-.946-.375-1.856-1.26-2.707z"/><path fill="#F1F8F3" d="M21.884 23.708a1.712 1.712 0 1 0 3.424.001 1.712 1.712 0 0 0-3.424-.001"/></g><path fill="#264DE4" d="M416.888 147.816l-21.097-5.849-4.701-52.657h51.658l-4.706 52.649z"/><path fill="#2965F1" d="M434.013 138.606l4.022-44.991h-21.116v49.724z"/><path fill="#EBEBEB" d="M401.868 113.145l.579 6.458h14.472v-6.458zm-1.165-13.071l.588 6.458h15.628v-6.458zm16.216 29.844l-.028.007-7.202-1.942-.461-5.15h-6.492l.906 10.14 13.248 3.672.029-.008z"/><path fill="#000" d="M403.248 75h7.832v3.271h-4.557v3.271h4.557v3.271h-7.832zm9.399 0h7.833v2.844h-4.558v.569h4.558v6.542h-7.833v-2.986h4.557V81.4h-4.557zm9.399 0h7.833v2.844h-4.557v.569h4.557v6.542h-7.833v-2.986h4.557V81.4h-4.557z"/><path fill="#FFF" d="M431.93 113.145l1.167-13.071h-16.2v6.458h9.113l-.589 6.613h-8.524v6.458h7.963l-.75 8.376-7.213 1.944v6.719l13.258-3.669.097-1.091 1.52-17.003z"/><path fill="#D34A47" d="M254.743 172.168l.763-12.717 2.107-3.597s-4.796 1.962-12.826 1.962c-8.03 0-12.753-1.926-12.753-1.926l2.362 3.924.835 12.354c0 1.324 4.368 2.398 9.756 2.398s9.755-1.074 9.755-2.398m-2.407-59.385l1.602-6.332 8.87-9.334-2.337-1.992-9.392 9.944-1.86 7.564c-1.347-.045-2.754-.07-4.2-.07-9.892 0-17.91 1.128-17.91 2.518s8.018 2.517 17.91 2.517c9.89 0 17.908-1.127 17.908-2.517 0-1.024-4.348-1.905-10.59-2.298"/><path fill="#FFF" d="M251.403 116.328s-.347.078-1.367.083c-1.02.004-1.746-.007-2.034-.27a.456.456 0 0 1-.12-.306c0-.18.13-.287.292-.354l.155.243c-.067.023-.106.05-.106.08 0 .137 1.044.231 1.843.22.799-.009 1.764-.075 1.765-.21 0-.041-.073-.08-.2-.11l.154-.24c.207.064.387.188.387.403-.002.365-.467.42-.769.461"/><path fill="#D34A47" d="M262.79 97.135c.223-.257-.115-.916-.756-1.471-.64-.555-1.34-.796-1.564-.539-.223.258.115.917.756 1.472.64.555 1.341.796 1.564.538m-8.474 43.971c-.21-2.023 4.424-4.952 3.235-5.046-2.56.146-3.835 3-5.123 5.99-.472 1.096-2.088 5.767-3.147 5.192-1.06-.575 1.373-4.416 2.055-6.698-.787.577-3.672 2.818-4.415.72-1.196 1.015-3.75 1.565-3.462-1.102-.636 1.126-2.063 2.699-3.776 2.045-2.25-.858 1.304-8.024 2.187-7.662.884.361-.178 1.994-.456 2.627-.612 1.396-1.319 3.15-.846 3.508.808.616 3.009-2.326 3.058-2.391.412-.544 1.584-4.102 2.53-3.693.945.408-2.358 5.106-1.123 6.038.249.188 1.268-.116 1.888-.787.4-.434.263-1.394 1.6-4.583 1.337-3.188 2.528-7.158 3.445-6.856.917.303.161 2.34-.168 3.1-1.543 3.565-4.212 9.456-2.954 9.01 1.26-.446 1.915-.472 3.147-1.914 1.233-1.443 1.176-3.819 1.997-3.768.822.05.684.812.485 1.392.809-.925 3.833-2.874 4.563-.944.865 2.285-4.327 5.586-3.032 5.418 1.262-.165 3.306-1.46 4.18-2.637l2.402-21.604s-2.418 2.001-17.801 2.001c-15.384 0-17.552-1.959-17.552-1.959l2.046 19.719c1.086-3.086 3.665-9.329 7.73-9.12 1.848.096 4.316 3.656 2.202 3.777-.895.05-.986-1.777-2.045-2.046-.765-.194-1.83.428-2.518 1.102-1.372 1.343-4.323 6.641-3.933 9.283.496 3.368 4.647-1.17 5.35-2.518.494-.949.828-3.76 1.91-3.466 1.081.295-.095 3.197-.879 5.763-.88 2.881-1.344 5.92-2.448 5.57-1.104-.349.695-4.068.63-4.72-1.038.958-2.95 3.382-5.396 2.182l1.27 12.245s3.377 2.668 13.55 2.668c10.172 0 13.674-2.626 13.674-2.626l1.577-14.183c-1.29 1.257-5.376 3.489-5.637.973"/><path fill="#4A4A4A" d="M355.07 184.338l9.724-16.002 4.087-3.446-13.811 19.448zm-13.052-15.102h19.703l-9.7 17.877-10.003-17.877zm-6.87-4.346l4.087 3.446 9.723 16.002-13.81-19.448zm2.276-8.92l6.273 3.145-4.492 6.947-6.467-4.834 4.686-5.257zm8.323-3.875h12.662l6.234 2.749-6.26 2.727H345.72l-6.197-2.725 6.224-2.751zm16.456 14.866H341.45l4.13-7.337 12.37.03 4.252 7.307zm9.088-5.733l-6.648 4.974-4.727-7.083 6.688-3.148 4.687 5.257zm-4.312-6.994L359.627 151h-15.242l-7.306 3.294-6.079 6.752L352.021 189l21.022-27.954-6.064-6.812z"/><g transform="translate(79 52)"><mask id="d" fill="#fff"><use xlink:href="#c"/></mask><path fill="#393937" d="M14.59 9.04c0-.79-.142-1.514-.427-2.17a5.072 5.072 0 0 0-1.168-1.686 5.336 5.336 0 0 0-1.737-1.092 5.81 5.81 0 0 0-2.137-.39c-.911 0-1.705.166-2.378.498a5.39 5.39 0 0 0-1.695 1.281 5.187 5.187 0 0 0-1.011 1.726 5.57 5.57 0 0 0-.328 1.833 5 5 0 0 0 .399 1.968c.266.63.636 1.187 1.11 1.672a5.486 5.486 0 0 0 1.71 1.173 5.25 5.25 0 0 0 2.165.445c.778 0 1.5-.14 2.165-.418a5.581 5.581 0 0 0 1.737-1.133 5.295 5.295 0 0 0 1.168-1.671 4.936 4.936 0 0 0 .427-2.036zm.06 8.685v-2.098s-.907 1.025-2.19 1.6c-1.057.473-2.156.69-3.336.69-1.448 0-2.741-.25-3.88-.75-1.137-.5-2.094-1.163-2.87-1.99a8.523 8.523 0 0 1-1.769-2.83A9.136 9.136 0 0 1 0 9.073c0-1.04.186-2.09.559-3.152.372-1.06.975-1.974 1.73-2.842.755-.867 1.702-1.576 2.84-2.126C6.267.402 7.572.077 9.124.077c1.2 0 2.295.288 3.352.719 1.166.476 2.182 1.593 2.182 1.593V.3h3.712v17.426h-3.72zM43.563.345v9.243c0 1.036.029 1.996.543 2.796.743 1.155 1.895 1.975 3.402 1.975 1.618 0 3.149-.952 3.769-2.39.285-.659.337-1.537.337-2.474V.345h3.656V17.76h-3.675v-1.427s-.416.645-1.256 1.03c-.925.424-1.726.637-2.844.637-1.013 0-1.942-.15-2.786-.45a8.09 8.09 0 0 1-2.38-1.358c-.74-.62-1.423-1.426-1.823-2.46-.401-1.033-.659-1.852-.659-4.144V.345h3.716M59.309 17.72V.366l3.732.007v1.55s.272-.642 2.098-1.234C66.362.29 68.053.373 68.264.373v3.674c-.253 0-2.873-.153-4.22 1.232-.64.657-.932 1.287-.993 3.046v9.395h-3.742M82.01 7.57c-.043-.62-1.717-3.721-5.028-3.721-3.27 0-5.045 3.101-5.088 3.721H82.01zm-10.056 3.55c.212.827 1.773 3.191 4.73 3.378 1.538.097 2.716-.394 3.674-1.293l4.115.81c-.913 1.423-3.41 3.556-6.388 3.822-4.142.37-6.811-1.483-8.277-3.407-1.664-2.185-1.83-4.537-1.83-5.186 0-1.281.164-2.5.644-3.606a8.98 8.98 0 0 1 1.95-2.868A8.94 8.94 0 0 1 73.45.878a9.14 9.14 0 0 1 3.533-.683 8.96 8.96 0 0 1 3.421.667 9.255 9.255 0 0 1 2.878 1.845 8.864 8.864 0 0 1 1.983 2.79c.49 1.076.735 2.244.735 3.504 0 .29-.011.61-.032.961-.021.352-.164 1.054-.185 1.157h-13.83z" mask="url(#d)"/><g transform="translate(20.263 .462)"><mask id="f" fill="#fff"><use xlink:href="#e"/></mask><use fill="#2190C3" xlink:href="#e"/><g mask="url(#f)"><path fill="#6EB443" d="M9.849 17.418h8.166v-6.817H9.849z"/><path fill="#D92377" d="M8.457 17.418h5.829v-2.964H8.457z"/><path fill="#6EB443" d="M3.412 8.337h9.886V.003H3.412z"/><path fill="#2190C3" d="M.226 5.336h3.228V.003H.226z"/><path fill="#D92377" d="M1.679 4.25h2.986V1.425H1.679z"/><path fill="#2190C3" d="M13.328 4.987h4.687V.003h-4.687z"/><path fill="#D92377" d="M9.001 9.849h5.83V4.574h-5.83zM.409 17.418h6.464v-4.416H.409z"/><path fill="#2190C3" d="M3.702 17.418h2.477v-1.831H3.702z"/><path fill="#6EB443" d="M4.529 12.32h3.686V8.9H4.529z"/></g></g></g><path fill="#E44D26" d="M505.271 42.376l-4.072 45.532-18.304 5.065-18.253-5.058-4.068-45.539z"/><path fill="#F16529" d="M482.922 89.101l14.791-4.093 3.479-38.909h-18.27z"/><path fill="#EBEBEB" d="M475.007 57.27h7.915v-5.586h-14.031l.134 1.499 1.376 15.391h12.521v-5.585h-7.404zm1.261 14.097h-5.617l.784 8.769 11.462 3.176.025-.007v-5.811l-.024.007-6.232-1.68z"/><path fill="#000" d="M464.733 30h2.843v2.804h2.601V30h2.844v8.492h-2.843v-2.844h-2.602v2.844h-2.843V30zm12.028 2.816h-2.504V30h7.852v2.816h-2.505v5.676h-2.843v-5.676zM483.355 30h2.965l1.824 2.984L489.966 30h2.966v8.492H490.1v-4.209l-1.956 3.019h-.049l-1.958-3.019v4.209h-2.782zm10.993 0h2.844v5.685h3.999v2.807h-6.843z"/><path fill="#FFF" d="M482.903 68.574h6.89l-.649 7.244-6.241 1.681v5.811l11.471-3.174.084-.943 1.315-14.704.137-1.5h-13.007zm0-11.318v.014h13.516l.112-1.256.255-2.831.134-1.499h-14.017z"/><path fill="#464342" d="M499 128.397c0 8.963 5.21 16.71 12.763 20.38l-10.802-29.596a22.56 22.56 0 0 0-1.96 9.216zm37.933-1.143c0-2.799-1.006-4.737-1.868-6.246-1.148-1.865-2.224-3.445-2.224-5.31 0-2.082 1.58-4.02 3.803-4.02.1 0 .196.013.293.019a22.562 22.562 0 0 0-15.292-5.945c-7.91 0-14.871 4.06-18.92 10.207.531.016 1.032.027 1.457.027 2.369 0 6.035-.287 6.035-.287 1.221-.072 1.365 1.721.145 1.865 0 0-1.226.145-2.591.216l8.246 24.529 4.956-14.863-3.528-9.667a40.623 40.623 0 0 1-2.375-.216c-1.22-.071-1.077-1.937.143-1.865 0 0 3.74.288 5.965.288 2.368 0 6.035-.288 6.035-.288 1.222-.072 1.365 1.721.145 1.865 0 0-1.23.145-2.592.216l8.184 24.343 2.259-7.548c.979-3.132 1.724-5.382 1.724-7.32zm-14.89 3.123l-6.795 19.744a22.644 22.644 0 0 0 13.917-.362c-.06-.096-.115-.2-.16-.312l-6.962-19.07zm19.473-12.845c.097.721.152 1.496.152 2.329 0 2.298-.429 4.88-1.722 8.11l-6.917 20c6.733-3.926 11.26-11.22 11.26-19.574a22.512 22.512 0 0 0-2.773-10.865zM521.646 102c-14.556 0-26.398 11.841-26.398 26.397s11.842 26.397 26.397 26.397c14.555 0 26.4-11.84 26.4-26.397C548.043 113.84 536.2 102 521.644 102zm0 51.585c-13.888 0-25.188-11.3-25.188-25.188 0-13.888 11.3-25.187 25.187-25.187 13.888 0 25.186 11.299 25.186 25.187 0 13.888-11.298 25.188-25.186 25.188z"/><path fill="#2F2707" d="M532.746 184.121c-1.372 0-2.394.674-2.394 2.295 0 1.222.674 2.07 2.32 2.07 1.395 0 2.343-.823 2.343-2.12 0-1.471-.848-2.245-2.27-2.245zm-2.743 11.447c-.325.399-.648.822-.648 1.322 0 .996 1.27 1.296 3.017 1.296 1.446 0 3.416-.101 3.416-1.446 0-.8-.947-.848-2.145-.923l-3.64-.249zm7.381-11.371c.448.573.923 1.372.923 2.519 0 2.767-2.17 4.388-5.311 4.388-.799 0-1.522-.1-1.97-.224l-.824 1.321 2.444.15c4.314.275 6.857.4 6.857 3.715 0 2.868-2.518 4.488-6.857 4.488-4.513 0-6.234-1.147-6.234-3.117 0-1.122.499-1.72 1.372-2.544-.824-.347-1.098-.97-1.098-1.644 0-.55.274-1.048.724-1.522.449-.473.947-.947 1.546-1.496-1.222-.598-2.145-1.895-2.145-3.74 0-2.868 1.895-4.837 5.71-4.837 1.072 0 1.721.098 2.295.25h4.862v2.118l-2.294.175zm6.681-4.532c-1.421 0-2.244-.823-2.244-2.245 0-1.42.823-2.194 2.244-2.194 1.447 0 2.27.774 2.27 2.194 0 1.422-.823 2.245-2.27 2.245zm-3.217 14.986v-1.97l1.272-.173c.35-.05.4-.125.4-.5v-7.331c0-.274-.075-.449-.326-.523l-1.346-.474.274-2.02h5.163v10.348c0 .4.024.45.399.5l1.271.174v1.969h-7.107zm16.968-.967c-1.072.523-2.643.997-4.065.997-2.967 0-4.089-1.196-4.089-4.015v-6.533c0-.149 0-.249-.2-.249h-1.745v-2.22c2.195-.25 3.067-1.346 3.34-4.064h2.37v3.542c0 .173 0 .249.2.249h3.516v2.493h-3.716v5.96c0 1.47.35 2.044 1.696 2.044.699 0 1.421-.174 2.02-.399l.673 2.195"/><path fill="#DE4C36" d="M520.869 187.14l-11.402-11.4a1.682 1.682 0 0 0-2.378 0l-2.367 2.367 3.003 3.003a1.996 1.996 0 0 1 2.53 2.546l2.894 2.895a2 2 0 1 1-1.199 1.128l-2.7-2.7v7.104a2.001 2.001 0 1 1-1.645-.058v-7.17a2 2 0 0 1-1.086-2.624l-2.96-2.96-7.818 7.816a1.682 1.682 0 0 0 0 2.38l11.401 11.4a1.682 1.682 0 0 0 2.379 0l11.348-11.348a1.683 1.683 0 0 0 0-2.379"/><path fill="#11110F" d="M406.867 173.379H403c-.1 0-.181.081-.181.182v1.91c0 .1.08.182.18.182h1.51v2.372s-.34.116-1.276.116c-1.105 0-2.65-.407-2.65-3.834 0-3.428 1.608-3.879 3.118-3.879 1.306 0 1.87.232 2.228.344.112.035.216-.078.216-.179l.432-1.845a.17.17 0 0 0-.07-.142c-.145-.105-1.032-.606-3.274-.606-2.583 0-5.232 1.109-5.232 6.44 0 5.332 3.033 6.126 5.59 6.126 2.115 0 3.4-.912 3.4-.912.052-.03.058-.104.058-.139v-5.954c0-.1-.081-.182-.18-.182zm19.928-4.712a.181.181 0 0 0-.18-.183h-2.178c-.1 0-.18.082-.18.183v4.25h-3.396v-4.25a.181.181 0 0 0-.18-.183h-2.178a.182.182 0 0 0-.18.183v11.505c0 .102.081.184.18.184h2.179c.1 0 .18-.082.18-.184v-4.92h3.395l-.006 4.92c0 .102.08.184.18.184h2.184c.1 0 .18-.082.18-.184v-11.505zm-15.824 1.539c0-.792-.629-1.432-1.405-1.432-.775 0-1.404.64-1.404 1.432 0 .79.63 1.432 1.404 1.432.776 0 1.405-.642 1.405-1.432zm-.173 7.545v-5.31a.182.182 0 0 0-.18-.184h-2.172c-.1 0-.188.104-.188.205v7.608c0 .224.138.29.316.29h1.957c.214 0 .267-.106.267-.293v-2.316zm24.322-5.494h-2.162a.183.183 0 0 0-.18.184v5.641s-.549.406-1.328.406c-.78 0-.986-.357-.986-1.127v-4.92a.182.182 0 0 0-.18-.184h-2.194a.182.182 0 0 0-.18.184v5.292c0 2.288 1.263 2.848 3.001 2.848 1.426 0 2.576-.795 2.576-.795s.055.419.08.469c.024.05.089.1.158.1l1.396-.007c.099 0 .18-.083.18-.184v-7.723a.182.182 0 0 0-.181-.184zm4.98 6.235a2.576 2.576 0 0 1-1.258-.366v-3.643s.502-.31 1.117-.366c.779-.07 1.529.167 1.529 2.04 0 1.977-.339 2.367-1.388 2.335zm.853-6.482c-1.228 0-2.063.553-2.063.553v-3.896a.182.182 0 0 0-.18-.183h-2.184c-.1 0-.18.082-.18.183v11.505c0 .102.08.184.18.184h1.516c.068 0 .12-.035.158-.097.038-.062.092-.53.092-.53s.893.854 2.584.854c1.986 0 3.124-1.017 3.124-4.563s-1.818-4.01-3.047-4.01zm-23.886.228h-1.634l-.002-2.18c0-.082-.042-.123-.137-.123h-2.226c-.087 0-.133.039-.133.123v2.251s-1.116.272-1.192.294a.182.182 0 0 0-.13.175v1.415c0 .102.08.184.18.184h1.142v3.404c0 2.528 1.757 2.776 2.942 2.776a4.93 4.93 0 0 0 1.297-.215c.065-.024.102-.092.102-.165l.002-1.557a.185.185 0 0 0-.18-.183c-.096 0-.34.039-.59.039-.803 0-1.075-.377-1.075-.864v-3.235h1.634c.1 0 .18-.082.18-.184v-1.772a.182.182 0 0 0-.18-.183z"/><path fill="#CB3837" d="M145 164v20.956h17.443v3.513h13.931v-3.513h31.374V164z"/><path fill="#FFF" d="M155.418 167.513h-6.905v13.93h6.905v-10.417h3.513v10.417h3.512v-13.93zm10.538 0v17.443h7.026v-3.513h6.905v-13.93h-13.93zm10.418 10.418h-3.392v-6.905h3.392v6.905zm13.931-10.418H183.4v13.93h6.905v-10.417h3.512v10.417h3.513v-10.417h3.513v10.417h3.513v-13.93z"/><path fill="#CD6799" d="M358.249 120.233c-2.598.014-4.856.64-6.746 1.564-.694-1.373-1.387-2.597-1.51-3.495-.136-1.047-.299-1.687-.136-2.938.163-1.251.898-3.033.884-3.169-.013-.136-.163-.775-1.659-.789-1.496-.013-2.788.286-2.938.68-.15.395-.435 1.293-.625 2.217-.259 1.36-2.992 6.216-4.557 8.76-.503-.994-.938-1.864-1.033-2.558-.136-1.047-.3-1.686-.136-2.938.163-1.25.897-3.032.884-3.168-.014-.136-.163-.776-1.66-.79-1.495-.013-2.787.286-2.937.68-.15.395-.313 1.32-.626 2.218-.313.897-3.944 9.003-4.896 11.098a62.628 62.628 0 0 1-1.21 2.516s-.014.04-.055.109c-.258.503-.408.775-.408.775v.013c-.204.368-.421.708-.53.708-.082 0-.231-.98.027-2.313.544-2.815 1.836-7.194 1.822-7.344 0-.081.245-.843-.843-1.237-1.06-.395-1.441.258-1.537.258-.095 0-.163.231-.163.231s1.183-4.923-2.257-4.923c-2.15 0-5.114 2.353-6.583 4.474-.925.504-2.897 1.578-5.005 2.734-.803.449-1.632.898-2.407 1.32-.055-.055-.11-.123-.164-.177-4.161-4.448-11.86-7.59-11.533-13.56.123-2.176.87-7.888 14.784-14.825 11.452-5.644 20.564-4.08 22.142-.612 2.257 4.95-4.883 14.145-16.715 15.478-4.516.503-6.882-1.238-7.48-1.89-.626-.68-.722-.722-.953-.586-.38.204-.136.816 0 1.17.354.925 1.81 2.557 4.27 3.36 2.177.707 7.467 1.1 13.873-1.374 7.168-2.775 12.771-10.486 11.125-16.947-1.645-6.555-12.526-8.717-22.821-5.059-6.12 2.176-12.757 5.603-17.531 10.064-5.672 5.305-6.57 9.915-6.202 11.846 1.32 6.855 10.772 11.316 14.553 14.621-.19.109-.368.204-.517.286-1.89.938-9.099 4.705-10.894 8.69-2.04 4.516.326 7.753 1.89 8.188 4.856 1.346 9.847-1.075 12.526-5.073 2.68-3.999 2.353-9.194 1.115-11.574a.276.276 0 0 0-.054-.082c.49-.285.993-.585 1.483-.87a72.314 72.314 0 0 1 2.733-1.537c-.462 1.265-.802 2.774-.965 4.95-.204 2.557.843 5.876 2.216 7.182.612.57 1.333.584 1.796.584 1.605 0 2.325-1.332 3.128-2.91.98-1.931 1.863-4.175 1.863-4.175s-1.102 6.065 1.89 6.065c1.089 0 2.19-1.414 2.68-2.135v.014s.027-.041.081-.136l.177-.286v-.027c.435-.762 1.415-2.49 2.87-5.359 1.877-3.7 3.686-8.323 3.686-8.323s.163 1.129.72 3.005c.327 1.102 1.007 2.313 1.551 3.482-.435.612-.707.952-.707.952l.013.014c-.353.462-.734.965-1.156 1.455-1.482 1.768-3.25 3.795-3.495 4.38-.286.693-.218 1.196.326 1.604.395.3 1.102.34 1.823.3 1.333-.096 2.271-.422 2.734-.626a9.175 9.175 0 0 0 2.352-1.238c1.456-1.074 2.34-2.611 2.258-4.638-.04-1.115-.408-2.23-.857-3.277.136-.19.259-.381.395-.571 2.298-3.36 4.08-7.046 4.08-7.046s.163 1.13.72 3.006c.273.952.83 1.986 1.32 2.992-2.163 1.755-3.495 3.795-3.971 5.128-.857 2.475-.19 3.59 1.074 3.849.571.122 1.387-.15 1.986-.408a9.045 9.045 0 0 0 2.516-1.292c1.455-1.075 2.856-2.571 2.774-4.597-.04-.925-.285-1.836-.625-2.72 1.836-.762 4.202-1.184 7.222-.83 6.473.761 7.752 4.8 7.507 6.5-.245 1.7-1.605 2.626-2.054 2.911-.448.286-.598.381-.557.585.054.3.272.286.653.231.53-.095 3.4-1.373 3.522-4.501.204-3.999-3.604-8.365-10.336-8.324zm-49.941 16.838c-2.15 2.339-5.141 3.223-6.433 2.475-1.388-.803-.844-4.257 1.795-6.732 1.605-1.51 3.672-2.91 5.046-3.768.313-.19.775-.462 1.333-.802.095-.055.15-.082.15-.082l.326-.204c.965 3.536.04 6.65-2.217 9.113zm15.64-10.636c-.748 1.822-2.312 6.487-3.264 6.229-.816-.218-1.32-3.754-.163-7.25.585-1.754 1.822-3.848 2.543-4.664 1.17-1.306 2.462-1.74 2.775-1.21.394.693-1.428 5.753-1.89 6.895zm12.907 6.175c-.313.163-.612.272-.748.19-.095-.054.136-.272.136-.272s1.619-1.74 2.258-2.53c.367-.462.802-1.006 1.265-1.618v.177c0 2.08-2.013 3.481-2.91 4.053zm9.956-2.272c-.232-.163-.19-.707.585-2.407.299-.666 1.006-1.782 2.216-2.856.136.435.232.857.218 1.251-.014 2.625-1.89 3.604-3.02 4.012z"/><g fill="#000"><g transform="translate(320.916 15)"><path d="M6.473 52.985c-.778 0-1.54-.14-2.272-.416-3.065-1.156-4.683-4.453-3.843-7.504l-.031-.015.202-.524L16.104 4.468c.234-.585.125-2.003.016-2.789a1.185 1.185 0 0 1 .015-.523l.016-.031c.015-.031.015-.062.031-.093.249-.647 1.011-.97 2.256-.97 1.494 0 3.563.462 5.68 1.263 1.773.678 3.391 1.525 4.527 2.373 1.338 1.001 1.867 1.895 1.572 2.665l-.047.093-.015.03a1.114 1.114 0 0 1-.327.386c-.685.6-1.696 1.617-1.867 2.08L12.199 49.563l-.031-.015a6.416 6.416 0 0 1-5.695 3.436zm-4.87-8.197l-.047.108c-.996 2.65.358 5.639 3.034 6.656.607.23 1.23.339 1.867.339 2.163 0 4.077-1.28 4.87-3.282l.063-.139L26.887 8.582c.327-.863 1.867-2.234 2.178-2.512l.032-.03c.03-.016.046-.031.046-.047l.016-.015c.015-.108-.125-.586-1.214-1.418-1.042-.785-2.552-1.571-4.248-2.218-1.96-.755-3.952-1.202-5.29-1.202-.887 0-1.182.185-1.23.277v.093c.032.231.328 2.28-.077 3.343L1.603 44.788z"/><path d="M21.535 19.413s-2.148 2.45-4.108 3.328c-1.96.878-3.408.647-5.166 1.664-1.758 1.017-2.645 2.434-2.645 2.434L2.458 45.281c-.778 2.08.374 4.514 2.506 5.33 2.131.817 4.543-.261 5.368-2.326l11.203-28.872zM14.33 30.059a.664.664 0 0 1 .887.339c.156.339 0 .74-.342.878a.664.664 0 0 1-.887-.339.64.64 0 0 1 .342-.878zm-2.878-3.035c.233-.093.498 0 .591.23.094.232 0 .494-.233.586-.234.093-.498 0-.591-.23a.453.453 0 0 1 .233-.586zm-3.159 10.43a.664.664 0 0 1-.887-.339.652.652 0 0 1 .343-.878.664.664 0 0 1 .887.34c.17.338.015.723-.343.877zm.638-2.419c-.28-.631 0-1.37.638-1.663.638-.278 1.385 0 1.68.631.28.632 0 1.371-.637 1.664-.654.277-1.4 0-1.68-.632zm1.618 6.394c.234-.092.498 0 .592.231.093.232 0 .493-.234.586-.233.092-.498 0-.591-.231a.45.45 0 0 1 .233-.586z"/><ellipse cx="22.99" cy="4.118" transform="rotate(-68.96 22.99 4.118)" rx="1.136" ry="4.283"/></g><path d="M249.108 39.528c.685.54 1.93.231 2.77-.678.87-.955 1.01-2.172.326-2.727-.684-.54-1.93-.231-2.77.724-.886.97-1.042 2.142-.326 2.68zM247.07 41.3c-.187 0-.498.323-.234.447.374.138.545.446.545.909-.327 1.864-2.66 4.005-3.594 4.73-.234.23.093.724.326.539.498-.4 1.556-1.217 2.428-2.311-1.416 3.143-4.186 7.18-5.244 8.597-4.139 5.685-10.425 10.908-14.75 10.908-3.455 0-6.38-2.311-7.018-5.732-.047-.37-.545-.446-.451.047.778 4.683 4.419 6.486 8.822 6.486 4.824 0 10.487-3.467 13.6-6.995 5.04-5.731 8.324-12.31 7.437-16.038-.343-1.402-1.323-1.634-1.867-1.587zm30.994 12.464c1.323-.324 2.428-1.048 2.428-2.188 0-.108-.234-.108-.234 0 0 .678-.778 1.233-1.649 1.371-2.054.324-6.146-2.08-8.075-4.545 2.053.77 6.286-.354 8.277-1.756 1.836-1.31 2.568-2.773 2.723-3.96.234-1.94-1.93-3.096-4.917-1.94-1.929.77-4.232 2.449-6.612 5.592 2.52-4.145 7.484-10.862 12.354-15.176 5.928-5.223 9.367-4.222 4.045 1.31-2.194 2.264-6.332 5.222-9.195 6.501-.872.37-.452.863.186.586 3.034-1.31 7.064-4.052 9.507-6.317 7.204-6.856 1.198-12.033-6.8-4.776-5.414 4.96-8.962 10.137-12.027 16.855-1.058 1.263-1.836 2.311-2.816 3.143-.11.092-.202.2-.28.293-2.645 2.25-6.815 5.284-9.414 5.33-1.836.047-2.614-1.31-2.287-3.096.498-2.774 3.407-6.04 5.881-7.18 3.221-1.448 5.104 1.356.872 3.636-1.603.817-3.548 1.263-4.326 1.263-.918 0-.824.37-.046.401 1.275.046 3.36-.493 4.73-1.14 4.325-2.034 4.59-5.855-.094-5.993-5.103-.185-11.203 4.144-11.156 9.552.047 2.45 2.023 3.775 4.73 3.775 4.512-.047 8.542-3.452 11.825-6.425.467-.385.934-.817 1.385-1.263-1.151 2.911-1.742 5.592-1.462 7.58.186 1.448 1.011 2.126 1.649 2.68.14.093.405 0 .233-.277-.964-1.14-.684-4.514.638-7.765 1.105 2.157 5.415 4.93 9.927 3.929zm-5.414-9.475c5.274-4.684 7.344-.493 3.998 2.033-1.742 1.31-5.196 2.311-6.286 1.68l-.233-.139c-.14-.231-.28-.447-.373-.678.87-1.048 1.882-1.987 2.894-2.896zm29.298-5.3c2.101.23 1.23-2.311-.918-1.68-.964.278-1.882 2.08-2.567 3.683-2.1 3.143-5.648 7.395-8.138 9.629-2.193 1.864-4.232 2.357-1.742-1.14 1.011-1.402 2.287-2.912 3.034-4.407 1.743-3.774-1.976-5.454-4.964-3.189-1.742 1.31-4.092 4.052-5.928 5.547-.498.4-.373 1.001.14.585 1.463-1.17 4.046-3.867 6.24-5.454 1.836-1.402 2.567-.493 1.509.678-1.463 1.68-4.046 4.591-4.684 6.456-.918 2.773.187 4.005 2.008 4.005 2.52 0 6.286-3.913 8.822-6.994.825-1.048 1.743-2.265 2.52-3.452-2.193 4.222-4.496 8.505-7.344 12.357-4.045 5.454-9.102 9.552-13.879 9.552-3.454 0-6.426-2.31-7.064-5.731-.047-.37-.498-.447-.451.046.778 4.684 4.419 6.486 8.822 6.486 4.824 0 9.46-2.773 12.712-6.178 6.567-6.871 7.36-14.59 9.367-18.904.95-1.895 1.82-1.988 2.505-1.895zm26.7-6.64c.966-1.634.919-2.913-1.322-2.913-1.696.047-4.777 1.217-6.192 2.311-.327.324-.187.493.233.324.28-.093.591-.277.918-.4 1.603-.863.965.955.591 1.632-1.93 3.328-5.321 7.997-7.11 10.323a33.623 33.623 0 0 1-2.77 3.251c-1.727 1.618-5.135 4.499-7.702 5.454-8.371 3.097 2.287-11 3.174-12.125 1.976-2.45 6.38-6.718 7.702-8.86.965-1.632.918-2.911-1.323-2.911-1.696.046-4.776 1.217-6.192 2.31-.327.324-.187.494.233.324.28-.092.591-.277.918-.4 1.603-.863.965.955.591 1.633-1.929 3.328-5.321 7.996-7.11 10.323-1.463 1.941-3.268 3.913-4.637 4.992-.545.446-.234.862.327.493.497-.324 1.229-1.048 2.053-1.91-1.509 3.003-2.77 7.225 1.23 7.718 3.407.462 7.453-2.989 10.067-5.531.28-.277.607-.586.933-.924l.234-.232c-1.51 3.005-2.754 7.21 1.244 7.704 4.373.585 9.788-5.223 11.888-7.35.405-.4.28-1.093-.404-.4-1.23 1.264-5.415 5.038-8.465 6.178-8.371 3.097 2.287-11 3.174-12.125 1.976-2.465 6.395-6.733 7.718-8.89z"/></g></g></svg>