<svg xmlns="http://www.w3.org/2000/svg" width="667" height="375" viewBox="0 0 667 375"><g fill="none" fill-rule="evenodd"><path fill="#FFC0C0" d="M0 0h667v375H0z"/><path stroke="#FFF" d="M348.824 123.242L551.5 181.5"/><path stroke="#FFFCB5" d="M415.872 95.752l-1.401 17.662 24.053-16.031"/><path stroke="#FFF" d="M275.009 83.064v80.774"/><path stroke="#FFFCB5" stroke-width="5" d="M92.398 163.684l150.887-33.914-33.461 171.898z"/><path fill="#EF9498" d="M307.768 207.829c3.894 16.717 9 41.802-10.597 41.105 0 .035 46.316-.506 83.881 0-18.238-4.349-16.28-26.56-12.862-41.105h98.806c6.08 0 11.004-4.925 11.004-11V56c0-6.083-4.927-11-11.004-11H201.004C194.924 45 190 49.925 190 56v140.828c0 6.083 4.927 11 11.004 11h106.764zM202.878 59.057h262.244v134.714H202.878V59.057z"/></g></svg>