<svg xmlns="http://www.w3.org/2000/svg" width="667" height="375" viewBox="0 0 667 375"><g fill="none" fill-rule="evenodd"><path fill="#B7F2D4" d="M0 0h667v375H0z"/><path stroke="#000" stroke-opacity=".181" d="M621.027 278.29c35.819-9.269 71.073-27.694 93.376-58.065 47.754-65.034 31.087-161.124-31.145-210.638-59.166-47.074-140.229-30.707-209.55-36.092-50.353-3.913-94.031-28.456-141.25-43.863-70.516-23.011-147.642-28.298-219.537-8.065-54.434 15.32-102.15 55.047-126.233 106.24-50.958 108.33-4.178 259.508 112.174 303.318 65.387 24.62 139.402 19.178 203.51-6.507 39.958-16.01 76.744-42.377 119.984-50.012 40.165-7.09 80.209 5.692 119.725 9.79 31.961 3.316 47.867 1.935 78.946-6.107"/><path stroke="#000" stroke-opacity=".181" d="M536.563 230.76c24.401-6.315 48.408-18.907 63.628-39.567 32.731-44.432 21.45-109.765-21.223-143.533-39.607-31.343-97.14-21.795-142.791-24.594-33.692-2.067-65.026-19.725-96.252-29.89-48.147-15.674-100.51-19.375-149.598-5.495-37.04 10.473-69.598 37.554-86.017 72.394-34.788 73.814-2.843 176.84 76.437 206.688 44.561 16.777 94.984 13.058 138.676-4.434 27.221-10.898 52.312-28.858 81.76-34.08 27.385-4.853 54.637 3.87 81.584 6.672 21.763 2.264 32.634 1.314 53.796-4.162"/><path stroke="#000" stroke-opacity=".181" d="M486.328 160.79c17.227-23.383 11.289-57.767-11.168-75.538-20.845-16.495-51.124-11.47-75.149-12.943-17.73-1.087-34.221-10.38-50.654-15.73-25.34-8.25-52.897-10.197-78.73-2.892-19.494 5.512-36.629 19.763-45.27 38.099-18.308 38.847-1.496 93.066 40.228 108.775 23.452 8.83 49.988 6.872 72.981-2.333 14.327-5.736 27.531-15.188 43.03-17.936 14.411-2.554 28.754 2.036 42.935 3.511 11.454 1.192 17.174.692 28.312-2.19 12.842-3.323 25.475-9.95 33.485-20.823z"/><path fill="#000" fill-opacity=".165" d="M409.672 161.034c7.45-1.929 14.778-5.772 19.424-12.08 9.993-13.564 6.549-33.51-6.48-43.818-12.09-9.569-29.654-6.653-43.591-7.508-10.285-.63-19.851-6.022-29.384-9.125-14.698-4.785-30.683-5.914-45.67-1.677-11.307 3.197-21.247 11.464-26.259 22.1-10.62 22.535-.868 53.987 23.335 63.099 13.604 5.122 28.998 3.986 42.335-1.354 8.31-3.327 15.97-8.81 24.96-10.404 8.36-1.482 16.68 1.182 24.907 2.037 6.644.69 9.962.401 16.423-1.27"/></g></svg>