<svg width="667" height="375" viewBox="0 0 667 375" xmlns="http://www.w3.org/2000/svg" xmlns:xlink="http://www.w3.org/1999/xlink"><title>image_feature</title><defs><path id="path-1" d="M642 40h15v18h-15z"/><mask id="mask-2" x="0" y="0" width="15" height="18" fill="#fff"><use xlink:href="#path-1"/></mask></defs><g id="Layout-(ipad)" fill="none" fill-rule="evenodd"><g id="image_feature"><g id="imagen"><path id="Rectangle-4" fill-opacity=".143" fill="#FFD0B8" d="M0 0h667v375H0z"/><path d="M292.954 85.458s12.07-8.14 34.833-7.012c22.768 1.122 61.993 5.326 72.42 29.183 10.417 23.856-2.423 58.16-27.983 74.927-25.556 16.767-59.244 17.963-81.74 10.1-22.486-7.856-32.64-31.344-26.606-54.818 6.035-23.474 8.509-38.907 29.079-52.38h-.003zm55.346 45.806h13.288v-16.121H348.3v16.121zm-21.335 28.277s.55 5.054 4.664 8.704c4.117 3.646 1.482 9.82-2.414 8.981-3.893-.844-5.54-3.975-4.718-8.585.822-4.607 2.465-9.095 2.465-9.095l.003-.005zm-34.833 2.53s-3.564-14.033 4.664-20.485c8.228-6.454 17.005-5.61 22.213-11.509 5.213-5.885 7.684-14.591 7.684-14.591m-39.836 41.193s-3.565-14.033 4.663-20.485a28.127 28.127 0 0 1 4.684-2.969c6.726-3.408 13.302-3.757 17.532-8.537 5.214-5.893 7.687-14.591 7.687-14.591" id="cara" stroke="#000"/><path id="Path-5" stroke="#000" d="M460.278 137.964l-.732 14.555 15.45-2.28-1.806-25.66z"/><use id="Rectangle" stroke="#000" mask="url(#mask-2)" stroke-width="2" xlink:href="#path-1"/><path d="M518.973 79.493l42.274 18.034" id="Path-6" stroke="#000"/><path d="M90.262 110.618s-15.63 15.624 0 15.624 19.592-21.398 19.592-21.398l-19.592 5.774z" id="Path-7" stroke="#000"/><path id="Path-11" stroke="#000" d="M206.702 63.809l-2.509 29.014 13.032 2.673z"/><path id="Path-12" stroke="#000" d="M411.488 206.963l-.662 8.352 11.359-7.58"/><path d="M565.045 167.78s-21.239 22.946 5.934 30.781" id="Path-13" stroke="#000"/><path d="M160.396 162.862s10.087 11.493 6.939 11.493c-3.148 0-11.842 8.706-3.176 15.112" id="Path-14" stroke="#000"/><path d="M19.883 239.625l10.832-21.988" id="Path-15" stroke="#000"/><path d="M30.594 239.938l9.73-24.575" id="Path-16" stroke="#000"/><ellipse id="Oval-2" stroke="#000" cx="282.5" cy="265" rx="6.5" ry="4"/><ellipse id="Oval-2-Copy" stroke="#000" cx="641.5" cy="238" rx="6.5" ry="2"/><ellipse id="Oval-3" stroke="#000" cx="416" cy="27.5" rx="5" ry="5.5"/><path id="Path-17" stroke="#000" d="M40.023 66.66l3.9-14.174 17.73-4.033"/></g></g></g></svg>