<svg xmlns="http://www.w3.org/2000/svg" width="667" height="375" viewBox="0 0 667 375"><g fill="none" fill-rule="evenodd"><path fill="#FFFEE6" d="M0 0h667v375H0z"/><g transform="translate(190 36)"><path fill="#D8D8D8" d="M115.234 149.943s19.565 53.99-18.063 53.99c0 .036 56.316-.505 93.881 0-27.577-6.574-8.98-53.99-8.98-53.99h-66.838z"/><rect width="288" height="162.829" fill="#C2C2C2" rx="11"/><path fill="#9B9B9B" d="M12.878 14.057h262.244v134.714H12.878z"/><path fill="#9F9FFF" d="M27.131 82.157l-1.719 34.149 36.303-5.349-4.246-60.205z"/><path stroke="#FFF" d="M158.824 78.242l89.522 38.135"/><path stroke="#FFFCB5" d="M225.872 50.752l-1.401 17.662 24.053-16.031"/><ellipse cx="133.412" cy="66.612" fill="#81E8B3" rx="10.588" ry="11.631"/><path stroke="#FFF" d="M85.009 38.064v80.774"/></g></g></svg>