<svg xmlns="http://www.w3.org/2000/svg" width="667" height="375" viewBox="0 0 667 375" xmlns:xlink="http://www.w3.org/1999/xlink"><defs><path id="a" d="M524 144h117v117H524z"/><mask id="b" width="117" height="117" x="0" y="0" fill="#fff"><use xlink:href="#a"/></mask></defs><g fill="none" fill-rule="evenodd"><path fill="#F1EAE6" d="M0 0h667v375H0z"/><path stroke="#FFFCB5" stroke-width="10" d="M17 135.914L167.887 102l-33.461 171.898z"/><circle cx="268.5" cy="89.5" r="68.5" stroke="#99D5FF" stroke-opacity=".38" stroke-width="11"/><use stroke="#FFC0C0" stroke-width="22" mask="url(#b)" xlink:href="#a"/><path stroke="#B7F2D4" stroke-width="11" d="M354.143 210.672c-32.813 27.398 10.043 22.8 20.625 52.261 10.582 29.461-70.524 11.203-28.688 55.063s23.441-24.896 48.574-30.39c25.133-5.496 25.196 74.593 61.7 37.296 36.504-37.297-40.16-42.246-40.16-56.629 0-14.383 69.324-52.312 24.015-57.601-45.309-5.29-31.555 27.398-45.555 27.398s-7.699-54.797-40.511-27.398z"/><path stroke="#979797" d="M128.105 168.754l142.114-92.426 315.152 114.309-186.094 88.14z"/></g></svg>