<svg xmlns="http://www.w3.org/2000/svg" width="667" height="375" viewBox="0 0 667 375"><defs><linearGradient id="a" x1="50%" x2="50%" y1="3.961%" y2="100%"><stop stop-color="#FDFDFD" offset="0%"/><stop stop-color="#CBCBCB" offset="100%"/></linearGradient><linearGradient id="b" x1="50%" x2="50%" y1="3.961%" y2="100%"><stop stop-color="#B2E198" offset="0%"/><stop stop-color="#04A171" offset="100%"/></linearGradient></defs><g fill="none" fill-rule="evenodd"><path fill="#EFEFEF" d="M0 0h667v375H0z"/><path fill="#264DE4" d="M353.979 84.879l-13.836-3.846-3.084-34.624h33.882l-3.087 34.619z"/><path fill="#2965F1" d="M365.212 78.823l2.637-29.583H354v32.695z"/><path fill="#EBEBEB" d="M344.128 62.082l.38 4.246H354v-4.246zm-.764-8.595l.386 4.246H354v-4.246zM354 73.11l-.019.005-4.724-1.277-.302-3.386h-4.257l.594 6.667 8.688 2.415.02-.006z"/><path fill="#000" d="M345.033 37h5.137v2.151h-2.989v2.151h2.989v2.15h-5.137zm6.165 0h5.137v1.87h-2.989v.374h2.989v4.302h-5.137v-1.964h2.989v-.374h-2.989zm6.165 0h5.137v1.87h-2.989v.374h2.989v4.302h-5.137v-1.964h2.989v-.374h-2.989z"/><path fill="#FFF" d="M363.845 62.082l.766-8.595h-10.626v4.246h5.977l-.386 4.349h-5.591v4.246h5.223l-.492 5.508-4.731 1.278v4.418l8.696-2.413.064-.717.996-11.18z"/><path fill="#161614" d="M161 122c-7.73 0-14 6.19-14 13.824 0 6.108 4.011 11.29 9.574 13.118.7.128.957-.3.957-.665 0-.33-.013-1.419-.02-2.574-3.894.836-4.716-1.631-4.716-1.631-.637-1.598-1.554-2.023-1.554-2.023-1.27-.858.095-.84.095-.84 1.406.097 2.146 1.424 2.146 1.424 1.249 2.114 3.276 1.503 4.074 1.15.126-.894.489-1.504.89-1.849-3.11-.35-6.38-1.535-6.38-6.832 0-1.51.548-2.742 1.443-3.71-.145-.349-.624-1.755.136-3.659 0 0 1.176-.371 3.85 1.417a13.58 13.58 0 0 1 3.505-.465c1.19.005 2.388.159 3.507.465 2.672-1.788 3.846-1.417 3.846-1.417.763 1.904.283 3.31.138 3.659.897.968 1.44 2.2 1.44 3.71 0 5.31-3.275 6.479-6.392 6.821.502.429.95 1.27.95 2.56 0 1.85-.017 3.338-.017 3.794 0 .368.252.799.962.663 5.56-1.83 9.566-7.01 9.566-13.116 0-7.635-6.268-13.824-14-13.824zm-8.757 19.693c-.03.068-.14.089-.24.042-.101-.045-.158-.139-.125-.208.03-.07.14-.09.241-.043.102.045.16.14.124.209zm.69.606c-.068.062-.198.033-.287-.063-.091-.097-.108-.226-.04-.288.068-.06.195-.032.287.064.091.098.109.226.04.287zm.472.777c-.086.059-.226.003-.313-.12-.086-.122-.086-.27.002-.329.087-.059.225-.006.313.116.085.125.085.273-.002.333zm.799.899c-.077.083-.24.061-.36-.053-.123-.111-.157-.27-.08-.353.078-.084.242-.06.363.053.121.11.158.27.077.353zm1.032.303c-.034.109-.191.158-.35.112-.158-.047-.262-.174-.23-.284.033-.109.191-.16.351-.11.158.046.262.172.23.282zm1.175.13c.004.113-.13.208-.297.21-.167.003-.302-.089-.304-.201 0-.115.131-.209.299-.212.166-.003.302.089.302.202zm1.155-.045c.02.112-.096.226-.261.256-.163.03-.313-.039-.334-.15-.02-.113.098-.228.26-.257.166-.028.314.038.335.151z"/><path fill="#E44D26" d="M208.941 70.409l-3.087 34.619-13.875 3.851-13.836-3.846-3.084-34.624z"/><path fill="#F16529" d="M192 105.935l11.212-3.112 2.637-29.583H192z"/><path fill="#EBEBEB" d="M186 81.733h6v-4.246h-10.636l.102 1.139 1.042 11.702H192v-4.246h-5.613zm.955 10.719h-4.257l.594 6.667 8.688 2.415.02-.006V97.11l-.019.005-4.724-1.277z"/><path fill="#000" d="M178.212 61h2.155v2.132h1.972V61h2.156v6.457h-2.156v-2.163h-1.972v2.163h-2.155V61zm9.117 2.141h-1.898V61h5.952v2.141h-1.898v4.316h-2.156v-4.316zM192.328 61h2.248l1.382 2.269L197.339 61h2.249v6.457h-2.147v-3.201l-1.483 2.296h-.037l-1.484-2.296v3.201h-2.109zm8.333 0h2.156v4.322h3.031v2.135h-5.187z"/><path fill="#FFF" d="M191.985 90.328h5.223l-.492 5.508-4.731 1.278v4.418l8.696-2.413.064-.717.996-11.18.104-1.14h-9.86zm0-8.605v.01h10.246l.085-.954.193-2.153.102-1.139h-10.626z"/><path fill="#F7DF1E" d="M180 170h25v25h-25z"/><path fill="#000" d="M186.573 190.892l1.914-1.158c.369.654.704 1.208 1.51 1.208.772 0 1.258-.302 1.258-1.476v-7.989h2.35v8.022c0 2.433-1.427 3.54-3.507 3.54-1.88 0-2.97-.973-3.525-2.147m8.308-.252l1.913-1.107c.503.822 1.158 1.426 2.316 1.426.973 0 1.594-.487 1.594-1.158 0-.806-.638-1.09-1.712-1.56l-.587-.252c-1.695-.722-2.82-1.628-2.82-3.541 0-1.762 1.343-3.105 3.441-3.105 1.494 0 2.568.52 3.34 1.88l-1.83 1.174c-.403-.721-.839-1.006-1.51-1.006-.688 0-1.124.436-1.124 1.006 0 .705.436.99 1.443 1.427l.587.252c1.997.856 3.121 1.728 3.121 3.691 0 2.115-1.66 3.273-3.893 3.273-2.181 0-3.591-1.04-4.279-2.4"/><path fill="#FFF" d="M209.436 141.855c0 11.194 10.847 21.644 27.948 27.535-3.415 17.325-.612 31.29 8.75 36.73 9.624 5.593 23.96 1.722 37.567-10.264 13.264 11.502 26.67 16.03 36.023 10.572 9.614-5.608 12.538-20.52 9.029-38.386 17.812-5.935 27.775-14.846 27.775-26.187 0-10.935-10.867-20.396-27.738-26.248 3.778-18.605.577-32.23-9.172-37.896-9.4-5.463-22.961-.702-36.42 11.102-14.002-12.529-27.43-16.354-37.17-10.671-9.39 5.478-12.07 19.696-8.644 37.342-16.524 5.806-27.948 15.48-27.948 26.37z"/><path fill="#53C1DE" d="M325.217 121.419a87.017 87.017 0 0 0-4.205-1.336c.238-.977.456-1.942.65-2.89 3.183-15.572 1.102-28.116-6.005-32.246-6.815-3.96-17.96.169-29.216 10.04a87.63 87.63 0 0 0-3.253 3.008 79.772 79.772 0 0 0-2.164-2.015c-11.797-10.555-23.62-15.003-30.721-10.861-6.808 3.972-8.824 15.765-5.959 30.522.277 1.425.6 2.881.966 4.361-1.674.479-3.29.99-4.835 1.532-13.83 4.86-22.663 12.475-22.663 20.374 0 8.159 9.482 16.342 23.887 21.304 1.137.391 2.317.761 3.532 1.113-.394 1.6-.738 3.17-1.026 4.7-2.732 14.5-.598 26.015 6.192 29.961 7.014 4.076 18.784-.113 30.246-10.21a74.5 74.5 0 0 0 2.726-2.531 86.003 86.003 0 0 0 3.531 3.246c11.102 9.628 22.067 13.516 28.851 9.558 7.007-4.088 9.284-16.457 6.328-31.506a75.066 75.066 0 0 0-.784-3.519c.827-.246 1.638-.5 2.43-.765 14.975-5 24.718-13.083 24.718-21.35 0-7.929-9.117-15.596-23.226-20.49z"/><path fill="#FFF" d="M321.97 157.921c-.715.239-1.448.469-2.195.692-1.653-5.274-3.884-10.883-6.615-16.677 2.606-5.657 4.75-11.194 6.358-16.434 1.336.39 2.633.8 3.883 1.234 12.088 4.194 19.462 10.395 19.462 15.172 0 5.09-7.963 11.696-20.894 16.013zm-5.366 10.714c1.307 6.655 1.494 12.671.628 17.375-.778 4.226-2.343 7.044-4.277 8.172-4.117 2.401-12.92-.72-22.415-8.954a80.201 80.201 0 0 1-3.285-3.018c3.681-4.057 7.36-8.773 10.95-14.011 6.315-.565 12.281-1.488 17.692-2.748a68.99 68.99 0 0 1 .707 3.184zm-54.257 25.132c-4.022 1.432-7.225 1.473-9.162.347-4.12-2.395-5.833-11.64-3.497-24.041.268-1.42.587-2.88.954-4.37 5.351 1.192 11.274 2.05 17.604 2.567 3.614 5.126 7.4 9.837 11.214 13.962a68.92 68.92 0 0 1-2.49 2.31c-5.068 4.464-10.147 7.632-14.623 9.225zm-18.843-35.877c-6.37-2.194-11.63-5.045-15.236-8.157-3.24-2.796-4.875-5.572-4.875-7.825 0-4.793 7.091-10.908 18.919-15.063a80.068 80.068 0 0 1 4.496-1.426c1.635 5.358 3.78 10.96 6.367 16.626-2.621 5.75-4.796 11.441-6.447 16.863a68.357 68.357 0 0 1-3.224-1.018zm6.317-43.329c-2.455-12.644-.825-22.182 3.278-24.575 4.37-2.55 14.034 1.086 24.22 10.2a73.863 73.863 0 0 1 1.96 1.823c-3.796 4.107-7.546 8.782-11.129 13.878-6.143.574-12.024 1.495-17.431 2.73a83.002 83.002 0 0 1-.898-4.056zm56.348 14.022a179.12 179.12 0 0 0-3.972-6.584c4.167.531 8.16 1.236 11.91 2.099-1.125 3.636-2.528 7.438-4.18 11.335a196.46 196.46 0 0 0-3.758-6.85zm-22.979-22.555c2.574 2.81 5.152 5.948 7.687 9.352a163.067 163.067 0 0 0-15.44-.003 123.84 123.84 0 0 1 7.753-9.35zm-23.126 22.594a166.589 166.589 0 0 0-3.687 6.807 124.772 124.772 0 0 1-4.151-11.39 124.73 124.73 0 0 1 11.843-2.05 165.586 165.586 0 0 0-4.005 6.632zm4.124 33.606c-4.279-.48-8.313-1.133-12.04-1.95 1.155-3.754 2.576-7.655 4.235-11.622a166.442 166.442 0 0 0 7.805 13.572zm19.157 15.957c-2.645-2.876-5.284-6.057-7.86-9.479 2.501.099 5.051.15 7.643.15 2.662 0 5.295-.06 7.885-.177-2.543 3.483-5.112 6.67-7.668 9.506zm26.635-29.731c1.746 4.01 3.218 7.89 4.387 11.58-3.788.87-7.877 1.572-12.186 2.093 1.356-2.165 2.695-4.4 4.01-6.698a179.078 179.078 0 0 0 3.79-6.975zm-8.623 4.165a184.627 184.627 0 0 1-6.266 10.19c-3.877.279-7.881.423-11.963.423-4.065 0-8.02-.127-11.827-.377a159.703 159.703 0 0 1-6.385-10.205 158.505 158.505 0 0 1-5.574-10.607 159.988 159.988 0 0 1 5.557-10.612 158.223 158.223 0 0 1 6.334-10.162 156.898 156.898 0 0 1 23.812.004 169.575 169.575 0 0 1 6.294 10.128 184.822 184.822 0 0 1 5.631 10.562 169.878 169.878 0 0 1-5.613 10.656zm11.512-62.8c4.375 2.542 6.076 12.795 3.327 26.239a74.79 74.79 0 0 1-.587 2.617c-5.42-1.26-11.304-2.198-17.466-2.78-3.59-5.152-7.31-9.835-11.043-13.889a82.286 82.286 0 0 1 3.005-2.777c9.644-8.458 18.657-11.797 22.764-9.41z"/><path fill="#53C1DE" d="M283.128 130.153c6.442 0 11.665 5.263 11.665 11.755 0 6.492-5.223 11.756-11.665 11.756-6.442 0-11.665-5.264-11.665-11.756s5.223-11.755 11.665-11.755"/><path fill="#FFC24A" d="M368 169.039l.804-1.135 38.044-72.731.08-.77-16.77-31.74c-1.405-2.658-5.36-1.986-5.822.99L368 169.04z"/><path fill="#FFA712" d="M368.475 168.174l.608-1.195 37.646-71.97-16.73-31.868c-1.39-2.63-4.92-1.96-5.376.985l-16.148 104.048z"/><path fill="#F4BD62" d="M369.083 166.979l37.646-71.97-16.73-31.868c-1.39-2.63-4.92-1.96-5.376.985l-16.148 104.048.608-1.195zm50.071-48.569l12.487-12.885-12.49-24.024c-1.186-2.275-4.497-2.281-5.67 0l-6.673 12.823v1.092l12.346 22.994z"/><path fill="#FFA50E" d="M418.931 117.873l12.14-12.527-12.14-23.29c-1.153-2.211-3.953-2.443-5.094-.225l-6.708 13.021-.2.666 12.002 22.355z"/><path fill="#F4BD62" d="M431.07 105.346l-12.139-23.29c-1.153-2.211-3.953-2.443-5.094-.225l-6.708 13.021-.2.666 12.002 22.355 12.14-12.527z"/><path fill="#F6820C" d="M368 169.039l.365-.369 1.324-.543 48.681-48.866.617-1.691-12.144-23.316z"/><path fill="#FDE068" d="M420.714 193.683l44.057-24.756-12.581-78.07c-.394-2.442-3.368-3.408-5.103-1.656L368 169.039l43.805 24.642a9.082 9.082 0 0 0 8.909.002"/><path fill="#FCCA3F" d="M464.376 168.72l-12.485-77.477c-.391-2.424-2.864-3.427-4.586-1.69l-78.816 79.334 43.323 24.399a9.013 9.013 0 0 0 8.842.002l43.722-24.569z"/><path fill="#EEAB37" d="M420.714 192.954a9.082 9.082 0 0 1-8.91-.002l-43.451-24.288-.353.375 43.805 24.642a9.082 9.082 0 0 0 8.909.002l44.057-24.756-.108-.67-43.95 24.697z"/><path fill="#CD6799" d="M487.489 55.477a12.538 12.538 0 0 0-5.511 1.285c-.567-1.128-1.134-2.134-1.234-2.871-.11-.86-.244-1.385-.11-2.413.133-1.028.733-2.492.722-2.603-.012-.112-.134-.637-1.356-.648-1.222-.011-2.278.234-2.4.558a13.538 13.538 0 0 0-.511 1.821c-.211 1.117-2.445 5.106-3.722 7.195-.411-.816-.767-1.53-.845-2.1-.11-.86-.244-1.386-.11-2.413.132-1.028.732-2.492.721-2.603-.01-.112-.133-.637-1.355-.648-1.222-.012-2.278.234-2.4.558-.122.324-.256 1.084-.511 1.821-.256.737-3.223 7.396-4 9.116-.4.883-.745 1.587-.99 2.067 0 0-.01.034-.044.09a28.27 28.27 0 0 1-.333.636v.011c-.167.302-.344.581-.433.581-.067 0-.19-.804.022-1.899.444-2.312 1.5-5.91 1.489-6.033 0-.067.2-.692-.69-1.016-.866-.324-1.177.212-1.255.212-.077 0-.133.19-.133.19s.967-4.044-1.844-4.044c-1.756 0-4.178 1.933-5.378 3.675-.756.414-2.367 1.296-4.09 2.246-.655.369-1.332.737-1.966 1.084-.044-.045-.089-.101-.133-.146-3.4-3.653-9.689-6.234-9.422-11.138.1-1.788.71-6.48 12.077-12.177 9.356-4.637 16.8-3.352 18.09-.503 1.844 4.066-3.99 11.619-13.656 12.713-3.69.414-5.622-1.016-6.111-1.552-.511-.559-.59-.593-.778-.48-.311.167-.111.67 0 .96.289.76 1.478 2.1 3.489 2.76 1.778.58 6.1.904 11.333-1.129 5.856-2.279 10.433-8.613 9.089-13.92-1.344-5.385-10.233-7.161-18.644-4.156-5 1.788-10.423 4.603-14.323 8.267-4.633 4.357-5.366 8.144-5.066 9.73 1.077 5.631 8.8 9.296 11.889 12.01-.156.09-.3.168-.423.235-1.544.771-7.433 3.866-8.9 7.139-1.666 3.709.267 6.368 1.545 6.725 3.966 1.106 8.044-.882 10.233-4.167 2.189-3.284 1.922-7.552.911-9.507a.215.215 0 0 0-.044-.067c.4-.235.81-.48 1.21-.715.79-.47 1.568-.905 2.234-1.262-.378 1.039-.655 2.279-.789 4.066-.166 2.1.69 4.826 1.811 5.899.5.47 1.09.48 1.467.48 1.311 0 1.9-1.095 2.556-2.39.8-1.587 1.522-3.43 1.522-3.43s-.9 4.982 1.544 4.982c.89 0 1.79-1.161 2.19-1.754v.012l.066-.112.144-.235v-.022a96.786 96.786 0 0 0 2.345-4.402c1.533-3.038 3.01-6.837 3.01-6.837s.134.927.59 2.47c.266.904.822 1.898 1.266 2.86-.355.502-.577.781-.577.781l.01.011c-.288.38-.6.793-.944 1.196-1.21 1.452-2.655 3.117-2.855 3.597-.234.57-.178.983.266 1.318.323.246.9.28 1.49.246 1.088-.078 1.855-.346 2.233-.514a7.481 7.481 0 0 0 1.922-1.017c1.189-.882 1.911-2.144 1.844-3.81-.033-.915-.333-1.831-.7-2.692.111-.156.211-.312.323-.469 1.877-2.76 3.333-5.787 3.333-5.787s.133.928.589 2.47c.222.781.678 1.63 1.078 2.457-1.767 1.441-2.856 3.117-3.245 4.212-.7 2.033-.155 2.95.878 3.161.467.101 1.133-.122 1.622-.335a7.374 7.374 0 0 0 2.056-1.061c1.189-.883 2.333-2.112 2.266-3.776-.033-.76-.233-1.508-.51-2.234 1.5-.626 3.433-.972 5.9-.682 5.288.626 6.333 3.944 6.133 5.34-.2 1.397-1.312 2.156-1.678 2.391-.367.235-.49.313-.456.48.045.246.222.235.534.19.433-.078 2.777-1.128 2.877-3.698.167-3.284-2.944-6.87-8.444-6.837zm-40.8 13.831c-1.756 1.922-4.2 2.648-5.256 2.033-1.133-.659-.689-3.497 1.467-5.53 1.311-1.24 3-2.39 4.122-3.094.256-.157.634-.38 1.09-.66a2.79 2.79 0 0 1 .121-.067c.09-.055.178-.111.267-.167.789 2.905.033 5.463-1.811 7.485zm12.778-8.736c-.611 1.497-1.89 5.329-2.667 5.116-.667-.178-1.078-3.083-.133-5.954.477-1.441 1.489-3.162 2.077-3.832.956-1.073 2.012-1.43 2.267-.995.322.57-1.167 4.726-1.544 5.665zm10.544 5.072c-.255.134-.5.223-.611.156-.078-.045.111-.223.111-.223s1.322-1.43 1.845-2.078c.3-.38.655-.827 1.033-1.33v.145c0 1.71-1.645 2.86-2.378 3.33zm8.133-1.866c-.188-.134-.155-.581.478-1.978.245-.547.822-1.463 1.811-2.346.111.358.19.704.178 1.028-.011 2.156-1.544 2.96-2.467 3.296z"/><g transform="translate(481 105)"><circle cx="15" cy="15" r="14.983" fill="url(#a)"/><ellipse cx="14.983" cy="15.017" fill="url(#b)" rx="13.7" ry="13.7"/><path fill="#F2F8F6" d="M11.771 12.902a25.99 25.99 0 0 0-.467.748 19.27 19.27 0 0 1-.432-1.333 19.05 19.05 0 0 1 1.392-.146 30 30 0 0 0-.493.731zm12.087.876c-.484-.465-1.177-.89-2.058-1.266-1.749-.745-4.092-1.227-6.597-1.359a27.518 27.518 0 0 0-.882-.032c1.913-2.283 3.76-3.498 4.836-3.539a.959.959 0 0 1 .568.134c.504.327.644 1.342.374 2.715a.5.5 0 0 0 .981.193c.464-2.36-.184-3.34-.81-3.746-.326-.212-.714-.311-1.151-.295-1.655.063-3.974 1.827-6.09 4.547-.837.03-1.644.102-2.4.214a12.434 12.434 0 0 1-.19-1.115c-.19-1.564.043-2.674.623-2.97a.804.804 0 0 1 .31-.083c.518-.039 1.249.309 2.056.98a.5.5 0 0 0 .64-.77c-1.038-.861-1.97-1.267-2.77-1.207a1.78 1.78 0 0 0-.69.19c-.539.274-.907.8-1.094 1.562-.16.653-.183 1.466-.068 2.418.046.377.113.768.199 1.172-.59.124-1.138.276-1.629.453-2.146.776-2.641 1.798-2.68 2.518-.035.689.317 1.714 2.201 2.685a.5.5 0 0 0 .458-.889c-1.083-.558-1.688-1.194-1.66-1.743.041-.774 1.338-1.594 3.548-2.055.205.74.468 1.507.783 2.286-.794 1.49-1.374 2.96-1.674 4.267-.215.934-.278 1.745-.187 2.41.106.777.417 1.338.924 1.668.258.167.606.299 1.064.299.663 0 1.555-.276 2.735-1.118a.5.5 0 1 0-.58-.814c-1.163.83-2.163 1.126-2.674.794-.545-.354-.66-1.481-.308-3.015.234-1.017.651-2.144 1.217-3.306.123.263.251.526.385.79 1.139 2.236 2.532 4.182 3.925 5.479.701.653 1.372 1.113 1.993 1.367.377.154.732.23 1.06.23.305 0 .587-.065.846-.197.52-.265.88-.764 1.073-1.485.165-.616.202-1.386.11-2.286-.18-1.77-.85-3.93-1.884-6.081a.5.5 0 0 0-.9.433c.984 2.05 1.62 4.091 1.79 5.75.148 1.458-.092 2.497-.643 2.778-.58.295-1.612-.169-2.763-1.24-1.31-1.22-2.629-3.067-3.716-5.203a24.674 24.674 0 0 1-.686-1.462 24.72 24.72 0 0 1 1.76-2.716 23.357 23.357 0 0 1 1.618.034c2.391.125 4.613.58 6.258 1.28 1.446.616 2.289 1.372 2.255 2.022-.03.551-.7 1.122-1.84 1.564a.5.5 0 0 0 .362.933c1.981-.77 2.44-1.754 2.476-2.445.032-.604-.239-1.185-.804-1.728z"/><path fill="#F1F8F3" d="M13.968 15.133a1.093 1.093 0 1 0 2.186.001 1.093 1.093 0 0 0-2.186 0"/></g></g></svg>