<svg xmlns="http://www.w3.org/2000/svg" width="667" height="375" viewBox="0 0 667 375"><g fill="none" fill-rule="evenodd"><path fill="#F1F1F1" fill-opacity=".62" d="M0 0h667v375H0z"/><path fill="#00F" fill-opacity=".102" d="M466.946 140.865L464.274 194l56.406-8.323L514.084 92z"/><path fill="#E06C75" fill-opacity=".212" d="M346 96h136v102H346z"/><path stroke="#000" d="M422 30l42.274 18.034M422 83l42.274 18.034M422 143l42.274 18.034M422 206.964l42.274 18.033m-270.328-67.223s-15.629 15.624 0 15.624c15.63 0 19.592-21.398 19.592-21.398l-19.592 5.774z"/><path fill="#81E8B3" d="M237.147 90l-9.263 107.131L276 207z"/><path stroke="#000" d="M411.488 206.963l-.662 8.352 11.359-7.58m142.86-39.955s-21.239 22.946 5.934 30.781"/><path stroke="#000" stroke-width="2" d="M80.396 122.862s10.087 11.493 6.939 11.493c-3.148 0-11.842 8.706-3.176 15.112"/><path stroke="#000" d="M283 111.988L293.832 90M304 155.574L313.73 131"/><ellipse cx="537.5" cy="149" stroke="#000" rx="6.5" ry="2"/><ellipse cx="416" cy="27.5" stroke="#000" rx="5" ry="5.5"/><ellipse cx="416" cy="77.5" stroke="#000" rx="5" ry="5.5"/><ellipse cx="416" cy="137.5" stroke="#000" rx="5" ry="5.5"/><ellipse cx="386" cy="27.5" stroke="#000" rx="5" ry="5.5"/><ellipse cx="386" cy="77.5" stroke="#000" rx="5" ry="5.5"/><ellipse cx="304" cy="148.5" fill="#FFFCB5" fill-opacity=".657" rx="52" ry="53.5"/><ellipse cx="366" cy="27.5" stroke="#000" rx="5" ry="5.5"/><ellipse cx="366" cy="77.5" stroke="#000" rx="5" ry="5.5"/><ellipse cx="366" cy="137.5" stroke="#000" rx="5" ry="5.5"/><path stroke="#000" d="M228 207.207l3.899-14.174 17.73-4.033M384 137h27.635M384 77h27.635M394.5 27h17.135"/><path stroke="#979797" d="M366.41 33.914v38.197m20-38.197v38.197m30-38.197v38.197"/></g></svg>