<svg width="533" height="502" viewBox="0 0 533 502" xmlns="http://www.w3.org/2000/svg"><title>espiral</title><g id="Page-1" fill="none" fill-rule="evenodd"><g id="espiral" transform="translate(1 1)" stroke="#81E8B3"><path d="M257.809 295.363c-13.257 0-30.698-4.522-30.698-24.442s9.086-34.118 30.698-34.118c37.688 0 39.884 17.87 44.565 34.118 4.68 16.248-7.354 56.397-44.565 56.397-37.207 0-66.344-23.592-66.344-56.397 0-32.804 21.582-76.51 66.344-76.51 44.764 0 86.582 22.633 86.582 76.51 0 53.875-50.26 91.203-86.582 91.203-36.646 0-106.03-13.16-106.03-91.203 0-78.04 45.77-122.78 106.03-122.78 60.262 0 140.225 21.704 140.225 122.78 0 101.077-53.936 156.534-140.225 156.534-86.284 0-175.756-65.328-175.756-156.534 0-91.203 87.342-180.14 175.756-180.14 104.315 0 210.236 47.668 210.236 180.14C468.045 403.396 387.013 500 257.81 500 128.606 500 0 428.436 0 270.921 0 119.364 128.52 0 257.809 0c135.396 0 273.696 70.17 273.696 271.075 0 200.9-233.702 75.981-273.696 0 0-15.719 17.217-9.177 17.217 1.481s1.423 22.807-17.217 22.807z" id="Shape"/></g></g></svg>