<?xml version="1.0" standalone="no"?>
<!DOCTYPE svg PUBLIC "-//W3C//DTD SVG 20010904//EN"
 "http://www.w3.org/TR/2001/REC-SVG-20010904/DTD/svg10.dtd">
<svg version="1.0" xmlns="http://www.w3.org/2000/svg"
 width="700.000000pt" height="700.000000pt" viewBox="0 0 700.000000 700.000000"
 preserveAspectRatio="xMidYMid meet">
<metadata>
Created by potrace 1.11, written by Peter Selinger 2001-2013
</metadata>
<g transform="translate(0.000000,700.000000) scale(0.100000,-0.100000)"
fill="#000000" stroke="none">
<path d="M3355 6030 c-1045 -75 -1945 -784 -2268 -1786 -152 -471 -163 -990
-32 -1469 277 -1012 1145 -1759 2183 -1880 158 -19 460 -19 612 -1 470 57 904
237 1290 534 109 84 348 323 432 432 297 386 477 820 534 1290 18 152 18 454
-1 612 -121 1038 -868 1906 -1880 2183 -281 77 -578 106 -870 85z"/>
</g>
</svg>
